<svg width="390" height="844" viewBox="0 0 390 844" fill="none" xmlns="http://www.w3.org/2000/svg">
<g clip-path="url(#clip0_2028_4698)">
<g filter="url(#filter0_f_2028_4698)">
<circle cx="156" cy="-70" r="384" fill="#F175B9" fill-opacity="0.2"/>
</g>
<g filter="url(#filter1_f_2028_4698)">
<path d="M221.404 237.671C-35.0566 111.01 506.676 -449.619 1074.29 -48.0628C1154.47 -8.46642 1165.5 190.78 1041.94 383.073C919.862 573.048 759.361 652.082 659.571 621.022C405.234 541.859 477.864 364.333 221.404 237.671Z" fill="#A285FF" fill-opacity="0.3"/>
</g>
<g filter="url(#filter2_f_2028_4698)">
<path d="M667.305 842.049C944.18 900.558 618.43 1305.75 -32.2968 1098.86C-118.852 1080.57 -191.395 954.311 -137.249 820.76C-83.7569 688.818 39.9943 624.36 142.026 635.49C402.077 663.858 390.429 783.539 667.305 842.049Z" fill="#A285FF" fill-opacity="0.2"/>
</g>
<g filter="url(#filter3_f_2028_4698)">
<path d="M1004.89 497.041C1263.88 345.811 1266.88 844.72 613.14 1153.17C532.175 1200.44 392.313 1164.95 348.842 1037.2C305.894 910.985 362.836 782.038 451.506 719.245C677.503 559.201 745.894 648.271 1004.89 497.041Z" fill="#86A6FF" fill-opacity="0.4"/>
</g>
<g filter="url(#filter4_f_2028_4698)">
<circle cx="546.5" cy="117.5" r="238.5" fill="#F175B9" fill-opacity="0.1"/>
</g>
</g>
<defs>
<filter id="filter0_f_2028_4698" x="-728" y="-954" width="1768" height="1768" filterUnits="userSpaceOnUse" color-interpolation-filters="sRGB">
<feFlood flood-opacity="0" result="BackgroundImageFix"/>
<feBlend mode="normal" in="SourceGraphic" in2="BackgroundImageFix" result="shape"/>
<feGaussianBlur stdDeviation="250" result="effect1_foregroundBlur_2028_4698"/>
</filter>
<filter id="filter1_f_2028_4698" x="-344.044" y="-690.709" width="1978.77" height="1818.3" filterUnits="userSpaceOnUse" color-interpolation-filters="sRGB">
<feFlood flood-opacity="0" result="BackgroundImageFix"/>
<feBlend mode="normal" in="SourceGraphic" in2="BackgroundImageFix" result="shape"/>
<feGaussianBlur stdDeviation="250" result="effect1_foregroundBlur_2028_4698"/>
</filter>
<filter id="filter2_f_2028_4698" x="-655.9" y="134.258" width="1922.28" height="1522.96" filterUnits="userSpaceOnUse" color-interpolation-filters="sRGB">
<feFlood flood-opacity="0" result="BackgroundImageFix"/>
<feBlend mode="normal" in="SourceGraphic" in2="BackgroundImageFix" result="shape"/>
<feGaussianBlur stdDeviation="250" result="effect1_foregroundBlur_2028_4698"/>
</filter>
<filter id="filter3_f_2028_4698" x="-65.7721" y="69.1587" width="1633.1" height="1504.05" filterUnits="userSpaceOnUse" color-interpolation-filters="sRGB">
<feFlood flood-opacity="0" result="BackgroundImageFix"/>
<feBlend mode="normal" in="SourceGraphic" in2="BackgroundImageFix" result="shape"/>
<feGaussianBlur stdDeviation="200" result="effect1_foregroundBlur_2028_4698"/>
</filter>
<filter id="filter4_f_2028_4698" x="-192" y="-621" width="1477" height="1477" filterUnits="userSpaceOnUse" color-interpolation-filters="sRGB">
<feFlood flood-opacity="0" result="BackgroundImageFix"/>
<feBlend mode="normal" in="SourceGraphic" in2="BackgroundImageFix" result="shape"/>
<feGaussianBlur stdDeviation="250" result="effect1_foregroundBlur_2028_4698"/>
</filter>
<clipPath id="clip0_2028_4698">
<rect width="390" height="844" fill="white"/>
</clipPath>
</defs>
</svg>
