<svg width="1513" height="929" viewBox="0 0 1513 929" fill="none" xmlns="http://www.w3.org/2000/svg">
<g clip-path="url(#clip0_2028_4732)">
<g filter="url(#filter0_f_2028_4732)">
<circle cx="156.361" cy="-69.7234" r="384" fill="#F175B9" fill-opacity="0.2"/>
</g>
<g filter="url(#filter1_f_2028_4732)">
<path d="M865.765 237.948C609.305 111.287 1151.04 -449.343 1718.65 -47.7862C1798.83 -8.18981 1809.86 191.057 1686.3 383.349C1564.22 573.324 1403.72 652.358 1303.93 621.298C1049.6 542.135 1122.23 364.61 865.765 237.948Z" fill="#A285FF" fill-opacity="0.5"/>
</g>
<g filter="url(#filter2_f_2028_4732)">
<path d="M667.666 842.325C944.542 900.834 618.791 1306.03 -31.9355 1099.13C-118.491 1080.84 -191.033 954.588 -136.888 821.037C-83.3956 689.095 40.3557 624.637 142.387 635.767C402.438 664.134 390.79 783.816 667.666 842.325Z" fill="#A285FF" fill-opacity="0.3"/>
</g>
<g filter="url(#filter3_f_2028_4732)">
<path d="M1569.25 497.318C1828.24 346.088 1831.24 844.997 1177.5 1153.44C1096.54 1200.72 956.674 1165.23 913.203 1037.48C870.256 911.262 927.198 782.314 1015.87 719.521C1241.86 559.478 1310.26 648.548 1569.25 497.318Z" fill="#86A6FF" fill-opacity="0.4"/>
</g>
<g filter="url(#filter4_f_2028_4732)">
<circle cx="922.861" cy="117.777" r="238.5" fill="#F175B9" fill-opacity="0.3"/>
</g>
</g>
<defs>
<filter id="filter0_f_2028_4732" x="-727.639" y="-953.723" width="1768" height="1768" filterUnits="userSpaceOnUse" color-interpolation-filters="sRGB">
<feFlood flood-opacity="0" result="BackgroundImageFix"/>
<feBlend mode="normal" in="SourceGraphic" in2="BackgroundImageFix" result="shape"/>
<feGaussianBlur stdDeviation="250" result="effect1_foregroundBlur_2028_4732"/>
</filter>
<filter id="filter1_f_2028_4732" x="300.318" y="-690.432" width="1978.77" height="1818.3" filterUnits="userSpaceOnUse" color-interpolation-filters="sRGB">
<feFlood flood-opacity="0" result="BackgroundImageFix"/>
<feBlend mode="normal" in="SourceGraphic" in2="BackgroundImageFix" result="shape"/>
<feGaussianBlur stdDeviation="250" result="effect1_foregroundBlur_2028_4732"/>
</filter>
<filter id="filter2_f_2028_4732" x="-655.539" y="134.535" width="1922.28" height="1522.96" filterUnits="userSpaceOnUse" color-interpolation-filters="sRGB">
<feFlood flood-opacity="0" result="BackgroundImageFix"/>
<feBlend mode="normal" in="SourceGraphic" in2="BackgroundImageFix" result="shape"/>
<feGaussianBlur stdDeviation="250" result="effect1_foregroundBlur_2028_4732"/>
</filter>
<filter id="filter3_f_2028_4732" x="498.589" y="69.4353" width="1633.1" height="1504.05" filterUnits="userSpaceOnUse" color-interpolation-filters="sRGB">
<feFlood flood-opacity="0" result="BackgroundImageFix"/>
<feBlend mode="normal" in="SourceGraphic" in2="BackgroundImageFix" result="shape"/>
<feGaussianBlur stdDeviation="200" result="effect1_foregroundBlur_2028_4732"/>
</filter>
<filter id="filter4_f_2028_4732" x="184.361" y="-620.723" width="1477" height="1477" filterUnits="userSpaceOnUse" color-interpolation-filters="sRGB">
<feFlood flood-opacity="0" result="BackgroundImageFix"/>
<feBlend mode="normal" in="SourceGraphic" in2="BackgroundImageFix" result="shape"/>
<feGaussianBlur stdDeviation="250" result="effect1_foregroundBlur_2028_4732"/>
</filter>
<clipPath id="clip0_2028_4732">
<rect width="1512" height="928" fill="white" transform="translate(0.361328 0.276611)"/>
</clipPath>
</defs>
</svg>
