<svg width="2231" height="637" viewBox="0 0 2231 637" fill="none" xmlns="http://www.w3.org/2000/svg">
<g clip-path="url(#clip0_2028_4704)">
<g opacity="0.5">
<g filter="url(#filter0_f_2028_4704)">
<path d="M-20.6644 202.649C314.212 190.412 318.109 263.544 385.884 247.114C453.659 230.685 515.435 107.931 583.21 97.1077C650.985 86.2846 784.434 351.029 852.209 349.997C919.984 348.965 928.083 179.05 995.858 163.336C1063.63 147.622 1131.41 157.343 1199.18 192.498C1266.96 227.653 1334.73 200.919 1402.51 112.296C1470.28 23.6735 1538.06 8.41024 1605.83 66.5065C1673.61 124.603 1741.38 134.803 1809.16 97.1077C1936.44 41.2675 1807.12 263 2229.84 263" stroke="#1E0849"/>
</g>
<path d="M-50.6644 192.941C237.336 244.941 310.78 580.856 397.336 556.941C483.891 533.025 530.78 300.696 617.336 284.941C703.891 269.186 718.78 638.442 805.336 636.941C891.891 635.439 1066.78 23.8148 1153.34 0.940697C1239.89 -21.9334 1265.95 379.459 1352.5 430.633C1439.06 481.807 1518.78 325.947 1605.34 196.941C1691.89 67.9349 1633.28 293.036 1719.84 377.605C1841.34 327.315 1842.78 195.813 1929.34 140.941C1977.34 110.511 2057.84 267.5 2230.34 263" stroke="#631F89"/>
<g filter="url(#filter1_f_2028_4704)">
<path d="M-48.2416 183.221C243.544 230.033 311.372 544.726 396.411 521.415C481.45 498.104 529.541 274.624 614.58 259.268C699.618 243.911 724.082 604.727 809.121 603.263C894.16 601.8 1055.58 25.8481 1140.62 3.55222C1225.66 -18.7436 1255.08 351.017 1340.12 400.898C1425.16 450.778 1503.92 305.346 1588.96 179.601C1673.99 53.8567 1625.59 259.546 1710.63 341.977C1827.79 300.44 1834.59 180.382 1919.63 126.897C1961.21 102.068 2007 196.552 2112.34 240.607" stroke="#5D1D84"/>
</g>
<g filter="url(#filter2_f_2028_4704)">
<path d="M-41.7031 157.029C260.299 189.84 312.969 447.26 393.915 425.581C474.86 403.901 526.196 204.303 607.142 190.021C688.088 175.74 738.392 513.777 819.337 512.416C900.283 511.055 1025.35 31.373 1106.3 10.6377C1187.24 -10.0975 1225.76 274.299 1306.7 320.688C1387.65 367.077 1463.8 249.788 1544.75 132.845C1625.69 15.9017 1604.84 169.203 1685.78 245.865C1791.23 227.951 1812.49 138.777 1893.44 89.0354C1965.12 51.0153 1981.09 266.156 2228.34 263" stroke="#4E1876"/>
</g>
<g filter="url(#filter3_f_2028_4704)">
<path d="M-48.2416 183.221C243.544 230.033 311.372 544.726 396.411 521.415C481.45 498.104 529.541 274.624 614.58 259.268C699.618 243.911 724.082 604.727 809.121 603.263C894.16 601.8 1055.58 25.8481 1140.62 3.55222C1225.66 -18.7436 1255.08 351.017 1340.12 400.898C1425.16 450.778 1503.92 305.346 1588.96 179.601C1673.99 53.8567 1625.59 259.546 1710.63 341.977C1827.79 300.44 1834.59 180.382 1919.63 126.897C1974.03 94.4151 2036.13 267.137 2228.84 263" stroke="#5D1D84"/>
</g>
<g filter="url(#filter4_f_2028_4704)">
<path d="M-23.061 183.481C308.07 176.376 317.523 270.501 386.799 253.473C456.074 236.446 516.661 104.938 585.937 93.7209C655.212 82.5038 779.189 355.597 848.465 354.528C917.74 353.459 939.164 148.256 1008.44 131.97C1077.71 115.684 1142.16 156.695 1211.43 193.13C1280.71 229.565 1349.44 192.515 1418.71 100.666C1487.99 8.81702 1545.67 12.756 1614.94 72.9672C1687.01 122.405 1749.48 121.285 1818.76 82.2169C1932.22 31.7364 1883.58 240.455 2204.09 265.5" stroke="#240A4E"/>
</g>
<g filter="url(#filter5_f_2028_4704)">
<path d="M-25.3607 166.772C302.177 164.591 316.962 278.861 387.677 261.26C458.392 243.659 517.838 103.751 588.553 92.1555C659.268 80.5603 774.156 361.666 844.871 360.561C915.586 359.455 949.796 120.39 1020.51 103.556C1091.23 86.7209 1152.47 157.758 1223.19 195.421C1293.9 233.083 1363.55 186.135 1434.26 91.19C1504.98 -3.75479 1552.97 18.6109 1623.68 80.8515C1699.87 121.98 1757.26 109.997 1827.97 69.6123C1933.05 22.1714 1870.63 221.866 2150.84 256" stroke="#290C53"/>
</g>
<g filter="url(#filter6_f_2028_4704)">
<path d="M-27.564 152.135C296.531 154.671 316.423 288.239 388.517 270.088C460.612 251.937 518.964 103.982 591.059 92.0252C663.153 80.0679 769.335 368.848 841.429 367.708C913.523 366.569 959.981 95.0671 1032.08 77.7065C1104.17 60.346 1162.35 160.145 1234.44 198.984C1306.54 237.823 1377.06 181.392 1449.16 83.4821C1521.25 -14.4282 1559.96 25.5885 1632.05 89.7731C1712.18 122.942 1764.7 100.553 1836.8 58.9074C1931.89 15.3103 1884.43 201.339 2111.84 249.5" stroke="#2E0D58"/>
</g>
<g filter="url(#filter7_f_2028_4704)">
<path d="M-29.6702 139.174C291.134 146.22 315.909 298.238 389.321 279.561C462.734 260.884 520.042 105.236 593.455 92.9328C666.867 80.6293 764.725 376.747 838.138 375.574C911.551 374.402 969.719 71.8887 1043.13 54.0255C1116.54 36.1622 1171.8 163.459 1245.21 203.423C1318.62 243.387 1389.98 177.891 1463.4 77.1451C1536.81 -23.6004 1566.64 33.2917 1640.06 99.3349C1723.96 124.895 1771.82 92.5571 1845.23 49.7052C1948.72 1.49303 1878.24 263.851 2225.84 262.5" stroke="#330F5C"/>
</g>
<g filter="url(#filter8_f_2028_4704)">
<path d="M-31.6796 127.559C285.985 138.908 315.418 308.526 390.089 289.348C464.759 270.17 521.07 107.183 595.74 94.5491C670.411 81.9152 760.328 385.033 834.999 383.829C909.669 382.625 979.009 50.5261 1053.68 32.1832C1128.35 13.8403 1180.81 167.372 1255.48 208.409C1330.15 249.446 1402.31 175.3 1476.98 71.8497C1551.65 -31.6006 1573.02 41.3912 1647.69 109.208C1735.19 127.507 1778.61 85.6786 1853.28 41.6762C1941.98 -0.346373 1908.49 213.236 2144.84 254" stroke="#371060"/>
</g>
<g filter="url(#filter9_f_2028_4704)">
<path d="M-33.5922 124.702C281.084 140.146 314.951 326.519 390.819 306.863C466.687 287.208 522.048 117.235 597.916 104.287C673.784 91.3383 756.142 401.119 832.01 399.885C907.878 398.651 987.851 38.3917 1063.72 19.5923C1139.59 0.792985 1189.38 179.295 1265.25 221.353C1341.12 263.412 1414.04 181.033 1489.91 75.0086C1565.78 -31.0164 1579.09 57.2995 1654.96 126.804C1745.89 138.193 1785.08 87.3307 1860.95 42.2332C1947.2 0.650026 1918.7 227.208 2164.34 259.273" stroke="#3C1265"/>
</g>
<g filter="url(#filter10_f_2028_4704)">
<path d="M-35.408 131.911C276.431 151.243 314.507 353.521 391.512 333.412C468.517 313.304 522.977 136.699 599.981 123.452C676.986 110.205 752.168 426.312 829.173 425.049C906.178 423.787 996.246 36.7921 1073.25 17.5593C1150.26 -1.67345 1197.53 200.535 1274.53 243.563C1351.54 286.591 1425.18 196.397 1502.19 87.928C1579.19 -20.5411 1584.86 82.3232 1661.86 153.43C1756.04 158.259 1791.21 98.8196 1868.22 52.6825C1946.77 14.1232 1933.35 211.895 2140.34 254.54" stroke="#401368"/>
</g>
<g filter="url(#filter11_f_2028_4704)">
<path d="M-37.127 138.754C272.026 161.767 314.087 379.102 392.168 358.565C470.249 338.028 523.856 155.144 601.937 141.614C680.018 128.085 748.406 450.18 826.487 448.891C904.568 447.601 1004.19 35.2967 1082.27 15.6537C1160.36 -3.98934 1205.24 220.662 1283.32 264.608C1361.4 308.554 1435.73 210.961 1513.81 100.178C1591.89 -10.6054 1590.31 106.032 1668.39 178.655C1765.65 177.274 1797.02 109.715 1875.11 62.5937C1958.88 20.6976 1939.93 264.469 2225.34 262" stroke="#44156C"/>
</g>
<g filter="url(#filter12_f_2028_4704)">
<path d="M-38.7494 145.224C267.869 171.711 313.691 403.255 392.787 382.313C471.883 361.371 524.685 172.562 603.782 158.766C682.878 144.97 744.856 472.717 823.952 471.402C903.049 470.087 1011.69 33.8978 1090.79 13.8676C1169.89 -6.16264 1212.51 239.668 1291.61 284.48C1370.7 329.291 1445.68 224.717 1524.78 111.75C1603.87 -1.21694 1595.46 128.417 1674.56 202.472C1774.72 195.23 1802.51 120.009 1881.6 71.959C1953.69 35.2125 1956.18 224.441 2158.76 258" stroke="#481670"/>
</g>
<g filter="url(#filter13_f_2028_4704)">
<path d="M-40.2748 151.317C263.96 181.07 313.318 425.976 393.369 404.653C473.421 383.33 525.466 188.95 605.517 174.903C685.568 160.856 741.518 493.917 821.569 492.578C901.62 491.239 1018.75 32.5911 1098.8 12.1968C1178.85 -8.19752 1219.35 257.548 1299.4 303.174C1379.45 348.801 1455.04 237.66 1535.09 122.64C1615.14 7.61992 1600.3 149.476 1680.35 224.877C1783.25 212.124 1807.66 129.698 1887.71 80.7741C1951.93 47.3879 1965.49 204.936 2127.84 250.803" stroke="#4B1773"/>
</g>
<g filter="url(#filter14_f_2028_4704)">
<path d="M-41.7031 157.029C260.299 189.84 312.969 447.26 393.915 425.581C474.86 403.901 526.196 204.303 607.142 190.021C688.088 175.74 738.392 513.777 819.337 512.416C900.283 511.055 1025.35 31.373 1106.3 10.6377C1187.24 -10.0975 1225.76 274.299 1306.7 320.688C1387.65 367.077 1463.8 249.788 1544.75 132.845C1625.69 15.9017 1604.84 169.203 1685.78 245.865C1791.23 227.951 1812.49 138.777 1893.44 89.0354C1958.01 54.7875 1976.16 225.551 2159.84 257.467" stroke="#4E1876"/>
</g>
<g filter="url(#filter15_f_2028_4704)">
<path d="M-43.0349 162.358C256.886 198.021 312.644 467.106 394.423 445.095C476.202 423.083 526.878 218.62 608.657 204.12C690.436 189.619 735.477 532.296 817.256 530.914C899.036 529.532 1031.51 30.242 1113.29 9.18884C1195.07 -11.8643 1231.73 289.919 1313.51 337.019C1395.29 384.12 1471.97 261.098 1553.75 142.362C1635.53 23.6267 1609.06 187.599 1690.84 265.435C1798.68 242.71 1816.99 147.245 1898.77 96.7414C1966.93 59.8493 1988.7 266.356 2224.84 263" stroke="#511979"/>
</g>
<g filter="url(#filter16_f_2028_4704)">
<path d="M-44.2699 167.303C253.722 205.61 312.342 485.513 394.895 463.193C477.447 440.873 527.509 231.9 610.062 217.196C692.614 202.493 732.774 549.472 815.327 548.071C897.879 546.669 1037.22 29.196 1119.77 7.84813C1202.32 -13.4997 1237.27 304.407 1319.82 352.167C1402.37 399.926 1479.55 271.589 1562.1 151.191C1644.65 30.7931 1612.98 204.66 1695.54 283.586C1805.58 256.399 1821.17 155.101 1903.72 103.89C1968.62 68.0441 2000 266.041 2225.84 262.5" stroke="#541A7B"/>
</g>
<g filter="url(#filter17_f_2028_4704)">
<path d="M-45.408 171.862C250.805 212.607 312.064 502.479 395.329 479.875C478.594 457.271 528.092 244.141 611.356 229.25C694.621 214.36 730.284 565.304 813.549 563.885C896.813 562.465 1042.48 28.2346 1125.74 6.61504C1209.01 -15.0045 1242.37 317.761 1325.64 366.129C1408.9 414.496 1486.53 281.26 1569.8 159.33C1653.06 37.4002 1616.6 220.386 1699.86 300.317C1811.95 269.017 1825.01 162.344 1908.28 110.481C1957.93 82.4954 1992.42 199.654 2115.84 245.158" stroke="#571B7E"/>
</g>
<g filter="url(#filter18_f_2028_4704)">
<path d="M-46.4496 176.035C248.137 219.01 311.809 518.004 395.726 495.14C479.643 472.276 528.624 255.342 612.541 240.28C696.458 225.218 728.004 579.791 811.921 578.355C895.838 576.919 1047.29 27.3564 1131.21 5.48827C1215.13 -16.3798 1247.04 329.982 1330.96 378.905C1414.88 427.829 1492.92 290.111 1576.84 166.779C1660.75 43.4467 1619.9 234.776 1703.82 315.625C1817.77 280.564 1828.53 168.972 1912.45 116.513C1963.17 87.3526 2006.13 218.07 2148.34 253.437" stroke="#591C80"/>
</g>
<g filter="url(#filter19_f_2028_4704)">
<path d="M-47.3939 179.822C245.716 224.819 311.579 532.086 396.087 508.987C480.595 485.887 529.107 265.503 613.615 250.286C698.123 235.069 725.937 592.932 810.446 591.481C894.954 590.031 1051.66 26.561 1136.17 4.46749C1220.68 -17.626 1251.28 341.067 1335.79 390.495C1420.3 439.923 1498.72 298.139 1583.22 173.536C1667.73 48.9324 1622.9 247.829 1707.41 329.512C1823.05 291.038 1831.73 174.985 1916.23 121.985C1962.29 94.9903 2020.07 212.563 2141.84 254.5" stroke="#5B1C82"/>
</g>
<g filter="url(#filter20_f_2028_4704)">
<path d="M-48.2416 183.221C243.544 230.033 311.372 544.726 396.411 521.415C481.45 498.104 529.541 274.624 614.58 259.268C699.618 243.911 724.082 604.727 809.121 603.263C894.16 601.8 1055.58 25.8481 1140.62 3.55222C1225.66 -18.7436 1255.08 351.017 1340.12 400.898C1425.16 450.778 1503.92 305.346 1588.96 179.601C1673.99 53.8567 1625.59 259.546 1710.63 341.977C1827.79 300.44 1834.59 180.382 1919.63 126.897C1974.03 94.4151 2030.63 267.137 2223.34 263" stroke="#5D1D84"/>
</g>
<g filter="url(#filter21_f_2028_4704)">
<path d="M-48.9926 186.233C241.62 234.653 311.188 555.924 396.697 532.425C482.206 508.927 529.925 282.704 615.434 267.224C700.943 251.744 722.439 615.176 807.948 613.701C893.457 612.225 1059.05 25.2174 1144.56 2.74237C1230.07 -19.7327 1258.45 359.832 1343.96 410.113C1429.47 460.395 1508.52 311.73 1594.03 184.975C1679.54 58.2196 1627.97 269.925 1713.48 353.019C1831.99 308.769 1837.13 185.164 1922.64 131.249C1975.06 99.4033 2033.89 266.249 2220.34 262" stroke="#5F1E85"/>
</g>
<g filter="url(#filter22_f_2028_4704)">
<path d="M-49.6469 188.857C239.943 238.678 311.028 565.678 396.947 542.016C482.865 518.355 530.259 289.743 616.178 274.155C702.096 258.568 721.007 624.278 806.926 622.793C892.844 621.307 1062.07 24.6684 1147.99 2.03718C1233.91 -20.594 1261.38 367.51 1347.3 418.141C1433.22 468.772 1512.54 317.292 1598.45 189.656C1684.37 62.0203 1630.05 278.966 1715.97 362.637C1835.65 316.024 1839.34 189.33 1925.26 135.041C1975.95 103.749 2038.35 267.347 2219.34 263" stroke="#611E87"/>
</g>
<g filter="url(#filter23_f_2028_4704)">
<path d="M-50.204 191.093C238.516 242.107 310.892 573.989 397.16 550.188C483.427 526.388 530.544 295.74 616.812 280.061C703.079 264.382 719.788 632.034 806.055 630.539C892.322 629.045 1064.65 24.2009 1150.92 1.43668C1237.19 -21.3275 1263.88 374.053 1350.15 424.981C1436.42 475.909 1515.95 322.031 1602.22 193.645C1688.49 65.2588 1631.82 286.67 1718.09 370.833C1838.76 322.206 1841.22 192.88 1927.49 138.271C1976.71 107.451 2045.99 270.431 2222.34 266" stroke="#621F88"/>
</g>
<path d="M2139.34 249.5C2167.34 258.3 2194.34 259 2218.34 260.5C2219.34 262.667 2220.84 267.5 2216.84 267.5C2211.84 267.5 2174.34 267 2144.34 256C2132.57 251.687 2097.34 239 2097.34 234.5C2087.84 227.5 2111.34 240.7 2139.34 249.5Z" fill="url(#paint0_linear_2028_4704)"/>
</g>
</g>
<defs>
<filter id="filter0_f_2028_4704" x="-30.6827" y="21.4997" width="2270.52" height="339" filterUnits="userSpaceOnUse" color-interpolation-filters="sRGB">
<feFlood flood-opacity="0" result="BackgroundImageFix"/>
<feBlend mode="normal" in="SourceGraphic" in2="BackgroundImageFix" result="shape"/>
<feGaussianBlur stdDeviation="5" result="effect1_foregroundBlur_2028_4704"/>
</filter>
<filter id="filter1_f_2028_4704" x="-49.1284" y="1.27629" width="2162.46" height="603.299" filterUnits="userSpaceOnUse" color-interpolation-filters="sRGB">
<feFlood flood-opacity="0" result="BackgroundImageFix"/>
<feBlend mode="normal" in="SourceGraphic" in2="BackgroundImageFix" result="shape"/>
<feGaussianBlur stdDeviation="0.403803" result="effect1_foregroundBlur_2028_4704"/>
</filter>
<filter id="filter2_f_2028_4704" x="-44.7442" y="6.07138" width="2276.07" height="509.836" filterUnits="userSpaceOnUse" color-interpolation-filters="sRGB">
<feFlood flood-opacity="0" result="BackgroundImageFix"/>
<feBlend mode="normal" in="SourceGraphic" in2="BackgroundImageFix" result="shape"/>
<feGaussianBlur stdDeviation="1.49355" result="effect1_foregroundBlur_2028_4704"/>
</filter>
<filter id="filter3_f_2028_4704" x="-49.1284" y="1.27629" width="2278.78" height="603.299" filterUnits="userSpaceOnUse" color-interpolation-filters="sRGB">
<feFlood flood-opacity="0" result="BackgroundImageFix"/>
<feBlend mode="normal" in="SourceGraphic" in2="BackgroundImageFix" result="shape"/>
<feGaussianBlur stdDeviation="0.403803" result="effect1_foregroundBlur_2028_4704"/>
</filter>
<filter id="filter4_f_2028_4704" x="-27.0718" y="24.9435" width="2235.2" height="334.088" filterUnits="userSpaceOnUse" color-interpolation-filters="sRGB">
<feFlood flood-opacity="0" result="BackgroundImageFix"/>
<feBlend mode="normal" in="SourceGraphic" in2="BackgroundImageFix" result="shape"/>
<feGaussianBlur stdDeviation="2" result="effect1_foregroundBlur_2028_4704"/>
</filter>
<filter id="filter5_f_2028_4704" x="-33.7985" y="18.0559" width="2193.13" height="351.442" filterUnits="userSpaceOnUse" color-interpolation-filters="sRGB">
<feFlood flood-opacity="0" result="BackgroundImageFix"/>
<feBlend mode="normal" in="SourceGraphic" in2="BackgroundImageFix" result="shape"/>
<feGaussianBlur stdDeviation="4.21725" result="effect1_foregroundBlur_2028_4704"/>
</filter>
<filter id="filter6_f_2028_4704" x="-35.268" y="16.4394" width="2154.91" height="359.473" filterUnits="userSpaceOnUse" color-interpolation-filters="sRGB">
<feFlood flood-opacity="0" result="BackgroundImageFix"/>
<feBlend mode="normal" in="SourceGraphic" in2="BackgroundImageFix" result="shape"/>
<feGaussianBlur stdDeviation="3.85008" result="effect1_foregroundBlur_2028_4704"/>
</filter>
<filter id="filter7_f_2028_4704" x="-33.6812" y="17.8938" width="2263.52" height="362.184" filterUnits="userSpaceOnUse" color-interpolation-filters="sRGB">
<feFlood flood-opacity="0" result="BackgroundImageFix"/>
<feBlend mode="normal" in="SourceGraphic" in2="BackgroundImageFix" result="shape"/>
<feGaussianBlur stdDeviation="2" result="effect1_foregroundBlur_2028_4704"/>
</filter>
<filter id="filter8_f_2028_4704" x="-38.0257" y="13.4222" width="2189.27" height="377.239" filterUnits="userSpaceOnUse" color-interpolation-filters="sRGB">
<feFlood flood-opacity="0" result="BackgroundImageFix"/>
<feBlend mode="normal" in="SourceGraphic" in2="BackgroundImageFix" result="shape"/>
<feGaussianBlur stdDeviation="3.16414" result="effect1_foregroundBlur_2028_4704"/>
</filter>
<filter id="filter9_f_2028_4704" x="-39.3074" y="12.0192" width="2209.4" height="394.06" filterUnits="userSpaceOnUse" color-interpolation-filters="sRGB">
<feFlood flood-opacity="0" result="BackgroundImageFix"/>
<feBlend mode="normal" in="SourceGraphic" in2="BackgroundImageFix" result="shape"/>
<feGaussianBlur stdDeviation="2.84537" result="effect1_foregroundBlur_2028_4704"/>
</filter>
<filter id="filter10_f_2028_4704" x="-40.5243" y="10.6873" width="2186.05" height="419.951" filterUnits="userSpaceOnUse" color-interpolation-filters="sRGB">
<feFlood flood-opacity="0" result="BackgroundImageFix"/>
<feBlend mode="normal" in="SourceGraphic" in2="BackgroundImageFix" result="shape"/>
<feGaussianBlur stdDeviation="2.54274" result="effect1_foregroundBlur_2028_4704"/>
</filter>
<filter id="filter11_f_2028_4704" x="-41.6765" y="9.42655" width="2271.53" height="444.481" filterUnits="userSpaceOnUse" color-interpolation-filters="sRGB">
<feFlood flood-opacity="0" result="BackgroundImageFix"/>
<feBlend mode="normal" in="SourceGraphic" in2="BackgroundImageFix" result="shape"/>
<feGaussianBlur stdDeviation="2.25624" result="effect1_foregroundBlur_2028_4704"/>
</filter>
<filter id="filter12_f_2028_4704" x="-42.7642" y="8.23657" width="2205.58" height="467.641" filterUnits="userSpaceOnUse" color-interpolation-filters="sRGB">
<feFlood flood-opacity="0" result="BackgroundImageFix"/>
<feBlend mode="normal" in="SourceGraphic" in2="BackgroundImageFix" result="shape"/>
<feGaussianBlur stdDeviation="1.98587" result="effect1_foregroundBlur_2028_4704"/>
</filter>
<filter id="filter13_f_2028_4704" x="-43.7868" y="7.11786" width="2175.22" height="489.427" filterUnits="userSpaceOnUse" color-interpolation-filters="sRGB">
<feFlood flood-opacity="0" result="BackgroundImageFix"/>
<feBlend mode="normal" in="SourceGraphic" in2="BackgroundImageFix" result="shape"/>
<feGaussianBlur stdDeviation="1.73164" result="effect1_foregroundBlur_2028_4704"/>
</filter>
<filter id="filter14_f_2028_4704" x="-44.7442" y="6.07138" width="2207.65" height="509.836" filterUnits="userSpaceOnUse" color-interpolation-filters="sRGB">
<feFlood flood-opacity="0" result="BackgroundImageFix"/>
<feBlend mode="normal" in="SourceGraphic" in2="BackgroundImageFix" result="shape"/>
<feGaussianBlur stdDeviation="1.49355" result="effect1_foregroundBlur_2028_4704"/>
</filter>
<filter id="filter15_f_2028_4704" x="-45.6372" y="5.09486" width="2273.02" height="528.867" filterUnits="userSpaceOnUse" color-interpolation-filters="sRGB">
<feFlood flood-opacity="0" result="BackgroundImageFix"/>
<feBlend mode="normal" in="SourceGraphic" in2="BackgroundImageFix" result="shape"/>
<feGaussianBlur stdDeviation="1.27159" result="effect1_foregroundBlur_2028_4704"/>
</filter>
<filter id="filter16_f_2028_4704" x="-46.4651" y="4.1891" width="2274.44" height="546.517" filterUnits="userSpaceOnUse" color-interpolation-filters="sRGB">
<feFlood flood-opacity="0" result="BackgroundImageFix"/>
<feBlend mode="normal" in="SourceGraphic" in2="BackgroundImageFix" result="shape"/>
<feGaussianBlur stdDeviation="1.06576" result="effect1_foregroundBlur_2028_4704"/>
</filter>
<filter id="filter17_f_2028_4704" x="-47.2282" y="3.35458" width="2164.99" height="562.787" filterUnits="userSpaceOnUse" color-interpolation-filters="sRGB">
<feFlood flood-opacity="0" result="BackgroundImageFix"/>
<feBlend mode="normal" in="SourceGraphic" in2="BackgroundImageFix" result="shape"/>
<feGaussianBlur stdDeviation="0.876068" result="effect1_foregroundBlur_2028_4704"/>
</filter>
<filter id="filter18_f_2028_4704" x="-47.9268" y="2.59083" width="2197.79" height="577.674" filterUnits="userSpaceOnUse" color-interpolation-filters="sRGB">
<feFlood flood-opacity="0" result="BackgroundImageFix"/>
<feBlend mode="normal" in="SourceGraphic" in2="BackgroundImageFix" result="shape"/>
<feGaussianBlur stdDeviation="0.702512" result="effect1_foregroundBlur_2028_4704"/>
</filter>
<filter id="filter19_f_2028_4704" x="-48.56" y="1.89804" width="2191.65" height="591.178" filterUnits="userSpaceOnUse" color-interpolation-filters="sRGB">
<feFlood flood-opacity="0" result="BackgroundImageFix"/>
<feBlend mode="normal" in="SourceGraphic" in2="BackgroundImageFix" result="shape"/>
<feGaussianBlur stdDeviation="0.54509" result="effect1_foregroundBlur_2028_4704"/>
</filter>
<filter id="filter20_f_2028_4704" x="-49.1284" y="1.27629" width="2273.28" height="603.299" filterUnits="userSpaceOnUse" color-interpolation-filters="sRGB">
<feFlood flood-opacity="0" result="BackgroundImageFix"/>
<feBlend mode="normal" in="SourceGraphic" in2="BackgroundImageFix" result="shape"/>
<feGaussianBlur stdDeviation="0.403803" result="effect1_foregroundBlur_2028_4704"/>
</filter>
<filter id="filter21_f_2028_4704" x="-49.632" y="0.725781" width="2270.54" height="614.037" filterUnits="userSpaceOnUse" color-interpolation-filters="sRGB">
<feFlood flood-opacity="0" result="BackgroundImageFix"/>
<feBlend mode="normal" in="SourceGraphic" in2="BackgroundImageFix" result="shape"/>
<feGaussianBlur stdDeviation="0.27865" result="effect1_foregroundBlur_2028_4704"/>
</filter>
<filter id="filter22_f_2028_4704" x="-50.0708" y="0.246033" width="2269.76" height="623.39" filterUnits="userSpaceOnUse" color-interpolation-filters="sRGB">
<feFlood flood-opacity="0" result="BackgroundImageFix"/>
<feBlend mode="normal" in="SourceGraphic" in2="BackgroundImageFix" result="shape"/>
<feGaussianBlur stdDeviation="0.169632" result="effect1_foregroundBlur_2028_4704"/>
</filter>
<filter id="filter23_f_2028_4704" x="-50.4445" y="-0.162714" width="2272.95" height="631.36" filterUnits="userSpaceOnUse" color-interpolation-filters="sRGB">
<feFlood flood-opacity="0" result="BackgroundImageFix"/>
<feBlend mode="normal" in="SourceGraphic" in2="BackgroundImageFix" result="shape"/>
<feGaussianBlur stdDeviation="0.0767486" result="effect1_foregroundBlur_2028_4704"/>
</filter>
<linearGradient id="paint0_linear_2028_4704" x1="2095.19" y1="250.013" x2="2219.46" y2="250.013" gradientUnits="userSpaceOnUse">
<stop offset="0.162107" stop-color="#AD9CD2" stop-opacity="0.2"/>
<stop offset="0.757585" stop-color="#931B5B" stop-opacity="0.53"/>
</linearGradient>
<clipPath id="clip0_2028_4704">
<rect width="2230" height="637" fill="white" transform="translate(0.335571)"/>
</clipPath>
</defs>
</svg>
