<svg width="64" height="64" viewBox="0 0 64 64" fill="none" xmlns="http://www.w3.org/2000/svg">
<path d="M30.3335 26.1753C30.3335 22.2855 31.8787 18.555 34.6293 15.8044C37.3798 13.0539 41.1103 11.5087 45.0002 11.5087C48.89 11.5087 52.6205 13.0539 55.3711 15.8044C58.1216 18.555 59.6668 22.2855 59.6668 26.1753C59.6668 30.0652 58.1216 33.7957 55.3711 36.5462C52.6205 39.2968 48.89 40.842 45.0002 40.842C41.1103 40.842 37.3798 39.2968 34.6293 36.5462C31.8787 33.7957 30.3335 30.0652 30.3335 26.1753Z" stroke="white" stroke-width="3"/>
<path d="M45 51.5086V40.8419M45 51.5086H53M45 51.5086H37" stroke="white" stroke-width="3" stroke-linecap="round" stroke-linejoin="round"/>
<path d="M6.3335 27.5085V25.5085C5.80306 25.5085 5.29436 25.7193 4.91928 26.0943C4.54421 26.4694 4.3335 26.9781 4.3335 27.5085H6.3335ZM22.3335 27.5085H24.3335C24.3335 26.9781 24.1228 26.4694 23.7477 26.0943C23.3726 25.7193 22.8639 25.5085 22.3335 25.5085V27.5085ZM6.3335 29.5085H22.3335V25.5085H6.3335V29.5085ZM20.3335 27.5085V43.5085H24.3335V27.5085H20.3335ZM8.3335 43.5085V27.5085H4.3335V43.5085H8.3335ZM14.3335 49.5085C12.7422 49.5085 11.2161 48.8764 10.0909 47.7512C8.96564 46.626 8.3335 45.0998 8.3335 43.5085H4.3335C4.3335 46.1607 5.38706 48.7043 7.26243 50.5796C9.13779 52.455 11.6813 53.5085 14.3335 53.5085V49.5085ZM20.3335 43.5085C20.3335 45.0998 19.7014 46.626 18.5761 47.7512C17.4509 48.8764 15.9248 49.5085 14.3335 49.5085V53.5085C15.6467 53.5085 16.9471 53.2499 18.1603 52.7473C19.3736 52.2448 20.476 51.5082 21.4046 50.5796C22.3332 49.651 23.0697 48.5486 23.5723 47.3354C24.0748 46.1221 24.3335 44.8218 24.3335 43.5085H20.3335Z" fill="white"/>
<path d="M9 27.5086H19.6667V13.1566C19.6664 12.7022 19.5501 12.2554 19.3287 11.8586C19.1073 11.4618 18.7882 11.1282 18.4016 10.8894C18.0151 10.6506 17.5739 10.5145 17.12 10.494C16.6661 10.4736 16.2145 10.5695 15.808 10.7726L10.4747 13.4392C10.0318 13.6606 9.65926 14.0008 9.39881 14.4218C9.13836 14.8429 9.00026 15.3281 9 15.8232V27.5086Z" stroke="white" stroke-width="3"/>
</svg>
