<svg width="64" height="64" viewBox="0 0 64 64" fill="none" xmlns="http://www.w3.org/2000/svg">
<path d="M45.1172 31.5932C46.6616 31.5932 47.8622 30.4113 47.8622 28.8679C47.8622 27.3058 46.6616 26.1052 45.1172 26.1052C43.5934 26.1052 42.3732 27.3058 42.3732 28.8679C42.3732 30.4123 43.5934 31.5932 45.1172 31.5932ZM39.5152 37.2532C41.0577 37.2532 42.2396 36.0526 42.2396 34.5092C42.2396 32.947 41.0587 31.7455 39.5152 31.7455C37.9708 31.7455 36.7702 32.9461 36.7702 34.5092C36.7656 34.8709 36.8335 35.2298 36.9698 35.5649C37.1061 35.9 37.3082 36.2044 37.564 36.4601C37.8198 36.7158 38.1243 36.9178 38.4594 37.054C38.7945 37.1902 39.1535 37.2579 39.5152 37.2532Z" fill="white"/>
<path d="M14.2661 23.3647C14.2661 24.356 14.8379 24.9661 15.8479 24.9661H19.259V28.3005C19.259 29.2732 19.8307 29.8823 20.7837 29.8823C21.7171 29.8823 22.2702 29.2732 22.2702 28.3005V24.9661H25.5093C26.5763 24.9661 27.206 24.356 27.206 23.3647C27.206 22.4117 26.5773 21.8222 25.5093 21.8222H22.2702V18.4868C22.2702 17.5142 21.7171 16.9247 20.7837 16.9247C19.8307 16.9247 19.259 17.5142 19.259 18.4868V21.8212H15.8479C14.8379 21.8212 14.2661 22.4117 14.2661 23.3647Z" fill="white"/>
<path d="M5.5 10.8772C5.5 10.0778 6.14801 9.42981 6.94737 9.42981H57.0526C57.852 9.42981 58.5 10.0778 58.5 10.8772V43.2982C58.5 44.0976 57.852 44.7456 57.0526 44.7456H6.94737C6.14801 44.7456 5.5 44.0976 5.5 43.2982V10.8772Z" stroke="white" stroke-width="3"/>
<path d="M22.7326 54.5701L25.7393 44.7982H38.2605L41.2672 54.5701H22.7326Z" stroke="white" stroke-width="3"/>
<path d="M13.8247 54.5964H49.1931" stroke="white" stroke-width="3" stroke-linecap="round"/>
</svg>
