<svg width="64" height="64" viewBox="0 0 64 64" fill="none" xmlns="http://www.w3.org/2000/svg">
<path d="M18.875 32C18.6142 31.9996 18.3562 32.0536 18.1175 32.1586C17.8788 32.2636 17.6646 32.4172 17.4886 32.6097C17.3126 32.8022 17.1787 33.0292 17.0954 33.2764C17.0121 33.5235 16.9814 33.7853 17.005 34.045C17.705 41.73 23.38 48.25 32 48.25C40.62 48.25 46.2925 41.73 46.995 34.045C47.0186 33.7853 46.9879 33.5235 46.9046 33.2764C46.8213 33.0292 46.6874 32.8022 46.5114 32.6097C46.3354 32.4172 46.1212 32.2636 45.8825 32.1586C45.6438 32.0536 45.3858 31.9996 45.125 32H18.875ZM32 44.5C26.3575 44.5 22.3225 40.8 21.08 35.75H42.92C41.68 40.8 37.645 44.5 32 44.5ZM40.125 23.875C39.105 23.875 38.35 24.5925 38.23 25.4C38.1571 25.892 37.8917 26.3348 37.4922 26.6311C37.0928 26.9274 36.592 27.0529 36.1 26.98C35.608 26.9071 35.1652 26.6417 34.8689 26.2422C34.5726 25.8428 34.4471 25.342 34.52 24.85C34.925 22.125 37.3275 20.125 40.125 20.125C42.9225 20.125 45.325 22.125 45.73 24.85C45.8029 25.342 45.6774 25.8428 45.3811 26.2422C45.0848 26.6417 44.642 26.9071 44.15 26.98C43.658 27.0529 43.1572 26.9274 42.7578 26.6311C42.3583 26.3348 42.0929 25.892 42.02 25.4C41.9 24.5925 41.145 23.875 40.125 23.875ZM21.98 25.4C22.1 24.5925 22.855 23.875 23.875 23.875C24.8975 23.875 25.65 24.5925 25.77 25.4C25.8429 25.892 26.1083 26.3348 26.5078 26.6311C26.9072 26.9274 27.408 27.0529 27.9 26.98C28.392 26.9071 28.8348 26.6417 29.1311 26.2422C29.4274 25.8428 29.5529 25.342 29.48 24.85C29.0775 22.125 26.6725 20.125 23.875 20.125C21.0775 20.125 18.675 22.125 18.27 24.85C18.1971 25.342 18.3226 25.8428 18.6189 26.2422C18.9152 26.6417 19.358 26.9071 19.85 26.98C20.342 27.0529 20.8428 26.9274 21.2422 26.6311C21.6417 26.3348 21.9071 25.892 21.98 25.4ZM32 7C18.1925 7 7 18.1925 7 32C7 45.8075 18.1925 57 32 57C45.8075 57 57 45.8075 57 32C57 18.1925 45.8075 7 32 7ZM10.75 32C10.75 26.3641 12.9888 20.9591 16.974 16.974C20.9591 12.9888 26.3641 10.75 32 10.75C37.6359 10.75 43.0409 12.9888 47.026 16.974C51.0112 20.9591 53.25 26.3641 53.25 32C53.25 37.6359 51.0112 43.0409 47.026 47.026C43.0409 51.0112 37.6359 53.25 32 53.25C26.3641 53.25 20.9591 51.0112 16.974 47.026C12.9888 43.0409 10.75 37.6359 10.75 32Z" fill="white"/>
</svg>
