<svg width="64" height="64" viewBox="0 0 64 64" fill="none" xmlns="http://www.w3.org/2000/svg">
<path d="M4 30.9845C4 35.5235 6.948 38.4715 11.39 38.4715C13.64 38.4715 15.871 37.5015 17.5 35.4845L21.011 31.2365C21.516 30.6355 22.098 30.3445 22.68 30.3445H41.32C41.902 30.3445 42.484 30.6345 42.97 31.2365L46.48 35.4845C48.129 37.5015 50.34 38.4715 52.61 38.4715C57.032 38.4715 60 35.5235 60 30.9845C60 29.0445 59.534 26.8145 58.797 24.3115C57.614 20.3355 55.539 14.9235 53.541 10.7335C51.892 7.24149 51.038 5.65149 46.926 4.72049C43.26 3.88649 38.197 3.32349 31.99 3.32349C25.783 3.32349 20.72 3.88649 17.074 4.72049C12.961 5.65049 12.108 7.24149 10.44 10.7335C8.461 14.9235 6.386 20.3355 5.203 24.3115C4.446 26.8135 4 29.0445 4 30.9845ZM6.968 31.1015C6.968 29.8795 7.239 28.4055 7.86 26.2915C9.16 21.8295 11.41 16.0495 13.369 11.7625C14.319 9.68749 14.843 8.42649 17.365 7.84449C20.875 7.01049 25.861 6.44749 31.99 6.44749C38.12 6.44749 43.105 7.01049 46.635 7.84449C49.137 8.42649 49.661 9.68749 50.631 11.7625C52.629 16.0495 54.782 21.8495 56.121 26.2915C56.761 28.4055 57.032 29.8795 57.032 31.1015C57.032 33.7785 55.151 35.4665 52.648 35.4665C51.174 35.4665 49.738 34.6905 48.614 33.3135L44.967 28.9095C44.036 27.7845 43.241 27.2225 41.457 27.2225H22.543C20.739 27.2225 19.963 27.7845 19.032 28.9095L15.385 33.3135C14.26 34.6905 12.825 35.4665 11.351 35.4665C8.848 35.4665 6.968 33.7785 6.968 31.1015ZM16.297 16.9995C16.297 18.0085 16.879 18.6295 17.907 18.6295H21.379V22.0235C21.379 23.0135 21.961 23.6335 22.931 23.6335C23.881 23.6335 24.444 23.0135 24.444 22.0235V18.6295H27.741C28.827 18.6295 29.468 18.0085 29.468 16.9995C29.468 16.0295 28.828 15.4295 27.741 15.4295H24.444V12.0345C24.444 11.0445 23.881 10.4445 22.931 10.4445C21.961 10.4445 21.379 11.0445 21.379 12.0345V15.4285H17.907C16.879 15.4285 16.297 16.0295 16.297 16.9995ZM44.054 16.7475C45.626 16.7475 46.848 15.5445 46.848 13.9735C46.848 12.3835 45.626 11.1615 44.054 11.1615C42.503 11.1615 41.261 12.3835 41.261 13.9735C41.261 15.5455 42.503 16.7475 44.054 16.7475ZM38.352 22.5085C39.922 22.5085 41.125 21.2865 41.125 19.7155C41.125 18.1255 39.923 16.9025 38.352 16.9025C36.78 16.9025 35.558 18.1245 35.558 19.7155C35.5533 20.0837 35.6224 20.449 35.7611 20.7901C35.8999 21.1311 36.1055 21.441 36.3659 21.7013C36.6263 21.9616 36.9362 22.1671 37.2773 22.3058C37.6184 22.4444 37.9838 22.5133 38.352 22.5085Z" fill="white"/>
<path d="M36.7583 46.0755C37.5833 46.4158 37.5833 47.5842 36.7583 47.9245L29.8812 50.7605C29.223 51.032 28.5 50.5481 28.5 49.836L28.5 44.164C28.5 43.4519 29.223 42.968 29.8812 43.2395L36.7583 46.0755Z" fill="white"/>
<path d="M42.5 47C42.5 52.799 37.799 57.5 32 57.5C26.201 57.5 21.5 52.799 21.5 47C21.5 41.201 26.201 36.5 32 36.5C37.799 36.5 42.5 41.201 42.5 47Z" stroke="white" stroke-width="3"/>
</svg>
