<svg width="100" height="39" viewBox="0 0 100 39" fill="none" xmlns="http://www.w3.org/2000/svg">
<g filter="url(#filter0_d_4001_344)">
<mask id="path-1-outside-1_4001_344" maskUnits="userSpaceOnUse" x="3" y="-1" width="94" height="33" fill="black">
<rect fill="white" x="3" y="-1" width="94" height="33"/>
<path d="M12.064 24V2.24H15.744V24H12.064ZM4.768 4.96V1.6H23.04V4.96H4.768ZM28.9318 24.32C27.3958 24.32 26.0091 23.9787 24.7718 23.296C23.5558 22.592 22.5851 21.632 21.8598 20.416C21.1558 19.2 20.8038 17.8347 20.8038 16.32C20.8038 14.8053 21.1558 13.4507 21.8598 12.256C22.5638 11.04 23.5131 10.08 24.7078 9.376C25.9238 8.672 27.2678 8.32 28.7398 8.32C30.1691 8.32 31.4278 8.65067 32.5158 9.312C33.6251 9.97333 34.4891 10.88 35.1078 12.032C35.7478 13.184 36.0678 14.496 36.0678 15.968C36.0678 16.224 36.0464 16.4907 36.0037 16.768C35.9824 17.024 35.9398 17.312 35.8758 17.632H23.2678V14.752H34.0518L32.7398 15.904C32.6971 14.9653 32.5158 14.176 32.1958 13.536C31.8758 12.896 31.4171 12.4053 30.8198 12.064C30.2438 11.7227 29.5291 11.552 28.6758 11.552C27.7798 11.552 27.0011 11.744 26.3398 12.128C25.6784 12.512 25.1664 13.056 24.8038 13.76C24.4411 14.4427 24.2598 15.264 24.2598 16.224C24.2598 17.184 24.4518 18.0267 24.8358 18.752C25.2198 19.4773 25.7638 20.0427 26.4678 20.448C27.1718 20.832 27.9824 21.024 28.8998 21.024C29.6891 21.024 30.4144 20.8853 31.0758 20.608C31.7584 20.3307 32.3344 19.9253 32.8038 19.392L35.0438 21.664C34.2971 22.5387 33.3904 23.2 32.3238 23.648C31.2571 24.096 30.1264 24.32 28.9318 24.32ZM46.0255 24.32C44.4895 24.32 43.1028 23.9787 41.8655 23.296C40.6495 22.592 39.6788 21.632 38.9535 20.416C38.2495 19.2 37.8975 17.8347 37.8975 16.32C37.8975 14.8053 38.2495 13.4507 38.9535 12.256C39.6575 11.04 40.6068 10.08 41.8015 9.376C43.0175 8.672 44.3615 8.32 45.8335 8.32C47.2628 8.32 48.5215 8.65067 49.6095 9.312C50.7188 9.97333 51.5828 10.88 52.2015 12.032C52.8415 13.184 53.1615 14.496 53.1615 15.968C53.1615 16.224 53.1402 16.4907 53.0975 16.768C53.0762 17.024 53.0335 17.312 52.9695 17.632H40.3615V14.752H51.1455L49.8335 15.904C49.7908 14.9653 49.6095 14.176 49.2895 13.536C48.9695 12.896 48.5108 12.4053 47.9135 12.064C47.3375 11.7227 46.6228 11.552 45.7695 11.552C44.8735 11.552 44.0948 11.744 43.4335 12.128C42.7722 12.512 42.2602 13.056 41.8975 13.76C41.5348 14.4427 41.3535 15.264 41.3535 16.224C41.3535 17.184 41.5455 18.0267 41.9295 18.752C42.3135 19.4773 42.8575 20.0427 43.5615 20.448C44.2655 20.832 45.0762 21.024 45.9935 21.024C46.7828 21.024 47.5082 20.8853 48.1695 20.608C48.8522 20.3307 49.4282 19.9253 49.8975 19.392L52.1375 21.664C51.3908 22.5387 50.4842 23.2 49.4175 23.648C48.3508 24.096 47.2202 24.32 46.0255 24.32ZM66.5113 24V15.136C66.5113 14.112 66.1806 13.2693 65.5193 12.608C64.8793 11.9467 64.0473 11.616 63.0233 11.616C62.3406 11.616 61.7326 11.7653 61.1993 12.064C60.6659 12.3627 60.2499 12.7787 59.9513 13.312C59.6526 13.8453 59.5033 14.4533 59.5033 15.136L58.1273 14.368C58.1273 13.1947 58.3833 12.16 58.8953 11.264C59.4073 10.3467 60.1113 9.632 61.0073 9.12C61.9246 8.58667 62.9486 8.32 64.0793 8.32C65.2313 8.32 66.2553 8.61867 67.1513 9.216C68.0473 9.792 68.7513 10.5493 69.2633 11.488C69.7753 12.4053 70.0312 13.3653 70.0312 14.368V24H66.5113ZM55.9833 24V8.64H59.5033V24H55.9833ZM73.6083 24V0.959999H77.1283V24H73.6083ZM86.0058 24.16L79.4458 8.64H83.3177L87.7978 20.032H86.6778L91.4138 8.64H95.3178L88.1818 24.16H86.0058ZM81.4298 30.4L86.1978 20.576L88.1818 24.16L85.3338 30.4H81.4298Z"/>
</mask>
<path d="M12.064 24V2.24H15.744V24H12.064ZM4.768 4.96V1.6H23.04V4.96H4.768ZM28.9318 24.32C27.3958 24.32 26.0091 23.9787 24.7718 23.296C23.5558 22.592 22.5851 21.632 21.8598 20.416C21.1558 19.2 20.8038 17.8347 20.8038 16.32C20.8038 14.8053 21.1558 13.4507 21.8598 12.256C22.5638 11.04 23.5131 10.08 24.7078 9.376C25.9238 8.672 27.2678 8.32 28.7398 8.32C30.1691 8.32 31.4278 8.65067 32.5158 9.312C33.6251 9.97333 34.4891 10.88 35.1078 12.032C35.7478 13.184 36.0678 14.496 36.0678 15.968C36.0678 16.224 36.0464 16.4907 36.0037 16.768C35.9824 17.024 35.9398 17.312 35.8758 17.632H23.2678V14.752H34.0518L32.7398 15.904C32.6971 14.9653 32.5158 14.176 32.1958 13.536C31.8758 12.896 31.4171 12.4053 30.8198 12.064C30.2438 11.7227 29.5291 11.552 28.6758 11.552C27.7798 11.552 27.0011 11.744 26.3398 12.128C25.6784 12.512 25.1664 13.056 24.8038 13.76C24.4411 14.4427 24.2598 15.264 24.2598 16.224C24.2598 17.184 24.4518 18.0267 24.8358 18.752C25.2198 19.4773 25.7638 20.0427 26.4678 20.448C27.1718 20.832 27.9824 21.024 28.8998 21.024C29.6891 21.024 30.4144 20.8853 31.0758 20.608C31.7584 20.3307 32.3344 19.9253 32.8038 19.392L35.0438 21.664C34.2971 22.5387 33.3904 23.2 32.3238 23.648C31.2571 24.096 30.1264 24.32 28.9318 24.32ZM46.0255 24.32C44.4895 24.32 43.1028 23.9787 41.8655 23.296C40.6495 22.592 39.6788 21.632 38.9535 20.416C38.2495 19.2 37.8975 17.8347 37.8975 16.32C37.8975 14.8053 38.2495 13.4507 38.9535 12.256C39.6575 11.04 40.6068 10.08 41.8015 9.376C43.0175 8.672 44.3615 8.32 45.8335 8.32C47.2628 8.32 48.5215 8.65067 49.6095 9.312C50.7188 9.97333 51.5828 10.88 52.2015 12.032C52.8415 13.184 53.1615 14.496 53.1615 15.968C53.1615 16.224 53.1402 16.4907 53.0975 16.768C53.0762 17.024 53.0335 17.312 52.9695 17.632H40.3615V14.752H51.1455L49.8335 15.904C49.7908 14.9653 49.6095 14.176 49.2895 13.536C48.9695 12.896 48.5108 12.4053 47.9135 12.064C47.3375 11.7227 46.6228 11.552 45.7695 11.552C44.8735 11.552 44.0948 11.744 43.4335 12.128C42.7722 12.512 42.2602 13.056 41.8975 13.76C41.5348 14.4427 41.3535 15.264 41.3535 16.224C41.3535 17.184 41.5455 18.0267 41.9295 18.752C42.3135 19.4773 42.8575 20.0427 43.5615 20.448C44.2655 20.832 45.0762 21.024 45.9935 21.024C46.7828 21.024 47.5082 20.8853 48.1695 20.608C48.8522 20.3307 49.4282 19.9253 49.8975 19.392L52.1375 21.664C51.3908 22.5387 50.4842 23.2 49.4175 23.648C48.3508 24.096 47.2202 24.32 46.0255 24.32ZM66.5113 24V15.136C66.5113 14.112 66.1806 13.2693 65.5193 12.608C64.8793 11.9467 64.0473 11.616 63.0233 11.616C62.3406 11.616 61.7326 11.7653 61.1993 12.064C60.6659 12.3627 60.2499 12.7787 59.9513 13.312C59.6526 13.8453 59.5033 14.4533 59.5033 15.136L58.1273 14.368C58.1273 13.1947 58.3833 12.16 58.8953 11.264C59.4073 10.3467 60.1113 9.632 61.0073 9.12C61.9246 8.58667 62.9486 8.32 64.0793 8.32C65.2313 8.32 66.2553 8.61867 67.1513 9.216C68.0473 9.792 68.7513 10.5493 69.2633 11.488C69.7753 12.4053 70.0312 13.3653 70.0312 14.368V24H66.5113ZM55.9833 24V8.64H59.5033V24H55.9833ZM73.6083 24V0.959999H77.1283V24H73.6083ZM86.0058 24.16L79.4458 8.64H83.3177L87.7978 20.032H86.6778L91.4138 8.64H95.3178L88.1818 24.16H86.0058ZM81.4298 30.4L86.1978 20.576L88.1818 24.16L85.3338 30.4H81.4298Z" fill="url(#paint0_linear_4001_344)"/>
<path d="M12.064 24H11.064V25H12.064V24ZM12.064 2.24V1.24H11.064V2.24H12.064ZM15.744 2.24H16.744V1.24H15.744V2.24ZM15.744 24V25H16.744V24H15.744ZM4.768 4.96H3.768V5.96H4.768V4.96ZM4.768 1.6V0.599998H3.768V1.6H4.768ZM23.04 1.6H24.04V0.599998H23.04V1.6ZM23.04 4.96V5.96H24.04V4.96H23.04ZM13.064 24V2.24H11.064V24H13.064ZM12.064 3.24H15.744V1.24H12.064V3.24ZM14.744 2.24V24H16.744V2.24H14.744ZM15.744 23H12.064V25H15.744V23ZM5.768 4.96V1.6H3.768V4.96H5.768ZM4.768 2.6H23.04V0.599998H4.768V2.6ZM22.04 1.6V4.96H24.04V1.6H22.04ZM23.04 3.96H4.768V5.96H23.04V3.96ZM24.7718 23.296L24.2707 24.1614L24.2796 24.1666L24.2887 24.1716L24.7718 23.296ZM21.8598 20.416L20.9943 20.9171L21.0009 20.9283L21.8598 20.416ZM21.8598 12.256L22.7213 12.7637L22.7252 12.757L21.8598 12.256ZM24.7078 9.376L24.2067 8.51055L24.2001 8.51446L24.7078 9.376ZM32.5158 9.312L31.9963 10.1666L32.0037 10.1709L32.5158 9.312ZM35.1078 12.032L34.2268 12.5051L34.2301 12.5114L34.2336 12.5176L35.1078 12.032ZM36.0037 16.768L35.0154 16.6159L35.0101 16.6503L35.0072 16.685L36.0037 16.768ZM35.8758 17.632V18.632H36.6956L36.8563 17.8281L35.8758 17.632ZM23.2678 17.632H22.2678V18.632H23.2678V17.632ZM23.2678 14.752V13.752H22.2678V14.752H23.2678ZM34.0518 14.752L34.7116 15.5034L36.7062 13.752H34.0518V14.752ZM32.7398 15.904L31.7408 15.9494L31.8353 18.0289L33.3996 16.6554L32.7398 15.904ZM32.1958 13.536L31.3013 13.9832L31.3013 13.9832L32.1958 13.536ZM30.8198 12.064L30.3099 12.9243L30.3167 12.9283L30.3236 12.9322L30.8198 12.064ZM24.8038 13.76L25.6869 14.2292L25.6927 14.218L24.8038 13.76ZM24.8358 18.752L23.952 19.2199L23.952 19.2199L24.8358 18.752ZM26.4678 20.448L25.9688 21.3146L25.9788 21.3204L25.9889 21.3259L26.4678 20.448ZM31.0758 20.608L30.6993 19.6815L30.689 19.6858L31.0758 20.608ZM32.8038 19.392L33.5159 18.6899L32.7622 17.9255L32.053 18.7314L32.8038 19.392ZM35.0438 21.664L35.8043 22.3133L36.4001 21.6154L35.7559 20.9619L35.0438 21.664ZM32.3238 23.648L31.9365 22.726L32.3238 23.648ZM28.9318 23.32C27.5496 23.32 26.3316 23.0145 25.2548 22.4204L24.2887 24.1716C25.6866 24.9428 27.2419 25.32 28.9318 25.32V23.32ZM25.2728 22.4306C24.2054 21.8126 23.3574 20.9746 22.7186 19.9037L21.0009 20.9283C21.8128 22.2894 22.9061 23.3714 24.2707 24.1614L25.2728 22.4306ZM22.7252 19.915C22.1162 18.863 21.8038 17.6729 21.8038 16.32H19.8038C19.8038 17.9964 20.1953 19.537 20.9943 20.917L22.7252 19.915ZM21.8038 16.32C21.8038 14.9669 22.1162 13.7905 22.7213 12.7637L20.9982 11.7483C20.1953 13.1108 19.8038 14.6438 19.8038 16.32H21.8038ZM22.7252 12.757C23.3441 11.6879 24.1711 10.8529 25.2154 10.2375L24.2001 8.51446C22.8551 9.30705 21.7834 10.3921 20.9943 11.755L22.7252 12.757ZM25.2088 10.2414C26.2651 9.62985 27.435 9.32 28.7398 9.32V7.32C27.1005 7.32 25.5824 7.71415 24.2067 8.51057L25.2088 10.2414ZM28.7398 9.32C30.0089 9.32 31.0835 9.61164 31.9963 10.1665L33.0352 8.45748C31.772 7.68969 30.3292 7.32 28.7398 7.32V9.32ZM32.0037 10.1709C32.9553 10.7383 33.6927 11.5107 34.2268 12.5051L35.9887 11.5589C35.2855 10.2493 34.2948 9.2084 33.0278 8.45305L32.0037 10.1709ZM34.2336 12.5176C34.7817 13.5043 35.0678 14.6457 35.0678 15.968H37.0678C37.0678 14.3463 36.7138 12.8637 35.9819 11.5464L34.2336 12.5176ZM35.0678 15.968C35.0678 16.1685 35.051 16.3842 35.0154 16.6159L36.9921 16.9201C37.0418 16.5971 37.0678 16.2795 37.0678 15.968H35.0678ZM35.0072 16.685C34.9897 16.8945 34.9536 17.1438 34.8952 17.4359L36.8563 17.8281C36.9259 17.4802 36.9751 17.1535 37.0003 16.851L35.0072 16.685ZM35.8758 16.632H23.2678V18.632H35.8758V16.632ZM24.2678 17.632V14.752H22.2678V17.632H24.2678ZM23.2678 15.752H34.0518V13.752H23.2678V15.752ZM33.392 14.0006L32.0799 15.1526L33.3996 16.6554L34.7116 15.5034L33.392 14.0006ZM33.7387 15.8586C33.6916 14.8219 33.4891 13.8866 33.0902 13.0888L31.3013 13.9832C31.5424 14.4654 31.7026 15.1088 31.7408 15.9494L33.7387 15.8586ZM33.0902 13.0888C32.6856 12.2797 32.0918 11.6391 31.3159 11.1958L30.3236 12.9322C30.7424 13.1716 31.0659 13.5123 31.3013 13.9832L33.0902 13.0888ZM31.3296 11.2037C30.5623 10.749 29.66 10.552 28.6758 10.552V12.552C29.3982 12.552 29.9252 12.6963 30.3099 12.9243L31.3296 11.2037ZM28.6758 10.552C27.6339 10.552 26.6759 10.7765 25.8376 11.2632L26.8419 12.9928C27.3263 12.7115 27.9256 12.552 28.6758 12.552V10.552ZM25.8376 11.2632C25.0051 11.7466 24.3616 12.4346 23.9148 13.302L25.6927 14.218C25.9712 13.6774 26.3518 13.2774 26.8419 12.9928L25.8376 11.2632ZM23.9206 13.2908C23.4648 14.1488 23.2598 15.1393 23.2598 16.224H25.2598C25.2598 15.3887 25.4173 14.7365 25.6869 14.2292L23.9206 13.2908ZM23.2598 16.224C23.2598 17.3194 23.4796 18.3277 23.952 19.2199L25.7195 18.2841C25.4239 17.7256 25.2598 17.0486 25.2598 16.224H23.2598ZM23.952 19.2199C24.4232 20.1099 25.0997 20.8143 25.9688 21.3146L26.9667 19.5814C26.4278 19.2711 26.0163 18.8448 25.7195 18.2841L23.952 19.2199ZM25.9889 21.3259C26.8598 21.8009 27.8394 22.024 28.8998 22.024V20.024C28.1254 20.024 27.4837 19.8631 26.9466 19.5701L25.9889 21.3259ZM28.8998 22.024C29.8085 22.024 30.6669 21.8638 31.4625 21.5302L30.689 19.6858C30.162 19.9068 29.5697 20.024 28.8998 20.024V22.024ZM31.4521 21.5345C32.273 21.201 32.9788 20.7068 33.5545 20.0526L32.053 18.7314C31.69 19.1439 31.2438 19.4603 30.6994 19.6815L31.4521 21.5345ZM32.0916 20.0941L34.3316 22.3661L35.7559 20.9619L33.5159 18.6899L32.0916 20.0941ZM34.2832 21.0147C33.6386 21.7698 32.86 22.3381 31.9365 22.726L32.711 24.57C33.9208 24.0619 34.9556 23.3075 35.8043 22.3133L34.2832 21.0147ZM31.9365 22.726C30.9965 23.1208 29.9979 23.32 28.9318 23.32V25.32C30.255 25.32 31.5177 25.0712 32.711 24.57L31.9365 22.726ZM41.8655 23.296L41.3645 24.1614L41.3734 24.1666L41.3824 24.1716L41.8655 23.296ZM38.9535 20.416L38.088 20.9171L38.0947 20.9283L38.9535 20.416ZM38.9535 12.256L39.8151 12.7637L39.8189 12.757L38.9535 12.256ZM41.8015 9.376L41.3004 8.51055L41.2938 8.51446L41.8015 9.376ZM49.6095 9.312L49.0901 10.1666L49.0974 10.1709L49.6095 9.312ZM52.2015 12.032L51.3205 12.5051L51.3239 12.5114L51.3273 12.5176L52.2015 12.032ZM53.0975 16.768L52.1091 16.6159L52.1038 16.6503L52.101 16.685L53.0975 16.768ZM52.9695 17.632V18.632H53.7893L53.9501 17.8281L52.9695 17.632ZM40.3615 17.632H39.3615V18.632H40.3615V17.632ZM40.3615 14.752V13.752H39.3615V14.752H40.3615ZM51.1455 14.752L51.8053 15.5034L53.8 13.752H51.1455V14.752ZM49.8335 15.904L48.8345 15.9494L48.9291 18.0289L50.4933 16.6554L49.8335 15.904ZM49.2895 13.536L48.3951 13.9832L48.3951 13.9832L49.2895 13.536ZM47.9135 12.064L47.4037 12.9243L47.4105 12.9283L47.4174 12.9322L47.9135 12.064ZM41.8975 13.76L42.7807 14.2292L42.7865 14.218L41.8975 13.76ZM41.9295 18.752L41.0457 19.2199L41.0457 19.2199L41.9295 18.752ZM43.5615 20.448L43.0625 21.3146L43.0725 21.3204L43.0826 21.3259L43.5615 20.448ZM48.1695 20.608L47.7931 19.6815L47.7828 19.6858L48.1695 20.608ZM49.8975 19.392L50.6096 18.6899L49.856 17.9255L49.1468 18.7314L49.8975 19.392ZM52.1375 21.664L52.8981 22.3133L53.4938 21.6154L52.8496 20.9619L52.1375 21.664ZM49.4175 23.648L49.0303 22.726L49.4175 23.648ZM46.0255 23.32C44.6434 23.32 43.4253 23.0145 42.3486 22.4204L41.3824 24.1716C42.7803 24.9428 44.3356 25.32 46.0255 25.32V23.32ZM42.3665 22.4306C41.2991 21.8126 40.4511 20.9746 39.8123 19.9037L38.0947 20.9283C38.9066 22.2894 39.9999 23.3714 41.3645 24.1614L42.3665 22.4306ZM39.8189 19.915C39.2099 18.863 38.8975 17.6729 38.8975 16.32H36.8975C36.8975 17.9964 37.2891 19.537 38.0881 20.917L39.8189 19.915ZM38.8975 16.32C38.8975 14.9669 39.2099 13.7905 39.815 12.7637L38.092 11.7483C37.2891 13.1108 36.8975 14.6438 36.8975 16.32H38.8975ZM39.8189 12.757C40.4379 11.6879 41.2649 10.8529 42.3092 10.2375L41.2938 8.51446C39.9488 9.30705 38.8771 10.3921 38.0881 11.755L39.8189 12.757ZM42.3025 10.2414C43.3589 9.62985 44.5287 9.32 45.8335 9.32V7.32C44.1943 7.32 42.6761 7.71415 41.3005 8.51057L42.3025 10.2414ZM45.8335 9.32C47.1027 9.32 48.1772 9.61164 49.0901 10.1665L50.1289 8.45748C48.8658 7.68969 47.423 7.32 45.8335 7.32V9.32ZM49.0974 10.1709C50.0491 10.7383 50.7865 11.5107 51.3205 12.5051L53.0825 11.5589C52.3792 10.2493 51.3886 9.2084 50.1216 8.45305L49.0974 10.1709ZM51.3273 12.5176C51.8755 13.5043 52.1615 14.6457 52.1615 15.968H54.1615C54.1615 14.3463 53.8075 12.8637 53.0757 11.5464L51.3273 12.5176ZM52.1615 15.968C52.1615 16.1685 52.1448 16.3842 52.1091 16.6159L54.0859 16.9201C54.1356 16.5971 54.1615 16.2795 54.1615 15.968H52.1615ZM52.101 16.685C52.0835 16.8945 52.0473 17.1438 51.9889 17.4359L53.9501 17.8281C54.0197 17.4802 54.0688 17.1535 54.094 16.851L52.101 16.685ZM52.9695 16.632H40.3615V18.632H52.9695V16.632ZM41.3615 17.632V14.752H39.3615V17.632H41.3615ZM40.3615 15.752H51.1455V13.752H40.3615V15.752ZM50.4857 14.0006L49.1737 15.1526L50.4933 16.6554L51.8053 15.5034L50.4857 14.0006ZM50.8325 15.8586C50.7853 14.8219 50.5828 13.8866 50.1839 13.0888L48.3951 13.9832C48.6362 14.4654 48.7963 15.1088 48.8345 15.9494L50.8325 15.8586ZM50.1839 13.0888C49.7794 12.2797 49.1855 11.6391 48.4096 11.1958L47.4174 12.9322C47.8362 13.1716 48.1596 13.5123 48.3951 13.9832L50.1839 13.0888ZM48.4233 11.2037C47.656 10.749 46.7538 10.552 45.7695 10.552V12.552C46.4919 12.552 47.019 12.6963 47.4037 12.9243L48.4233 11.2037ZM45.7695 10.552C44.7277 10.552 43.7696 10.7765 42.9314 11.2632L43.9356 12.9928C44.42 12.7115 45.0193 12.552 45.7695 12.552V10.552ZM42.9314 11.2632C42.0988 11.7466 41.4554 12.4346 41.0085 13.302L42.7865 14.218C43.065 13.6774 43.4455 13.2774 43.9356 12.9928L42.9314 11.2632ZM41.0144 13.2908C40.5586 14.1488 40.3535 15.1393 40.3535 16.224H42.3535C42.3535 15.3887 42.5111 14.7365 42.7806 14.2292L41.0144 13.2908ZM40.3535 16.224C40.3535 17.3194 40.5734 18.3277 41.0457 19.2199L42.8133 18.2841C42.5176 17.7256 42.3535 17.0486 42.3535 16.224H40.3535ZM41.0457 19.2199C41.5169 20.1099 42.1935 20.8143 43.0625 21.3146L44.0605 19.5814C43.5215 19.2711 43.1101 18.8448 42.8133 18.2841L41.0457 19.2199ZM43.0826 21.3259C43.9535 21.8009 44.9332 22.024 45.9935 22.024V20.024C45.2191 20.024 44.5775 19.8631 44.0404 19.5701L43.0826 21.3259ZM45.9935 22.024C46.9022 22.024 47.7606 21.8638 48.5562 21.5302L47.7828 19.6858C47.2557 19.9068 46.6635 20.024 45.9935 20.024V22.024ZM48.5459 21.5345C49.3667 21.201 50.0725 20.7068 50.6482 20.0526L49.1468 18.7314C48.7838 19.1439 48.3376 19.4603 47.7931 19.6815L48.5459 21.5345ZM49.1854 20.0941L51.4254 22.3661L52.8496 20.9619L50.6096 18.6899L49.1854 20.0941ZM51.3769 21.0147C50.7323 21.7698 49.9538 22.3381 49.0303 22.726L49.8047 24.57C51.0145 24.0619 52.0493 23.3075 52.8981 22.3133L51.3769 21.0147ZM49.0303 22.726C48.0902 23.1208 47.0916 23.32 46.0255 23.32V25.32C47.3487 25.32 48.6114 25.0712 49.8047 24.57L49.0303 22.726ZM66.5113 24H65.5113V25H66.5113V24ZM65.5193 12.608L64.8006 13.3034L64.8063 13.3093L64.8121 13.3151L65.5193 12.608ZM61.1993 12.064L60.7106 11.1915L60.7106 11.1915L61.1993 12.064ZM59.9513 13.312L59.0787 12.8234L59.0787 12.8234L59.9513 13.312ZM59.5033 15.136L59.0159 16.0092L60.5033 16.8394V15.136H59.5033ZM58.1273 14.368H57.1273V14.9551L57.6399 15.2412L58.1273 14.368ZM58.8953 11.264L59.7635 11.7602L59.7684 11.7514L58.8953 11.264ZM61.0073 9.12L61.5034 9.98827L61.5099 9.98451L61.0073 9.12ZM67.1513 9.216L66.5966 10.048L66.6035 10.0527L66.6105 10.0572L67.1513 9.216ZM69.2633 11.488L68.3853 11.9669L68.3901 11.9754L69.2633 11.488ZM70.0312 24V25H71.0312V24H70.0312ZM55.9833 24H54.9833V25H55.9833V24ZM55.9833 8.64V7.64H54.9833V8.64H55.9833ZM59.5033 8.64H60.5033V7.64H59.5033V8.64ZM59.5033 24V25H60.5033V24H59.5033ZM67.5113 24V15.136H65.5113V24H67.5113ZM67.5113 15.136C67.5113 13.8745 67.0939 12.7685 66.2264 11.9009L64.8121 13.3151C65.2672 13.7702 65.5113 14.3495 65.5113 15.136H67.5113ZM66.2379 11.9126C65.3873 11.0337 64.2846 10.616 63.0233 10.616V12.616C63.8099 12.616 64.3712 12.8596 64.8006 13.3034L66.2379 11.9126ZM63.0233 10.616C62.1899 10.616 61.4101 10.7998 60.7106 11.1915L61.6879 12.9365C62.0551 12.7309 62.4913 12.616 63.0233 12.616V10.616ZM60.7106 11.1915C60.0164 11.5803 59.4675 12.1291 59.0787 12.8234L60.8238 13.8006C61.0323 13.4282 61.3154 13.1451 61.6879 12.9365L60.7106 11.1915ZM59.0787 12.8234C58.6871 13.5228 58.5033 14.3026 58.5033 15.136H60.5033C60.5033 14.604 60.6181 14.1678 60.8238 13.8006L59.0787 12.8234ZM59.9906 14.2628L58.6146 13.4948L57.6399 15.2412L59.0159 16.0092L59.9906 14.2628ZM59.1273 14.368C59.1273 13.3445 59.3491 12.4853 59.7635 11.7601L58.027 10.7679C57.4174 11.8347 57.1273 13.0449 57.1273 14.368H59.1273ZM59.7684 11.7514C60.1934 10.9899 60.7684 10.4083 61.5034 9.98824L60.5111 8.25176C59.4541 8.85574 58.6211 9.70341 58.0221 10.7766L59.7684 11.7514ZM61.5099 9.98451C62.2645 9.54576 63.1131 9.32 64.0793 9.32V7.32C62.784 7.32 61.5847 7.62757 60.5046 8.25549L61.5099 9.98451ZM64.0793 9.32C65.0483 9.32 65.8765 9.56798 66.5966 10.048L67.706 8.38395C66.6341 7.66935 65.4142 7.32 64.0793 7.32V9.32ZM66.6105 10.0572C67.365 10.5422 67.9533 11.1747 68.3854 11.9669L70.1411 11.0091C69.5492 9.92395 68.7295 9.0418 67.692 8.37482L66.6105 10.0572ZM68.3901 11.9754C68.823 12.7511 69.0312 13.5442 69.0312 14.368H71.0312C71.0312 13.1865 70.7275 12.0596 70.1364 11.0006L68.3901 11.9754ZM69.0312 14.368V24H71.0312V14.368H69.0312ZM70.0312 23H66.5113V25H70.0312V23ZM56.9833 24V8.64H54.9833V24H56.9833ZM55.9833 9.64H59.5033V7.64H55.9833V9.64ZM58.5033 8.64V24H60.5033V8.64H58.5033ZM59.5033 23H55.9833V25H59.5033V23ZM73.6083 24H72.6083V25H73.6083V24ZM73.6083 0.959999V-0.0400009H72.6083V0.959999H73.6083ZM77.1283 0.959999H78.1283V-0.0400009H77.1283V0.959999ZM77.1283 24V25H78.1283V24H77.1283ZM74.6083 24V0.959999H72.6083V24H74.6083ZM73.6083 1.96H77.1283V-0.0400009H73.6083V1.96ZM76.1283 0.959999V24H78.1283V0.959999H76.1283ZM77.1283 23H73.6083V25H77.1283V23ZM86.0058 24.16L85.0847 24.5493L85.3428 25.16H86.0058V24.16ZM79.4458 8.64V7.64H77.9374L78.5247 9.02933L79.4458 8.64ZM83.3177 8.64L84.2484 8.27402L83.999 7.64H83.3177V8.64ZM87.7978 20.032V21.032H89.2656L88.7284 19.666L87.7978 20.032ZM86.6778 20.032L85.7544 19.6481L85.179 21.032H86.6778V20.032ZM91.4138 8.64V7.64H90.7465L90.4904 8.25612L91.4138 8.64ZM95.3178 8.64L96.2263 9.05775L96.8782 7.64H95.3178V8.64ZM88.1818 24.16V25.16H88.8226L89.0903 24.5778L88.1818 24.16ZM81.4298 30.4L80.5301 29.9634L79.8329 31.4H81.4298V30.4ZM86.1978 20.576L87.0726 20.0917L86.1394 18.4059L85.2981 20.1394L86.1978 20.576ZM88.1818 24.16L89.0915 24.5752L89.3008 24.1167L89.0566 23.6757L88.1818 24.16ZM85.3338 30.4V31.4H85.9766L86.2435 30.8152L85.3338 30.4ZM86.9268 23.7707L80.3668 8.25067L78.5247 9.02933L85.0847 24.5493L86.9268 23.7707ZM79.4458 9.64H83.3177V7.64H79.4458V9.64ZM82.3871 9.00598L86.8671 20.398L88.7284 19.666L84.2484 8.27402L82.3871 9.00598ZM87.7978 19.032H86.6778V21.032H87.7978V19.032ZM87.6011 20.4159L92.3371 9.02388L90.4904 8.25612L85.7544 19.6481L87.6011 20.4159ZM91.4138 9.64H95.3178V7.64H91.4138V9.64ZM94.4092 8.22225L87.2732 23.7422L89.0903 24.5778L96.2263 9.05775L94.4092 8.22225ZM88.1818 23.16H86.0058V25.16H88.1818V23.16ZM82.3294 30.8366L87.0974 21.0126L85.2981 20.1394L80.5301 29.9634L82.3294 30.8366ZM85.3229 21.0603L87.3069 24.6443L89.0566 23.6757L87.0726 20.0917L85.3229 21.0603ZM87.272 23.7448L84.424 29.9848L86.2435 30.8152L89.0915 24.5752L87.272 23.7448ZM85.3338 29.4H81.4298V31.4H85.3338V29.4Z" fill="black" mask="url(#path-1-outside-1_4001_344)"/>
</g>
<defs>
<filter id="filter0_d_4001_344" x="0.768005" y="0.960022" width="98.5497" height="37.44" filterUnits="userSpaceOnUse" color-interpolation-filters="sRGB">
<feFlood flood-opacity="0" result="BackgroundImageFix"/>
<feColorMatrix in="SourceAlpha" type="matrix" values="0 0 0 0 0 0 0 0 0 0 0 0 0 0 0 0 0 0 127 0" result="hardAlpha"/>
<feOffset dy="4"/>
<feGaussianBlur stdDeviation="2"/>
<feComposite in2="hardAlpha" operator="out"/>
<feColorMatrix type="matrix" values="0 0 0 0 0 0 0 0 0 0 0 0 0 0 0 0 0 0 0.25 0"/>
<feBlend mode="normal" in2="BackgroundImageFix" result="effect1_dropShadow_4001_344"/>
<feBlend mode="normal" in="SourceGraphic" in2="effect1_dropShadow_4001_344" result="shape"/>
</filter>
<linearGradient id="paint0_linear_4001_344" x1="50" y1="-8" x2="50" y2="32" gradientUnits="userSpaceOnUse">
<stop stop-color="#9A1A51"/>
<stop offset="1" stop-color="#631F89"/>
</linearGradient>
</defs>
</svg>
