<svg width="92" height="31" viewBox="0 0 92 31" fill="none" xmlns="http://www.w3.org/2000/svg">
<path d="M8.064 24V2.24H11.744V24H8.064ZM0.768 4.96V1.6H19.04V4.96H0.768ZM24.9318 24.32C23.3958 24.32 22.0091 23.9787 20.7718 23.296C19.5558 22.592 18.5851 21.632 17.8598 20.416C17.1558 19.2 16.8038 17.8347 16.8038 16.32C16.8038 14.8053 17.1558 13.4507 17.8598 12.256C18.5638 11.04 19.5131 10.08 20.7078 9.376C21.9238 8.672 23.2678 8.32 24.7398 8.32C26.1691 8.32 27.4278 8.65067 28.5158 9.312C29.6251 9.97333 30.4891 10.88 31.1078 12.032C31.7478 13.184 32.0678 14.496 32.0678 15.968C32.0678 16.224 32.0464 16.4907 32.0037 16.768C31.9824 17.024 31.9398 17.312 31.8758 17.632H19.2678V14.752H30.0518L28.7398 15.904C28.6971 14.9653 28.5158 14.176 28.1958 13.536C27.8758 12.896 27.4171 12.4053 26.8198 12.064C26.2438 11.7227 25.5291 11.552 24.6758 11.552C23.7798 11.552 23.0011 11.744 22.3398 12.128C21.6784 12.512 21.1664 13.056 20.8038 13.76C20.4411 14.4427 20.2598 15.264 20.2598 16.224C20.2598 17.184 20.4518 18.0267 20.8358 18.752C21.2198 19.4773 21.7638 20.0427 22.4678 20.448C23.1718 20.832 23.9824 21.024 24.8998 21.024C25.6891 21.024 26.4144 20.8853 27.0758 20.608C27.7584 20.3307 28.3344 19.9253 28.8038 19.392L31.0438 21.664C30.2971 22.5387 29.3904 23.2 28.3238 23.648C27.2571 24.096 26.1264 24.32 24.9318 24.32ZM42.0255 24.32C40.4895 24.32 39.1028 23.9787 37.8655 23.296C36.6495 22.592 35.6788 21.632 34.9535 20.416C34.2495 19.2 33.8975 17.8347 33.8975 16.32C33.8975 14.8053 34.2495 13.4507 34.9535 12.256C35.6575 11.04 36.6068 10.08 37.8015 9.376C39.0175 8.672 40.3615 8.32 41.8335 8.32C43.2628 8.32 44.5215 8.65067 45.6095 9.312C46.7188 9.97333 47.5828 10.88 48.2015 12.032C48.8415 13.184 49.1615 14.496 49.1615 15.968C49.1615 16.224 49.1402 16.4907 49.0975 16.768C49.0762 17.024 49.0335 17.312 48.9695 17.632H36.3615V14.752H47.1455L45.8335 15.904C45.7908 14.9653 45.6095 14.176 45.2895 13.536C44.9695 12.896 44.5108 12.4053 43.9135 12.064C43.3375 11.7227 42.6228 11.552 41.7695 11.552C40.8735 11.552 40.0948 11.744 39.4335 12.128C38.7722 12.512 38.2602 13.056 37.8975 13.76C37.5348 14.4427 37.3535 15.264 37.3535 16.224C37.3535 17.184 37.5455 18.0267 37.9295 18.752C38.3135 19.4773 38.8575 20.0427 39.5615 20.448C40.2655 20.832 41.0762 21.024 41.9935 21.024C42.7828 21.024 43.5082 20.8853 44.1695 20.608C44.8522 20.3307 45.4282 19.9253 45.8975 19.392L48.1375 21.664C47.3908 22.5387 46.4842 23.2 45.4175 23.648C44.3508 24.096 43.2202 24.32 42.0255 24.32ZM62.5113 24V15.136C62.5113 14.112 62.1806 13.2693 61.5193 12.608C60.8793 11.9467 60.0473 11.616 59.0233 11.616C58.3406 11.616 57.7326 11.7653 57.1993 12.064C56.6659 12.3627 56.2499 12.7787 55.9513 13.312C55.6526 13.8453 55.5033 14.4533 55.5033 15.136L54.1273 14.368C54.1273 13.1947 54.3833 12.16 54.8953 11.264C55.4073 10.3467 56.1113 9.632 57.0073 9.12C57.9246 8.58667 58.9486 8.32 60.0793 8.32C61.2313 8.32 62.2553 8.61867 63.1513 9.216C64.0473 9.792 64.7513 10.5493 65.2633 11.488C65.7753 12.4053 66.0312 13.3653 66.0312 14.368V24H62.5113ZM51.9833 24V8.64H55.5033V24H51.9833ZM69.6083 24V0.959999H73.1283V24H69.6083ZM82.0058 24.16L75.4458 8.64H79.3177L83.7978 20.032H82.6778L87.4138 8.64H91.3178L84.1818 24.16H82.0058ZM77.4298 30.4L82.1978 20.576L84.1818 24.16L81.3338 30.4H77.4298Z" fill="url(#paint0_linear_4001_344)"/>
<defs>
<linearGradient id="paint0_linear_4001_344" x1="46" y1="-8" x2="46" y2="32" gradientUnits="userSpaceOnUse">
<stop stop-color="#9A1A51"/>
<stop offset="1" stop-color="#631F89"/>
</linearGradient>
</defs>
</svg>
