<svg width="130" height="40" viewBox="0 0 130 40" fill="none" xmlns="http://www.w3.org/2000/svg">
<path d="M20.874 13.1523C20.874 9.4924 17.9295 6.54495 14.329 6.54495H11.0833V19.7012H14.329C17.9295 19.7012 20.874 16.7518 20.874 13.1523ZM35.6385 39.3801H23.724L14.2647 26.2531H11.0833V39.3519H0.583008V-5.70708e-05H15.6253C24.2971 -5.70708e-05 31.3753 5.89678 31.3753 13.1523C31.3753 17.5774 28.6617 21.5298 24.532 23.9479L35.6385 39.3801Z" fill="#6C3C97"/>
<path d="M47.4802 15.514C44.7072 15.514 42.3485 19.2831 42.3485 23.9489C42.3485 28.6147 44.7072 32.3887 47.4802 32.3887C50.3175 32.3887 52.6723 28.6147 52.6723 23.9489C52.6723 19.2831 50.3175 15.514 47.4802 15.514ZM63.6424 23.9489C63.6424 32.8624 56.3937 40 47.4802 40C38.5696 40 31.3745 32.8624 31.3745 23.9489C31.3745 15.0422 38.5696 7.90071 47.4802 7.90071C56.3937 7.90071 63.6424 15.0422 63.6424 23.9489Z" fill="#6C3C97"/>
<path d="M88.2836 8.5535L76.1878 20.6474V8.51354H65.6895V39.3516H76.1878V26.8425L88.8158 39.3516H102.03L85.9824 23.3024L99.2742 10.0155V28.3162C99.2742 34.3924 102.928 39.9998 112.13 39.9998C116.499 39.9998 120.508 37.5221 122.456 35.2803L127.176 39.3516H129.417V8.5535H118.919V24.5988V28.4936C117.737 30.557 116.089 31.8543 113.544 31.8543C110.961 31.8543 109.775 30.3231 109.775 25.4253V24.1329V8.5535H88.2836Z" fill="#6C3C97"/>
</svg>
