<svg width="1138" height="38" viewBox="0 0 1138 38" fill="none" xmlns="http://www.w3.org/2000/svg">
<g clip-path="url(#clip0_121_4983)">
<path d="M2.45789 20L1135.54 20C1136.9 20 1138 19.5523 1138 19C1138 18.4477 1136.9 18 1135.54 18L2.45789 18C1.10046 18 0 18.4477 0 19C0 19.5523 1.10046 20 2.45789 20Z" fill="url(#paint0_linear_121_4983)"/>
<path d="M2.37335 20L353.627 20C354.937 20 356 19.5523 356 19C356 18.4477 354.937 18 353.627 18L2.37335 18C1.06259 18 3.05176e-05 18.4477 3.05176e-05 19C3.05176e-05 19.5523 1.06259 20 2.37335 20Z" fill="url(#paint1_linear_121_4983)"/>
<path d="M2 22L2 16C2 15.4477 1.55228 15 1 15C0.447715 15 0 15.4477 0 16L0 22C0 22.5523 0.447715 23 1 23C1.55228 23 2 22.5523 2 22Z" fill="url(#paint2_linear_121_4983)"/>
<path d="M26 24L26 14C26 13.4477 25.5523 13 25 13C24.4477 13 24 13.4477 24 14L24 24C24 24.5523 24.4477 25 25 25C25.5523 25 26 24.5523 26 24Z" fill="url(#paint3_linear_121_4983)"/>
<path d="M32 24V14C32 13.4477 31.5523 13 31 13C30.4477 13 30 13.4477 30 14L30 24C30 24.5523 30.4477 25 31 25C31.5523 25 32 24.5523 32 24Z" fill="url(#paint4_linear_121_4983)"/>
<path d="M38 22V16C38 15.4477 37.5523 15 37 15C36.4477 15 36 15.4477 36 16V22C36 22.5523 36.4477 23 37 23C37.5523 23 38 22.5523 38 22Z" fill="url(#paint5_linear_121_4983)"/>
<path d="M44 22V16C44 15.4477 43.5523 15 43 15C42.4477 15 42 15.4477 42 16V22C42 22.5523 42.4477 23 43 23C43.5523 23 44 22.5523 44 22Z" fill="url(#paint6_linear_121_4983)"/>
<path d="M50 26V12C50 11.4477 49.5523 11 49 11C48.4477 11 48 11.4477 48 12V26C48 26.5523 48.4477 27 49 27C49.5523 27 50 26.5523 50 26Z" fill="url(#paint7_linear_121_4983)"/>
<path d="M56 22V16C56 15.4477 55.5523 15 55 15C54.4477 15 54 15.4477 54 16V22C54 22.5523 54.4477 23 55 23C55.5523 23 56 22.5523 56 22Z" fill="url(#paint8_linear_121_4983)"/>
<path d="M62 26V12C62 11.4477 61.5523 11 61 11C60.4477 11 60 11.4477 60 12V26C60 26.5523 60.4477 27 61 27C61.5523 27 62 26.5523 62 26Z" fill="url(#paint9_linear_121_4983)"/>
<path d="M68 24V14C68 13.4477 67.5523 13 67 13C66.4477 13 66 13.4477 66 14V24C66 24.5523 66.4477 25 67 25C67.5523 25 68 24.5523 68 24Z" fill="url(#paint10_linear_121_4983)"/>
<path d="M74 22V16C74 15.4477 73.5523 15 73 15C72.4477 15 72 15.4477 72 16V22C72 22.5523 72.4477 23 73 23C73.5523 23 74 22.5523 74 22Z" fill="url(#paint11_linear_121_4983)"/>
<path d="M80 22V16C80 15.4477 79.5523 15 79 15C78.4477 15 78 15.4477 78 16V22C78 22.5523 78.4477 23 79 23C79.5523 23 80 22.5523 80 22Z" fill="url(#paint12_linear_121_4983)"/>
<path d="M104 22V16C104 15.4477 103.552 15 103 15C102.448 15 102 15.4477 102 16V22C102 22.5523 102.448 23 103 23C103.552 23 104 22.5523 104 22Z" fill="url(#paint13_linear_121_4983)"/>
<path d="M110 24V14C110 13.4477 109.552 13 109 13C108.448 13 108 13.4477 108 14V24C108 24.5523 108.448 25 109 25C109.552 25 110 24.5523 110 24Z" fill="url(#paint14_linear_121_4983)"/>
<path d="M116 24V14C116 13.4477 115.552 13 115 13C114.448 13 114 13.4477 114 14V24C114 24.5523 114.448 25 115 25C115.552 25 116 24.5523 116 24Z" fill="url(#paint15_linear_121_4983)"/>
<path d="M122 24V14C122 13.4477 121.552 13 121 13C120.448 13 120 13.4477 120 14V24C120 24.5523 120.448 25 121 25C121.552 25 122 24.5523 122 24Z" fill="url(#paint16_linear_121_4983)"/>
<path d="M128 28V10C128 9.44772 127.552 9 127 9C126.448 9 126 9.44772 126 10V28C126 28.5523 126.448 29 127 29C127.552 29 128 28.5523 128 28Z" fill="url(#paint17_linear_121_4983)"/>
<path d="M134 24V14C134 13.4477 133.552 13 133 13C132.448 13 132 13.4477 132 14V24C132 24.5523 132.448 25 133 25C133.552 25 134 24.5523 134 24Z" fill="url(#paint18_linear_121_4983)"/>
<path d="M140 24V14C140 13.4477 139.552 13 139 13C138.448 13 138 13.4477 138 14V24C138 24.5523 138.448 25 139 25C139.552 25 140 24.5523 140 24Z" fill="url(#paint19_linear_121_4983)"/>
<path d="M146 24V14C146 13.4477 145.552 13 145 13C144.448 13 144 13.4477 144 14V24C144 24.5523 144.448 25 145 25C145.552 25 146 24.5523 146 24Z" fill="url(#paint20_linear_121_4983)"/>
<path d="M152 28V10C152 9.44772 151.552 9 151 9C150.448 9 150 9.44772 150 10V28C150 28.5523 150.448 29 151 29C151.552 29 152 28.5523 152 28Z" fill="url(#paint21_linear_121_4983)"/>
<path d="M158 24V14C158 13.4477 157.552 13 157 13C156.448 13 156 13.4477 156 14V24C156 24.5523 156.448 25 157 25C157.552 25 158 24.5523 158 24Z" fill="url(#paint22_linear_121_4983)"/>
<path d="M164 24V14C164 13.4477 163.552 13 163 13C162.448 13 162 13.4477 162 14V24C162 24.5523 162.448 25 163 25C163.552 25 164 24.5523 164 24Z" fill="url(#paint23_linear_121_4983)"/>
<path d="M170 24V14C170 13.4477 169.552 13 169 13C168.448 13 168 13.4477 168 14V24C168 24.5523 168.448 25 169 25C169.552 25 170 24.5523 170 24Z" fill="url(#paint24_linear_121_4983)"/>
<path d="M176 28V10C176 9.44772 175.552 9 175 9C174.448 9 174 9.44772 174 10V28C174 28.5523 174.448 29 175 29C175.552 29 176 28.5523 176 28Z" fill="url(#paint25_linear_121_4983)"/>
<path d="M182 24V14C182 13.4477 181.552 13 181 13C180.448 13 180 13.4477 180 14V24C180 24.5523 180.448 25 181 25C181.552 25 182 24.5523 182 24Z" fill="url(#paint26_linear_121_4983)"/>
<path d="M188 22V16C188 15.4477 187.552 15 187 15C186.448 15 186 15.4477 186 16V22C186 22.5523 186.448 23 187 23C187.552 23 188 22.5523 188 22Z" fill="url(#paint27_linear_121_4983)"/>
<path d="M194 22V16C194 15.4477 193.552 15 193 15C192.448 15 192 15.4477 192 16V22C192 22.5523 192.448 23 193 23C193.552 23 194 22.5523 194 22Z" fill="url(#paint28_linear_121_4983)"/>
<path d="M200 22V16C200 15.4477 199.552 15 199 15C198.448 15 198 15.4477 198 16V22C198 22.5523 198.448 23 199 23C199.552 23 200 22.5523 200 22Z" fill="url(#paint29_linear_121_4983)"/>
<path d="M206 22V16C206 15.4477 205.552 15 205 15C204.448 15 204 15.4477 204 16V22C204 22.5523 204.448 23 205 23C205.552 23 206 22.5523 206 22Z" fill="url(#paint30_linear_121_4983)"/>
<path d="M230 22V16C230 15.4477 229.552 15 229 15C228.448 15 228 15.4477 228 16V22C228 22.5523 228.448 23 229 23C229.552 23 230 22.5523 230 22Z" fill="url(#paint31_linear_121_4983)"/>
<path d="M236 24V14C236 13.4477 235.552 13 235 13C234.448 13 234 13.4477 234 14V24C234 24.5523 234.448 25 235 25C235.552 25 236 24.5523 236 24Z" fill="url(#paint32_linear_121_4983)"/>
<path d="M242 28V10C242 9.44772 241.552 9 241 9C240.448 9 240 9.44772 240 10V28C240 28.5523 240.448 29 241 29C241.552 29 242 28.5523 242 28Z" fill="url(#paint33_linear_121_4983)"/>
<path d="M248 24V14C248 13.4477 247.552 13 247 13C246.448 13 246 13.4477 246 14V24C246 24.5523 246.448 25 247 25C247.552 25 248 24.5523 248 24Z" fill="url(#paint34_linear_121_4983)"/>
<path d="M254 22V16C254 15.4477 253.552 15 253 15C252.448 15 252 15.4477 252 16V22C252 22.5523 252.448 23 253 23C253.552 23 254 22.5523 254 22Z" fill="url(#paint35_linear_121_4983)"/>
<path d="M278 22V16C278 15.4477 277.552 15 277 15C276.448 15 276 15.4477 276 16V22C276 22.5523 276.448 23 277 23C277.552 23 278 22.5523 278 22Z" fill="url(#paint36_linear_121_4983)"/>
<path d="M284 22V16C284 15.4477 283.552 15 283 15C282.448 15 282 15.4477 282 16V22C282 22.5523 282.448 23 283 23C283.552 23 284 22.5523 284 22Z" fill="url(#paint37_linear_121_4983)"/>
<path d="M290 24V14C290 13.4477 289.552 13 289 13C288.448 13 288 13.4477 288 14V24C288 24.5523 288.448 25 289 25C289.552 25 290 24.5523 290 24Z" fill="url(#paint38_linear_121_4983)"/>
<path d="M296 27V11C296 10.4477 295.552 10 295 10C294.448 10 294 10.4477 294 11V27C294 27.5523 294.448 28 295 28C295.552 28 296 27.5523 296 27Z" fill="url(#paint39_linear_121_4983)"/>
<path d="M302 22V16C302 15.4477 301.552 15 301 15C300.448 15 300 15.4477 300 16V22C300 22.5523 300.448 23 301 23C301.552 23 302 22.5523 302 22Z" fill="url(#paint40_linear_121_4983)"/>
<path d="M308 27V11C308 10.4477 307.552 10 307 10C306.448 10 306 10.4477 306 11V27C306 27.5523 306.448 28 307 28C307.552 28 308 27.5523 308 27Z" fill="url(#paint41_linear_121_4983)"/>
<path d="M314 27V11C314 10.4477 313.552 10 313 10C312.448 10 312 10.4477 312 11V27C312 27.5523 312.448 28 313 28C313.552 28 314 27.5523 314 27Z" fill="url(#paint42_linear_121_4983)"/>
<path d="M320 31V7C320 6.44772 319.552 6 319 6H319C318.448 6 318 6.44772 318 7V31C318 31.5523 318.448 32 319 32C319.552 32 320 31.5523 320 31Z" fill="url(#paint43_linear_121_4983)"/>
<path d="M326 31V7C326 6.44772 325.552 6 325 6H325C324.448 6 324 6.44772 324 7V31C324 31.5523 324.448 32 325 32C325.552 32 326 31.5523 326 31Z" fill="url(#paint44_linear_121_4983)"/>
<path d="M332 37V1C332 0.447716 331.552 0 331 0L331 0C330.448 0 330 0.447716 330 1V37C330 37.5523 330.448 38 331 38C331.552 38 332 37.5523 332 37Z" fill="url(#paint45_linear_121_4983)"/>
<path d="M338 28V10C338 9.44772 337.552 9 337 9C336.448 9 336 9.44772 336 10V28C336 28.5523 336.448 29 337 29C337.552 29 338 28.5523 338 28Z" fill="url(#paint46_linear_121_4983)"/>
<path d="M344 24V14C344 13.4477 343.552 13 343 13C342.448 13 342 13.4477 342 14V24C342 24.5523 342.448 25 343 25C343.552 25 344 24.5523 344 24Z" fill="url(#paint47_linear_121_4983)"/>
<path d="M350 22V16C350 15.4477 349.552 15 349 15C348.448 15 348 15.4477 348 16V22C348 22.5523 348.448 23 349 23C349.552 23 350 22.5523 350 22Z" fill="url(#paint48_linear_121_4983)"/>
<path d="M380.333 22V16C380.333 15.4477 379.886 15 379.333 15C378.781 15 378.333 15.4477 378.333 16V22C378.333 22.5523 378.781 23 379.333 23C379.886 23 380.333 22.5523 380.333 22Z" fill="url(#paint49_linear_121_4983)"/>
<path d="M386.333 26V12C386.333 11.4477 385.886 11 385.333 11C384.781 11 384.333 11.4477 384.333 12V26C384.333 26.5523 384.781 27 385.333 27C385.886 27 386.333 26.5523 386.333 26Z" fill="url(#paint50_linear_121_4983)"/>
<path d="M392.333 24V14C392.333 13.4477 391.886 13 391.333 13C390.781 13 390.333 13.4477 390.333 14V24C390.333 24.5523 390.781 25 391.333 25C391.886 25 392.333 24.5523 392.333 24Z" fill="url(#paint51_linear_121_4983)"/>
<path d="M398.333 22V16C398.333 15.4477 397.886 15 397.333 15C396.781 15 396.333 15.4477 396.333 16V22C396.333 22.5523 396.781 23 397.333 23C397.886 23 398.333 22.5523 398.333 22Z" fill="url(#paint52_linear_121_4983)"/>
<path d="M404.333 22V16C404.333 15.4477 403.886 15 403.333 15C402.781 15 402.333 15.4477 402.333 16V22C402.333 22.5523 402.781 23 403.333 23C403.886 23 404.333 22.5523 404.333 22Z" fill="url(#paint53_linear_121_4983)"/>
<path d="M410.333 24V14C410.333 13.4477 409.886 13 409.333 13C408.781 13 408.333 13.4477 408.333 14V24C408.333 24.5523 408.781 25 409.333 25C409.886 25 410.333 24.5523 410.333 24Z" fill="url(#paint54_linear_121_4983)"/>
<path d="M416.333 22V16C416.333 15.4477 415.886 15 415.333 15C414.781 15 414.333 15.4477 414.333 16V22C414.333 22.5523 414.781 23 415.333 23C415.886 23 416.333 22.5523 416.333 22Z" fill="url(#paint55_linear_121_4983)"/>
<path d="M422.333 28V10C422.333 9.44772 421.886 9 421.333 9C420.781 9 420.333 9.44772 420.333 10V28C420.333 28.5523 420.781 29 421.333 29C421.886 29 422.333 28.5523 422.333 28Z" fill="url(#paint56_linear_121_4983)"/>
<path d="M428.333 24V14C428.333 13.4477 427.886 13 427.333 13C426.781 13 426.333 13.4477 426.333 14V24C426.333 24.5523 426.781 25 427.333 25C427.886 25 428.333 24.5523 428.333 24Z" fill="url(#paint57_linear_121_4983)"/>
<path d="M434.333 22V16C434.333 15.4477 433.886 15 433.333 15C432.781 15 432.333 15.4477 432.333 16V22C432.333 22.5523 432.781 23 433.333 23C433.886 23 434.333 22.5523 434.333 22Z" fill="url(#paint58_linear_121_4983)"/>
<path d="M440.333 24V14C440.333 13.4477 439.886 13 439.333 13C438.781 13 438.333 13.4477 438.333 14V24C438.333 24.5523 438.781 25 439.333 25C439.886 25 440.333 24.5523 440.333 24Z" fill="url(#paint59_linear_121_4983)"/>
<path d="M446.333 24V14C446.333 13.4477 445.886 13 445.333 13C444.781 13 444.333 13.4477 444.333 14V24C444.333 24.5523 444.781 25 445.333 25C445.886 25 446.333 24.5523 446.333 24Z" fill="url(#paint60_linear_121_4983)"/>
<path d="M452.333 24V14C452.333 13.4477 451.886 13 451.333 13C450.781 13 450.333 13.4477 450.333 14V24C450.333 24.5523 450.781 25 451.333 25C451.886 25 452.333 24.5523 452.333 24Z" fill="url(#paint61_linear_121_4983)"/>
<path d="M458.333 27V11C458.333 10.4477 457.886 10 457.333 10C456.781 10 456.333 10.4477 456.333 11V27C456.333 27.5523 456.781 28 457.333 28C457.886 28 458.333 27.5523 458.333 27Z" fill="url(#paint62_linear_121_4983)"/>
<path d="M464.333 27V11C464.333 10.4477 463.886 10 463.333 10C462.781 10 462.333 10.4477 462.333 11V27C462.333 27.5523 462.781 28 463.333 28C463.886 28 464.333 27.5523 464.333 27Z" fill="url(#paint63_linear_121_4983)"/>
<path d="M470.333 24V14C470.333 13.4477 469.886 13 469.333 13C468.781 13 468.333 13.4477 468.333 14V24C468.333 24.5523 468.781 25 469.333 25C469.886 25 470.333 24.5523 470.333 24Z" fill="url(#paint64_linear_121_4983)"/>
<path d="M476.333 24V14C476.333 13.4477 475.886 13 475.333 13C474.781 13 474.333 13.4477 474.333 14V24C474.333 24.5523 474.781 25 475.333 25C475.886 25 476.333 24.5523 476.333 24Z" fill="url(#paint65_linear_121_4983)"/>
<path d="M482.333 27V11C482.333 10.4477 481.886 10 481.333 10C480.781 10 480.333 10.4477 480.333 11V27C480.333 27.5523 480.781 28 481.333 28C481.886 28 482.333 27.5523 482.333 27Z" fill="url(#paint66_linear_121_4983)"/>
<path d="M488.333 22V16C488.333 15.4477 487.886 15 487.333 15C486.781 15 486.333 15.4477 486.333 16V22C486.333 22.5523 486.781 23 487.333 23C487.886 23 488.333 22.5523 488.333 22Z" fill="url(#paint67_linear_121_4983)"/>
<path d="M494.333 24V14C494.333 13.4477 493.886 13 493.333 13C492.781 13 492.333 13.4477 492.333 14V24C492.333 24.5523 492.781 25 493.333 25C493.886 25 494.333 24.5523 494.333 24Z" fill="url(#paint68_linear_121_4983)"/>
<path d="M500.333 27V11C500.333 10.4477 499.886 10 499.333 10C498.781 10 498.333 10.4477 498.333 11V27C498.333 27.5523 498.781 28 499.333 28C499.886 28 500.333 27.5523 500.333 27Z" fill="url(#paint69_linear_121_4983)"/>
<path d="M506.333 22V16C506.333 15.4477 505.886 15 505.333 15C504.781 15 504.333 15.4477 504.333 16V22C504.333 22.5523 504.781 23 505.333 23C505.886 23 506.333 22.5523 506.333 22Z" fill="url(#paint70_linear_121_4983)"/>
<path d="M536.667 22V16C536.667 15.4477 536.219 15 535.667 15C535.114 15 534.667 15.4477 534.667 16V22C534.667 22.5523 535.114 23 535.667 23C536.219 23 536.667 22.5523 536.667 22Z" fill="url(#paint71_linear_121_4983)"/>
<path d="M542.667 24V14C542.667 13.4477 542.219 13 541.667 13C541.114 13 540.667 13.4477 540.667 14V24C540.667 24.5523 541.114 25 541.667 25C542.219 25 542.667 24.5523 542.667 24Z" fill="url(#paint72_linear_121_4983)"/>
<path d="M548.667 22V16C548.667 15.4477 548.219 15 547.667 15C547.114 15 546.667 15.4477 546.667 16V22C546.667 22.5523 547.114 23 547.667 23C548.219 23 548.667 22.5523 548.667 22Z" fill="url(#paint73_linear_121_4983)"/>
<path d="M554.667 24V14C554.667 13.4477 554.219 13 553.667 13C553.114 13 552.667 13.4477 552.667 14V24C552.667 24.5523 553.114 25 553.667 25C554.219 25 554.667 24.5523 554.667 24Z" fill="url(#paint74_linear_121_4983)"/>
<path d="M560.667 24V14C560.667 13.4477 560.219 13 559.667 13C559.114 13 558.667 13.4477 558.667 14V24C558.667 24.5523 559.114 25 559.667 25C560.219 25 560.667 24.5523 560.667 24Z" fill="url(#paint75_linear_121_4983)"/>
<path d="M566.667 22V16C566.667 15.4477 566.219 15 565.667 15C565.114 15 564.667 15.4477 564.667 16V22C564.667 22.5523 565.114 23 565.667 23C566.219 23 566.667 22.5523 566.667 22Z" fill="url(#paint76_linear_121_4983)"/>
<path d="M572.667 22V16C572.667 15.4477 572.219 15 571.667 15C571.114 15 570.667 15.4477 570.667 16V22C570.667 22.5523 571.114 23 571.667 23C572.219 23 572.667 22.5523 572.667 22Z" fill="url(#paint77_linear_121_4983)"/>
<path d="M578.667 22V16C578.667 15.4477 578.219 15 577.667 15C577.114 15 576.667 15.4477 576.667 16V22C576.667 22.5523 577.114 23 577.667 23C578.219 23 578.667 22.5523 578.667 22Z" fill="url(#paint78_linear_121_4983)"/>
<path d="M584.667 24V14C584.667 13.4477 584.219 13 583.667 13C583.114 13 582.667 13.4477 582.667 14V24C582.667 24.5523 583.114 25 583.667 25C584.219 25 584.667 24.5523 584.667 24Z" fill="url(#paint79_linear_121_4983)"/>
<path d="M590.667 27V11C590.667 10.4477 590.219 10 589.667 10C589.114 10 588.667 10.4477 588.667 11V27C588.667 27.5523 589.114 28 589.667 28C590.219 28 590.667 27.5523 590.667 27Z" fill="url(#paint80_linear_121_4983)"/>
<path d="M596.667 24V14C596.667 13.4477 596.219 13 595.667 13C595.114 13 594.667 13.4477 594.667 14V24C594.667 24.5523 595.114 25 595.667 25C596.219 25 596.667 24.5523 596.667 24Z" fill="url(#paint81_linear_121_4983)"/>
<path d="M602.667 27V11C602.667 10.4477 602.219 10 601.667 10C601.114 10 600.667 10.4477 600.667 11V27C600.667 27.5523 601.114 28 601.667 28C602.219 28 602.667 27.5523 602.667 27Z" fill="url(#paint82_linear_121_4983)"/>
<path d="M608.667 22V16C608.667 15.4477 608.219 15 607.667 15C607.114 15 606.667 15.4477 606.667 16V22C606.667 22.5523 607.114 23 607.667 23C608.219 23 608.667 22.5523 608.667 22Z" fill="url(#paint83_linear_121_4983)"/>
<path d="M614.667 24V14C614.667 13.4477 614.219 13 613.667 13C613.114 13 612.667 13.4477 612.667 14V24C612.667 24.5523 613.114 25 613.667 25C614.219 25 614.667 24.5523 614.667 24Z" fill="url(#paint84_linear_121_4983)"/>
<path d="M620.667 22V16C620.667 15.4477 620.219 15 619.667 15C619.114 15 618.667 15.4477 618.667 16V22C618.667 22.5523 619.114 23 619.667 23C620.219 23 620.667 22.5523 620.667 22Z" fill="url(#paint85_linear_121_4983)"/>
<path d="M626.667 24V14C626.667 13.4477 626.219 13 625.667 13C625.114 13 624.667 13.4477 624.667 14V24C624.667 24.5523 625.114 25 625.667 25C626.219 25 626.667 24.5523 626.667 24Z" fill="url(#paint86_linear_121_4983)"/>
<path d="M632.667 22V16C632.667 15.4477 632.219 15 631.667 15C631.114 15 630.667 15.4477 630.667 16V22C630.667 22.5523 631.114 23 631.667 23C632.219 23 632.667 22.5523 632.667 22Z" fill="url(#paint87_linear_121_4983)"/>
<path d="M638.667 27V11C638.667 10.4477 638.219 10 637.667 10C637.114 10 636.667 10.4477 636.667 11V27C636.667 27.5523 637.114 28 637.667 28C638.219 28 638.667 27.5523 638.667 27Z" fill="url(#paint88_linear_121_4983)"/>
<path d="M644.667 24V14C644.667 13.4477 644.219 13 643.667 13C643.114 13 642.667 13.4477 642.667 14V24C642.667 24.5523 643.114 25 643.667 25C644.219 25 644.667 24.5523 644.667 24Z" fill="url(#paint89_linear_121_4983)"/>
<path d="M650.667 27V11C650.667 10.4477 650.219 10 649.667 10C649.114 10 648.667 10.4477 648.667 11V27C648.667 27.5523 649.114 28 649.667 28C650.219 28 650.667 27.5523 650.667 27Z" fill="url(#paint90_linear_121_4983)"/>
<path d="M656.667 27V11C656.667 10.4477 656.219 10 655.667 10C655.114 10 654.667 10.4477 654.667 11V27C654.667 27.5523 655.114 28 655.667 28C656.219 28 656.667 27.5523 656.667 27Z" fill="url(#paint91_linear_121_4983)"/>
<path d="M662.667 27V11C662.667 10.4477 662.219 10 661.667 10C661.114 10 660.667 10.4477 660.667 11V27C660.667 27.5523 661.114 28 661.667 28C662.219 28 662.667 27.5523 662.667 27Z" fill="url(#paint92_linear_121_4983)"/>
<path d="M668.667 30V8C668.667 7.44772 668.219 7 667.667 7H667.667C667.114 7 666.667 7.44772 666.667 8V30C666.667 30.5523 667.114 31 667.667 31C668.219 31 668.667 30.5523 668.667 30Z" fill="url(#paint93_linear_121_4983)"/>
<path d="M674.667 33V5C674.667 4.44772 674.219 4 673.667 4H673.667C673.114 4 672.667 4.44772 672.667 5V33C672.667 33.5523 673.114 34 673.667 34C674.219 34 674.667 33.5523 674.667 33Z" fill="url(#paint94_linear_121_4983)"/>
<path d="M680.667 37V1C680.667 0.447716 680.219 0 679.667 0L679.667 0C679.114 0 678.667 0.447716 678.667 1V37C678.667 37.5523 679.114 38 679.667 38C680.219 38 680.667 37.5523 680.667 37Z" fill="url(#paint95_linear_121_4983)"/>
<path d="M686.667 30V8C686.667 7.44772 686.219 7 685.667 7H685.667C685.114 7 684.667 7.44772 684.667 8V30C684.667 30.5523 685.114 31 685.667 31C686.219 31 686.667 30.5523 686.667 30Z" fill="url(#paint96_linear_121_4983)"/>
<path d="M692.667 27V11C692.667 10.4477 692.219 10 691.667 10C691.114 10 690.667 10.4477 690.667 11V27C690.667 27.5523 691.114 28 691.667 28C692.219 28 692.667 27.5523 692.667 27Z" fill="url(#paint97_linear_121_4983)"/>
<path d="M698.667 27V11C698.667 10.4477 698.219 10 697.667 10C697.114 10 696.667 10.4477 696.667 11V27C696.667 27.5523 697.114 28 697.667 28C698.219 28 698.667 27.5523 698.667 27Z" fill="url(#paint98_linear_121_4983)"/>
<path d="M704.667 24V14C704.667 13.4477 704.219 13 703.667 13C703.114 13 702.667 13.4477 702.667 14V24C702.667 24.5523 703.114 25 703.667 25C704.219 25 704.667 24.5523 704.667 24Z" fill="url(#paint99_linear_121_4983)"/>
<path d="M710.667 22V16C710.667 15.4477 710.219 15 709.667 15C709.114 15 708.667 15.4477 708.667 16V22C708.667 22.5523 709.114 23 709.667 23C710.219 23 710.667 22.5523 710.667 22Z" fill="url(#paint100_linear_121_4983)"/>
<path d="M716.667 22V16C716.667 15.4477 716.219 15 715.667 15C715.114 15 714.667 15.4477 714.667 16V22C714.667 22.5523 715.114 23 715.667 23C716.219 23 716.667 22.5523 716.667 22Z" fill="url(#paint101_linear_121_4983)"/>
<path d="M722.667 24V14C722.667 13.4477 722.219 13 721.667 13C721.114 13 720.667 13.4477 720.667 14V24C720.667 24.5523 721.114 25 721.667 25C722.219 25 722.667 24.5523 722.667 24Z" fill="url(#paint102_linear_121_4983)"/>
<path d="M728.667 24V14C728.667 13.4477 728.219 13 727.667 13C727.114 13 726.667 13.4477 726.667 14V24C726.667 24.5523 727.114 25 727.667 25C728.219 25 728.667 24.5523 728.667 24Z" fill="url(#paint103_linear_121_4983)"/>
<path d="M734.667 24V14C734.667 13.4477 734.219 13 733.667 13C733.114 13 732.667 13.4477 732.667 14V24C732.667 24.5523 733.114 25 733.667 25C734.219 25 734.667 24.5523 734.667 24Z" fill="url(#paint104_linear_121_4983)"/>
<path d="M740.667 22V16C740.667 15.4477 740.219 15 739.667 15C739.114 15 738.667 15.4477 738.667 16V22C738.667 22.5523 739.114 23 739.667 23C740.219 23 740.667 22.5523 740.667 22Z" fill="url(#paint105_linear_121_4983)"/>
<path d="M771 22V16C771 15.4477 770.552 15 770 15C769.448 15 769 15.4477 769 16V22C769 22.5523 769.448 23 770 23C770.552 23 771 22.5523 771 22Z" fill="url(#paint106_linear_121_4983)"/>
<path d="M777 22V16C777 15.4477 776.552 15 776 15C775.448 15 775 15.4477 775 16V22C775 22.5523 775.448 23 776 23C776.552 23 777 22.5523 777 22Z" fill="url(#paint107_linear_121_4983)"/>
<path d="M783 24V14C783 13.4477 782.552 13 782 13C781.448 13 781 13.4477 781 14V24C781 24.5523 781.448 25 782 25C782.552 25 783 24.5523 783 24Z" fill="url(#paint108_linear_121_4983)"/>
<path d="M789 27V11C789 10.4477 788.552 10 788 10C787.448 10 787 10.4477 787 11V27C787 27.5523 787.448 28 788 28C788.552 28 789 27.5523 789 27Z" fill="url(#paint109_linear_121_4983)"/>
<path d="M795 24V14C795 13.4477 794.552 13 794 13C793.448 13 793 13.4477 793 14V24C793 24.5523 793.448 25 794 25C794.552 25 795 24.5523 795 24Z" fill="url(#paint110_linear_121_4983)"/>
<path d="M801 24V14C801 13.4477 800.552 13 800 13C799.448 13 799 13.4477 799 14V24C799 24.5523 799.448 25 800 25C800.552 25 801 24.5523 801 24Z" fill="url(#paint111_linear_121_4983)"/>
<path d="M807 22V16C807 15.4477 806.552 15 806 15C805.448 15 805 15.4477 805 16V22C805 22.5523 805.448 23 806 23C806.552 23 807 22.5523 807 22Z" fill="url(#paint112_linear_121_4983)"/>
<path d="M813 22V16C813 15.4477 812.552 15 812 15C811.448 15 811 15.4477 811 16V22C811 22.5523 811.448 23 812 23C812.552 23 813 22.5523 813 22Z" fill="url(#paint113_linear_121_4983)"/>
<path d="M843.333 22V16C843.333 15.4477 842.886 15 842.333 15C841.781 15 841.333 15.4477 841.333 16V22C841.333 22.5523 841.781 23 842.333 23C842.886 23 843.333 22.5523 843.333 22Z" fill="url(#paint114_linear_121_4983)"/>
<path d="M849.333 24V14C849.333 13.4477 848.886 13 848.333 13C847.781 13 847.333 13.4477 847.333 14V24C847.333 24.5523 847.781 25 848.333 25C848.886 25 849.333 24.5523 849.333 24Z" fill="url(#paint115_linear_121_4983)"/>
<path d="M855.333 24V14C855.333 13.4477 854.886 13 854.333 13C853.781 13 853.333 13.4477 853.333 14V24C853.333 24.5523 853.781 25 854.333 25C854.886 25 855.333 24.5523 855.333 24Z" fill="url(#paint116_linear_121_4983)"/>
<path d="M861.333 22V16C861.333 15.4477 860.886 15 860.333 15C859.781 15 859.333 15.4477 859.333 16V22C859.333 22.5523 859.781 23 860.333 23C860.886 23 861.333 22.5523 861.333 22Z" fill="url(#paint117_linear_121_4983)"/>
<path d="M867.333 22V16C867.333 15.4477 866.886 15 866.333 15C865.781 15 865.333 15.4477 865.333 16V22C865.333 22.5523 865.781 23 866.333 23C866.886 23 867.333 22.5523 867.333 22Z" fill="url(#paint118_linear_121_4983)"/>
<path d="M873.333 24V14C873.333 13.4477 872.886 13 872.333 13C871.781 13 871.333 13.4477 871.333 14V24C871.333 24.5523 871.781 25 872.333 25C872.886 25 873.333 24.5523 873.333 24Z" fill="url(#paint119_linear_121_4983)"/>
<path d="M879.333 27V11C879.333 10.4477 878.886 10 878.333 10C877.781 10 877.333 10.4477 877.333 11V27C877.333 27.5523 877.781 28 878.333 28C878.886 28 879.333 27.5523 879.333 27Z" fill="url(#paint120_linear_121_4983)"/>
<path d="M885.333 24V14C885.333 13.4477 884.886 13 884.333 13C883.781 13 883.333 13.4477 883.333 14V24C883.333 24.5523 883.781 25 884.333 25C884.886 25 885.333 24.5523 885.333 24Z" fill="url(#paint121_linear_121_4983)"/>
<path d="M891.333 24V14C891.333 13.4477 890.886 13 890.333 13C889.781 13 889.333 13.4477 889.333 14V24C889.333 24.5523 889.781 25 890.333 25C890.886 25 891.333 24.5523 891.333 24Z" fill="url(#paint122_linear_121_4983)"/>
<path d="M897.333 22V16C897.333 15.4477 896.886 15 896.333 15C895.781 15 895.333 15.4477 895.333 16V22C895.333 22.5523 895.781 23 896.333 23C896.886 23 897.333 22.5523 897.333 22Z" fill="url(#paint123_linear_121_4983)"/>
<path d="M903.333 24V14C903.333 13.4477 902.886 13 902.333 13C901.781 13 901.333 13.4477 901.333 14V24C901.333 24.5523 901.781 25 902.333 25C902.886 25 903.333 24.5523 903.333 24Z" fill="url(#paint124_linear_121_4983)"/>
<path d="M909.333 24V14C909.333 13.4477 908.886 13 908.333 13C907.781 13 907.333 13.4477 907.333 14V24C907.333 24.5523 907.781 25 908.333 25C908.886 25 909.333 24.5523 909.333 24Z" fill="url(#paint125_linear_121_4983)"/>
<path d="M939.667 22V16C939.667 15.4477 939.219 15 938.667 15C938.114 15 937.667 15.4477 937.667 16V22C937.667 22.5523 938.114 23 938.667 23C939.219 23 939.667 22.5523 939.667 22Z" fill="url(#paint126_linear_121_4983)"/>
<path d="M945.667 22V16C945.667 15.4477 945.219 15 944.667 15C944.114 15 943.667 15.4477 943.667 16V22C943.667 22.5523 944.114 23 944.667 23C945.219 23 945.667 22.5523 945.667 22Z" fill="url(#paint127_linear_121_4983)"/>
<path d="M951.667 24V14C951.667 13.4477 951.219 13 950.667 13C950.114 13 949.667 13.4477 949.667 14V24C949.667 24.5523 950.114 25 950.667 25C951.219 25 951.667 24.5523 951.667 24Z" fill="url(#paint128_linear_121_4983)"/>
<path d="M957.667 24V14C957.667 13.4477 957.219 13 956.667 13C956.114 13 955.667 13.4477 955.667 14V24C955.667 24.5523 956.114 25 956.667 25C957.219 25 957.667 24.5523 957.667 24Z" fill="url(#paint129_linear_121_4983)"/>
<path d="M963.667 27V11C963.667 10.4477 963.219 10 962.667 10C962.114 10 961.667 10.4477 961.667 11V27C961.667 27.5523 962.114 28 962.667 28C963.219 28 963.667 27.5523 963.667 27Z" fill="url(#paint130_linear_121_4983)"/>
<path d="M969.667 29V9C969.667 8.44772 969.219 8 968.667 8C968.114 8 967.667 8.44772 967.667 9V29C967.667 29.5523 968.114 30 968.667 30C969.219 30 969.667 29.5523 969.667 29Z" fill="url(#paint131_linear_121_4983)"/>
<path d="M975.667 29V9C975.667 8.44772 975.219 8 974.667 8C974.114 8 973.667 8.44772 973.667 9V29C973.667 29.5523 974.114 30 974.667 30C975.219 30 975.667 29.5523 975.667 29Z" fill="url(#paint132_linear_121_4983)"/>
<path d="M981.667 31V7C981.667 6.44772 981.219 6 980.667 6H980.667C980.114 6 979.667 6.44772 979.667 7V31C979.667 31.5523 980.114 32 980.667 32C981.219 32 981.667 31.5523 981.667 31Z" fill="url(#paint133_linear_121_4983)"/>
<path d="M987.667 37V1C987.667 0.447715 987.219 0 986.667 0C986.114 0 985.667 0.447715 985.667 1V37C985.667 37.5523 986.114 38 986.667 38C987.219 38 987.667 37.5523 987.667 37Z" fill="url(#paint134_linear_121_4983)"/>
<path d="M993.667 34V4C993.667 3.44772 993.219 3 992.667 3L992.667 3C992.114 3 991.667 3.44772 991.667 4V34C991.667 34.5523 992.114 35 992.667 35C993.219 35 993.667 34.5523 993.667 34Z" fill="url(#paint135_linear_121_4983)"/>
<path d="M999.667 31V7C999.667 6.44772 999.219 6 998.667 6H998.667C998.114 6 997.667 6.44772 997.667 7V31C997.667 31.5523 998.114 32 998.667 32C999.219 32 999.667 31.5523 999.667 31Z" fill="url(#paint136_linear_121_4983)"/>
<path d="M1005.67 27V11C1005.67 10.4477 1005.22 10 1004.67 10C1004.11 10 1003.67 10.4477 1003.67 11V27C1003.67 27.5523 1004.11 28 1004.67 28C1005.22 28 1005.67 27.5523 1005.67 27Z" fill="url(#paint137_linear_121_4983)"/>
<path d="M1011.67 24V14C1011.67 13.4477 1011.22 13 1010.67 13C1010.11 13 1009.67 13.4477 1009.67 14V24C1009.67 24.5523 1010.11 25 1010.67 25C1011.22 25 1011.67 24.5523 1011.67 24Z" fill="url(#paint138_linear_121_4983)"/>
<path d="M1017.67 24V14C1017.67 13.4477 1017.22 13 1016.67 13C1016.11 13 1015.67 13.4477 1015.67 14V24C1015.67 24.5523 1016.11 25 1016.67 25C1017.22 25 1017.67 24.5523 1017.67 24Z" fill="url(#paint139_linear_121_4983)"/>
<path d="M1023.67 22V16C1023.67 15.4477 1023.22 15 1022.67 15C1022.11 15 1021.67 15.4477 1021.67 16V22C1021.67 22.5523 1022.11 23 1022.67 23C1023.22 23 1023.67 22.5523 1023.67 22Z" fill="url(#paint140_linear_121_4983)"/>
<path d="M1029.67 22V16C1029.67 15.4477 1029.22 15 1028.67 15C1028.11 15 1027.67 15.4477 1027.67 16V22C1027.67 22.5523 1028.11 23 1028.67 23C1029.22 23 1029.67 22.5523 1029.67 22Z" fill="url(#paint141_linear_121_4983)"/>
<path d="M1035.67 24V14C1035.67 13.4477 1035.22 13 1034.67 13C1034.11 13 1033.67 13.4477 1033.67 14V24C1033.67 24.5523 1034.11 25 1034.67 25C1035.22 25 1035.67 24.5523 1035.67 24Z" fill="url(#paint142_linear_121_4983)"/>
<path d="M1041.67 27V11C1041.67 10.4477 1041.22 10 1040.67 10C1040.11 10 1039.67 10.4477 1039.67 11V27C1039.67 27.5523 1040.11 28 1040.67 28C1041.22 28 1041.67 27.5523 1041.67 27Z" fill="url(#paint143_linear_121_4983)"/>
<path d="M1047.67 24V14C1047.67 13.4477 1047.22 13 1046.67 13C1046.11 13 1045.67 13.4477 1045.67 14V24C1045.67 24.5523 1046.11 25 1046.67 25C1047.22 25 1047.67 24.5523 1047.67 24Z" fill="url(#paint144_linear_121_4983)"/>
<path d="M1053.67 22V16C1053.67 15.4477 1053.22 15 1052.67 15C1052.11 15 1051.67 15.4477 1051.67 16V22C1051.67 22.5523 1052.11 23 1052.67 23C1053.22 23 1053.67 22.5523 1053.67 22Z" fill="url(#paint145_linear_121_4983)"/>
<path d="M1059.67 22V16C1059.67 15.4477 1059.22 15 1058.67 15C1058.11 15 1057.67 15.4477 1057.67 16V22C1057.67 22.5523 1058.11 23 1058.67 23C1059.22 23 1059.67 22.5523 1059.67 22Z" fill="url(#paint146_linear_121_4983)"/>
<path d="M1065.67 24V14C1065.67 13.4477 1065.22 13 1064.67 13C1064.11 13 1063.67 13.4477 1063.67 14V24C1063.67 24.5523 1064.11 25 1064.67 25C1065.22 25 1065.67 24.5523 1065.67 24Z" fill="url(#paint147_linear_121_4983)"/>
<path d="M1071.67 22V16C1071.67 15.4477 1071.22 15 1070.67 15C1070.11 15 1069.67 15.4477 1069.67 16V22C1069.67 22.5523 1070.11 23 1070.67 23C1071.22 23 1071.67 22.5523 1071.67 22Z" fill="url(#paint148_linear_121_4983)"/>
<path d="M1077.67 24V14C1077.67 13.4477 1077.22 13 1076.67 13C1076.11 13 1075.67 13.4477 1075.67 14V24C1075.67 24.5523 1076.11 25 1076.67 25C1077.22 25 1077.67 24.5523 1077.67 24Z" fill="url(#paint149_linear_121_4983)"/>
<path d="M1083.67 24V14C1083.67 13.4477 1083.22 13 1082.67 13C1082.11 13 1081.67 13.4477 1081.67 14V24C1081.67 24.5523 1082.11 25 1082.67 25C1083.22 25 1083.67 24.5523 1083.67 24Z" fill="url(#paint150_linear_121_4983)"/>
<path d="M1089.67 22V16C1089.67 15.4477 1089.22 15 1088.67 15C1088.11 15 1087.67 15.4477 1087.67 16V22C1087.67 22.5523 1088.11 23 1088.67 23C1089.22 23 1089.67 22.5523 1089.67 22Z" fill="url(#paint151_linear_121_4983)"/>
<path d="M1095.67 22V16C1095.67 15.4477 1095.22 15 1094.67 15C1094.11 15 1093.67 15.4477 1093.67 16V22C1093.67 22.5523 1094.11 23 1094.67 23C1095.22 23 1095.67 22.5523 1095.67 22Z" fill="url(#paint152_linear_121_4983)"/>
<path d="M1126 22V16C1126 15.4477 1125.55 15 1125 15C1124.45 15 1124 15.4477 1124 16V22C1124 22.5523 1124.45 23 1125 23C1125.55 23 1126 22.5523 1126 22Z" fill="url(#paint153_linear_121_4983)"/>
<path d="M1132 22V16C1132 15.4477 1131.55 15 1131 15C1130.45 15 1130 15.4477 1130 16V22C1130 22.5523 1130.45 23 1131 23C1131.55 23 1132 22.5523 1132 22Z" fill="url(#paint154_linear_121_4983)"/>
<path d="M1138 22V16C1138 15.4477 1137.55 15 1137 15C1136.45 15 1136 15.4477 1136 16V22C1136 22.5523 1136.45 23 1137 23C1137.55 23 1138 22.5523 1138 22Z" fill="url(#paint155_linear_121_4983)"/>
<path d="M3.45789 20L1136.54 20C1137.9 20 1139 19.5523 1139 19C1139 18.4477 1137.9 18 1136.54 18L3.45789 18C2.10046 18 1 18.4477 1 19C1 19.5523 2.10046 20 3.45789 20Z" fill="url(#paint156_linear_121_4983)"/>
<path d="M2.45789 20L1135.54 20C1136.9 20 1138 19.5523 1138 19C1138 18.4477 1136.9 18 1135.54 18L2.45789 18C1.10046 18 0 18.4477 0 19C0 19.5523 1.10046 20 2.45789 20Z" fill="url(#paint157_linear_121_4983)"/>
</g>
<defs>
<linearGradient id="paint0_linear_121_4983" x1="1138" y1="19.2252" x2="1.12804e-05" y2="19.2367" gradientUnits="userSpaceOnUse">
<stop stop-color="#9A1A51"/>
<stop offset="0.837037" stop-color="#631F89"/>
</linearGradient>
<linearGradient id="paint1_linear_121_4983" x1="356" y1="19.2252" x2="3.56238e-09" y2="19.2263" gradientUnits="userSpaceOnUse">
<stop stop-color="#9A1A51"/>
<stop offset="0.837037" stop-color="#631F89"/>
</linearGradient>
<linearGradient id="paint2_linear_121_4983" x1="1.2252" y1="15" x2="1.2252" y2="23" gradientUnits="userSpaceOnUse">
<stop stop-color="#9A1A51"/>
<stop offset="0.837037" stop-color="#631F89"/>
</linearGradient>
<linearGradient id="paint3_linear_121_4983" x1="25.2252" y1="13" x2="25.2252" y2="25" gradientUnits="userSpaceOnUse">
<stop stop-color="#9A1A51"/>
<stop offset="0.837037" stop-color="#631F89"/>
</linearGradient>
<linearGradient id="paint4_linear_121_4983" x1="31.2252" y1="13" x2="31.2252" y2="25" gradientUnits="userSpaceOnUse">
<stop stop-color="#9A1A51"/>
<stop offset="0.837037" stop-color="#631F89"/>
</linearGradient>
<linearGradient id="paint5_linear_121_4983" x1="37.2252" y1="15" x2="37.2252" y2="23" gradientUnits="userSpaceOnUse">
<stop stop-color="#9A1A51"/>
<stop offset="0.837037" stop-color="#631F89"/>
</linearGradient>
<linearGradient id="paint6_linear_121_4983" x1="43.2252" y1="15" x2="43.2252" y2="23" gradientUnits="userSpaceOnUse">
<stop stop-color="#9A1A51"/>
<stop offset="0.837037" stop-color="#631F89"/>
</linearGradient>
<linearGradient id="paint7_linear_121_4983" x1="49.2252" y1="11" x2="49.2252" y2="27" gradientUnits="userSpaceOnUse">
<stop stop-color="#9A1A51"/>
<stop offset="0.837037" stop-color="#631F89"/>
</linearGradient>
<linearGradient id="paint8_linear_121_4983" x1="55.2252" y1="15" x2="55.2252" y2="23" gradientUnits="userSpaceOnUse">
<stop stop-color="#9A1A51"/>
<stop offset="0.837037" stop-color="#631F89"/>
</linearGradient>
<linearGradient id="paint9_linear_121_4983" x1="61.2252" y1="11" x2="61.2252" y2="27" gradientUnits="userSpaceOnUse">
<stop stop-color="#9A1A51"/>
<stop offset="0.837037" stop-color="#631F89"/>
</linearGradient>
<linearGradient id="paint10_linear_121_4983" x1="67.2252" y1="13" x2="67.2252" y2="25" gradientUnits="userSpaceOnUse">
<stop stop-color="#9A1A51"/>
<stop offset="0.837037" stop-color="#631F89"/>
</linearGradient>
<linearGradient id="paint11_linear_121_4983" x1="73.2252" y1="15" x2="73.2252" y2="23" gradientUnits="userSpaceOnUse">
<stop stop-color="#9A1A51"/>
<stop offset="0.837037" stop-color="#631F89"/>
</linearGradient>
<linearGradient id="paint12_linear_121_4983" x1="79.2252" y1="15" x2="79.2252" y2="23" gradientUnits="userSpaceOnUse">
<stop stop-color="#9A1A51"/>
<stop offset="0.837037" stop-color="#631F89"/>
</linearGradient>
<linearGradient id="paint13_linear_121_4983" x1="103.225" y1="15" x2="103.225" y2="23" gradientUnits="userSpaceOnUse">
<stop stop-color="#9A1A51"/>
<stop offset="0.837037" stop-color="#631F89"/>
</linearGradient>
<linearGradient id="paint14_linear_121_4983" x1="109.225" y1="13" x2="109.225" y2="25" gradientUnits="userSpaceOnUse">
<stop stop-color="#9A1A51"/>
<stop offset="0.837037" stop-color="#631F89"/>
</linearGradient>
<linearGradient id="paint15_linear_121_4983" x1="115.225" y1="13" x2="115.225" y2="25" gradientUnits="userSpaceOnUse">
<stop stop-color="#9A1A51"/>
<stop offset="0.837037" stop-color="#631F89"/>
</linearGradient>
<linearGradient id="paint16_linear_121_4983" x1="121.225" y1="13" x2="121.225" y2="25" gradientUnits="userSpaceOnUse">
<stop stop-color="#9A1A51"/>
<stop offset="0.837037" stop-color="#631F89"/>
</linearGradient>
<linearGradient id="paint17_linear_121_4983" x1="127.225" y1="9" x2="127.225" y2="29" gradientUnits="userSpaceOnUse">
<stop stop-color="#9A1A51"/>
<stop offset="0.837037" stop-color="#631F89"/>
</linearGradient>
<linearGradient id="paint18_linear_121_4983" x1="133.225" y1="13" x2="133.225" y2="25" gradientUnits="userSpaceOnUse">
<stop stop-color="#9A1A51"/>
<stop offset="0.837037" stop-color="#631F89"/>
</linearGradient>
<linearGradient id="paint19_linear_121_4983" x1="139.225" y1="13" x2="139.225" y2="25" gradientUnits="userSpaceOnUse">
<stop stop-color="#9A1A51"/>
<stop offset="0.837037" stop-color="#631F89"/>
</linearGradient>
<linearGradient id="paint20_linear_121_4983" x1="145.225" y1="13" x2="145.225" y2="25" gradientUnits="userSpaceOnUse">
<stop stop-color="#9A1A51"/>
<stop offset="0.837037" stop-color="#631F89"/>
</linearGradient>
<linearGradient id="paint21_linear_121_4983" x1="151.225" y1="9" x2="151.225" y2="29" gradientUnits="userSpaceOnUse">
<stop stop-color="#9A1A51"/>
<stop offset="0.837037" stop-color="#631F89"/>
</linearGradient>
<linearGradient id="paint22_linear_121_4983" x1="157.225" y1="13" x2="157.225" y2="25" gradientUnits="userSpaceOnUse">
<stop stop-color="#9A1A51"/>
<stop offset="0.837037" stop-color="#631F89"/>
</linearGradient>
<linearGradient id="paint23_linear_121_4983" x1="163.225" y1="13" x2="163.225" y2="25" gradientUnits="userSpaceOnUse">
<stop stop-color="#9A1A51"/>
<stop offset="0.837037" stop-color="#631F89"/>
</linearGradient>
<linearGradient id="paint24_linear_121_4983" x1="169.225" y1="13" x2="169.225" y2="25" gradientUnits="userSpaceOnUse">
<stop stop-color="#9A1A51"/>
<stop offset="0.837037" stop-color="#631F89"/>
</linearGradient>
<linearGradient id="paint25_linear_121_4983" x1="175.225" y1="9" x2="175.225" y2="29" gradientUnits="userSpaceOnUse">
<stop stop-color="#9A1A51"/>
<stop offset="0.837037" stop-color="#631F89"/>
</linearGradient>
<linearGradient id="paint26_linear_121_4983" x1="181.225" y1="13" x2="181.225" y2="25" gradientUnits="userSpaceOnUse">
<stop stop-color="#9A1A51"/>
<stop offset="0.837037" stop-color="#631F89"/>
</linearGradient>
<linearGradient id="paint27_linear_121_4983" x1="187.225" y1="15" x2="187.225" y2="23" gradientUnits="userSpaceOnUse">
<stop stop-color="#9A1A51"/>
<stop offset="0.837037" stop-color="#631F89"/>
</linearGradient>
<linearGradient id="paint28_linear_121_4983" x1="193.225" y1="15" x2="193.225" y2="23" gradientUnits="userSpaceOnUse">
<stop stop-color="#9A1A51"/>
<stop offset="0.837037" stop-color="#631F89"/>
</linearGradient>
<linearGradient id="paint29_linear_121_4983" x1="199.225" y1="15" x2="199.225" y2="23" gradientUnits="userSpaceOnUse">
<stop stop-color="#9A1A51"/>
<stop offset="0.837037" stop-color="#631F89"/>
</linearGradient>
<linearGradient id="paint30_linear_121_4983" x1="205.225" y1="15" x2="205.225" y2="23" gradientUnits="userSpaceOnUse">
<stop stop-color="#9A1A51"/>
<stop offset="0.837037" stop-color="#631F89"/>
</linearGradient>
<linearGradient id="paint31_linear_121_4983" x1="229.225" y1="15" x2="229.225" y2="23" gradientUnits="userSpaceOnUse">
<stop stop-color="#9A1A51"/>
<stop offset="0.837037" stop-color="#631F89"/>
</linearGradient>
<linearGradient id="paint32_linear_121_4983" x1="235.225" y1="13" x2="235.225" y2="25" gradientUnits="userSpaceOnUse">
<stop stop-color="#9A1A51"/>
<stop offset="0.837037" stop-color="#631F89"/>
</linearGradient>
<linearGradient id="paint33_linear_121_4983" x1="241.225" y1="9" x2="241.225" y2="29" gradientUnits="userSpaceOnUse">
<stop stop-color="#9A1A51"/>
<stop offset="0.837037" stop-color="#631F89"/>
</linearGradient>
<linearGradient id="paint34_linear_121_4983" x1="247.225" y1="13" x2="247.225" y2="25" gradientUnits="userSpaceOnUse">
<stop stop-color="#9A1A51"/>
<stop offset="0.837037" stop-color="#631F89"/>
</linearGradient>
<linearGradient id="paint35_linear_121_4983" x1="253.225" y1="15" x2="253.225" y2="23" gradientUnits="userSpaceOnUse">
<stop stop-color="#9A1A51"/>
<stop offset="0.837037" stop-color="#631F89"/>
</linearGradient>
<linearGradient id="paint36_linear_121_4983" x1="277.225" y1="15" x2="277.225" y2="23" gradientUnits="userSpaceOnUse">
<stop stop-color="#9A1A51"/>
<stop offset="0.837037" stop-color="#631F89"/>
</linearGradient>
<linearGradient id="paint37_linear_121_4983" x1="283.225" y1="15" x2="283.225" y2="23" gradientUnits="userSpaceOnUse">
<stop stop-color="#9A1A51"/>
<stop offset="0.837037" stop-color="#631F89"/>
</linearGradient>
<linearGradient id="paint38_linear_121_4983" x1="289.225" y1="13" x2="289.225" y2="25" gradientUnits="userSpaceOnUse">
<stop stop-color="#9A1A51"/>
<stop offset="0.837037" stop-color="#631F89"/>
</linearGradient>
<linearGradient id="paint39_linear_121_4983" x1="295.225" y1="10" x2="295.225" y2="28" gradientUnits="userSpaceOnUse">
<stop stop-color="#9A1A51"/>
<stop offset="0.837037" stop-color="#631F89"/>
</linearGradient>
<linearGradient id="paint40_linear_121_4983" x1="301.225" y1="15" x2="301.225" y2="23" gradientUnits="userSpaceOnUse">
<stop stop-color="#9A1A51"/>
<stop offset="0.837037" stop-color="#631F89"/>
</linearGradient>
<linearGradient id="paint41_linear_121_4983" x1="307.225" y1="10" x2="307.225" y2="28" gradientUnits="userSpaceOnUse">
<stop stop-color="#9A1A51"/>
<stop offset="0.837037" stop-color="#631F89"/>
</linearGradient>
<linearGradient id="paint42_linear_121_4983" x1="313.225" y1="10" x2="313.225" y2="28" gradientUnits="userSpaceOnUse">
<stop stop-color="#9A1A51"/>
<stop offset="0.837037" stop-color="#631F89"/>
</linearGradient>
<linearGradient id="paint43_linear_121_4983" x1="319.225" y1="6" x2="319.225" y2="32" gradientUnits="userSpaceOnUse">
<stop stop-color="#9A1A51"/>
<stop offset="0.837037" stop-color="#631F89"/>
</linearGradient>
<linearGradient id="paint44_linear_121_4983" x1="325.225" y1="6" x2="325.225" y2="32" gradientUnits="userSpaceOnUse">
<stop stop-color="#9A1A51"/>
<stop offset="0.837037" stop-color="#631F89"/>
</linearGradient>
<linearGradient id="paint45_linear_121_4983" x1="331.225" y1="0" x2="331.225" y2="38" gradientUnits="userSpaceOnUse">
<stop stop-color="#9A1A51"/>
<stop offset="0.837037" stop-color="#631F89"/>
</linearGradient>
<linearGradient id="paint46_linear_121_4983" x1="337.225" y1="9" x2="337.225" y2="29" gradientUnits="userSpaceOnUse">
<stop stop-color="#9A1A51"/>
<stop offset="0.837037" stop-color="#631F89"/>
</linearGradient>
<linearGradient id="paint47_linear_121_4983" x1="343.225" y1="13" x2="343.225" y2="25" gradientUnits="userSpaceOnUse">
<stop stop-color="#9A1A51"/>
<stop offset="0.837037" stop-color="#631F89"/>
</linearGradient>
<linearGradient id="paint48_linear_121_4983" x1="349.225" y1="15" x2="349.225" y2="23" gradientUnits="userSpaceOnUse">
<stop stop-color="#9A1A51"/>
<stop offset="0.837037" stop-color="#631F89"/>
</linearGradient>
<linearGradient id="paint49_linear_121_4983" x1="379.558" y1="15" x2="379.558" y2="23" gradientUnits="userSpaceOnUse">
<stop stop-color="#9A1A51"/>
<stop offset="0.837037" stop-color="#631F89"/>
</linearGradient>
<linearGradient id="paint50_linear_121_4983" x1="385.558" y1="11" x2="385.558" y2="27" gradientUnits="userSpaceOnUse">
<stop stop-color="#9A1A51"/>
<stop offset="0.837037" stop-color="#631F89"/>
</linearGradient>
<linearGradient id="paint51_linear_121_4983" x1="391.558" y1="13" x2="391.558" y2="25" gradientUnits="userSpaceOnUse">
<stop stop-color="#9A1A51"/>
<stop offset="0.837037" stop-color="#631F89"/>
</linearGradient>
<linearGradient id="paint52_linear_121_4983" x1="397.558" y1="15" x2="397.558" y2="23" gradientUnits="userSpaceOnUse">
<stop stop-color="#9A1A51"/>
<stop offset="0.837037" stop-color="#631F89"/>
</linearGradient>
<linearGradient id="paint53_linear_121_4983" x1="403.558" y1="15" x2="403.558" y2="23" gradientUnits="userSpaceOnUse">
<stop stop-color="#9A1A51"/>
<stop offset="0.837037" stop-color="#631F89"/>
</linearGradient>
<linearGradient id="paint54_linear_121_4983" x1="409.558" y1="13" x2="409.558" y2="25" gradientUnits="userSpaceOnUse">
<stop stop-color="#9A1A51"/>
<stop offset="0.837037" stop-color="#631F89"/>
</linearGradient>
<linearGradient id="paint55_linear_121_4983" x1="415.558" y1="15" x2="415.558" y2="23" gradientUnits="userSpaceOnUse">
<stop stop-color="#9A1A51"/>
<stop offset="0.837037" stop-color="#631F89"/>
</linearGradient>
<linearGradient id="paint56_linear_121_4983" x1="421.558" y1="9" x2="421.558" y2="29" gradientUnits="userSpaceOnUse">
<stop stop-color="#9A1A51"/>
<stop offset="0.837037" stop-color="#631F89"/>
</linearGradient>
<linearGradient id="paint57_linear_121_4983" x1="427.558" y1="13" x2="427.558" y2="25" gradientUnits="userSpaceOnUse">
<stop stop-color="#9A1A51"/>
<stop offset="0.837037" stop-color="#631F89"/>
</linearGradient>
<linearGradient id="paint58_linear_121_4983" x1="433.558" y1="15" x2="433.558" y2="23" gradientUnits="userSpaceOnUse">
<stop stop-color="#9A1A51"/>
<stop offset="0.837037" stop-color="#631F89"/>
</linearGradient>
<linearGradient id="paint59_linear_121_4983" x1="439.558" y1="13" x2="439.558" y2="25" gradientUnits="userSpaceOnUse">
<stop stop-color="#9A1A51"/>
<stop offset="0.837037" stop-color="#631F89"/>
</linearGradient>
<linearGradient id="paint60_linear_121_4983" x1="445.558" y1="13" x2="445.558" y2="25" gradientUnits="userSpaceOnUse">
<stop stop-color="#9A1A51"/>
<stop offset="0.837037" stop-color="#631F89"/>
</linearGradient>
<linearGradient id="paint61_linear_121_4983" x1="451.558" y1="13" x2="451.558" y2="25" gradientUnits="userSpaceOnUse">
<stop stop-color="#9A1A51"/>
<stop offset="0.837037" stop-color="#631F89"/>
</linearGradient>
<linearGradient id="paint62_linear_121_4983" x1="457.558" y1="10" x2="457.558" y2="28" gradientUnits="userSpaceOnUse">
<stop stop-color="#9A1A51"/>
<stop offset="0.837037" stop-color="#631F89"/>
</linearGradient>
<linearGradient id="paint63_linear_121_4983" x1="463.558" y1="10" x2="463.558" y2="28" gradientUnits="userSpaceOnUse">
<stop stop-color="#9A1A51"/>
<stop offset="0.837037" stop-color="#631F89"/>
</linearGradient>
<linearGradient id="paint64_linear_121_4983" x1="469.558" y1="13" x2="469.558" y2="25" gradientUnits="userSpaceOnUse">
<stop stop-color="#9A1A51"/>
<stop offset="0.837037" stop-color="#631F89"/>
</linearGradient>
<linearGradient id="paint65_linear_121_4983" x1="475.558" y1="13" x2="475.558" y2="25" gradientUnits="userSpaceOnUse">
<stop stop-color="#9A1A51"/>
<stop offset="0.837037" stop-color="#631F89"/>
</linearGradient>
<linearGradient id="paint66_linear_121_4983" x1="481.558" y1="10" x2="481.558" y2="28" gradientUnits="userSpaceOnUse">
<stop stop-color="#9A1A51"/>
<stop offset="0.837037" stop-color="#631F89"/>
</linearGradient>
<linearGradient id="paint67_linear_121_4983" x1="487.558" y1="15" x2="487.558" y2="23" gradientUnits="userSpaceOnUse">
<stop stop-color="#9A1A51"/>
<stop offset="0.837037" stop-color="#631F89"/>
</linearGradient>
<linearGradient id="paint68_linear_121_4983" x1="493.558" y1="13" x2="493.558" y2="25" gradientUnits="userSpaceOnUse">
<stop stop-color="#9A1A51"/>
<stop offset="0.837037" stop-color="#631F89"/>
</linearGradient>
<linearGradient id="paint69_linear_121_4983" x1="499.558" y1="10" x2="499.558" y2="28" gradientUnits="userSpaceOnUse">
<stop stop-color="#9A1A51"/>
<stop offset="0.837037" stop-color="#631F89"/>
</linearGradient>
<linearGradient id="paint70_linear_121_4983" x1="505.558" y1="15" x2="505.558" y2="23" gradientUnits="userSpaceOnUse">
<stop stop-color="#9A1A51"/>
<stop offset="0.837037" stop-color="#631F89"/>
</linearGradient>
<linearGradient id="paint71_linear_121_4983" x1="535.892" y1="15" x2="535.892" y2="23" gradientUnits="userSpaceOnUse">
<stop stop-color="#9A1A51"/>
<stop offset="0.837037" stop-color="#631F89"/>
</linearGradient>
<linearGradient id="paint72_linear_121_4983" x1="541.892" y1="13" x2="541.892" y2="25" gradientUnits="userSpaceOnUse">
<stop stop-color="#9A1A51"/>
<stop offset="0.837037" stop-color="#631F89"/>
</linearGradient>
<linearGradient id="paint73_linear_121_4983" x1="547.892" y1="15" x2="547.892" y2="23" gradientUnits="userSpaceOnUse">
<stop stop-color="#9A1A51"/>
<stop offset="0.837037" stop-color="#631F89"/>
</linearGradient>
<linearGradient id="paint74_linear_121_4983" x1="553.892" y1="13" x2="553.892" y2="25" gradientUnits="userSpaceOnUse">
<stop stop-color="#9A1A51"/>
<stop offset="0.837037" stop-color="#631F89"/>
</linearGradient>
<linearGradient id="paint75_linear_121_4983" x1="559.892" y1="13" x2="559.892" y2="25" gradientUnits="userSpaceOnUse">
<stop stop-color="#9A1A51"/>
<stop offset="0.837037" stop-color="#631F89"/>
</linearGradient>
<linearGradient id="paint76_linear_121_4983" x1="565.892" y1="15" x2="565.892" y2="23" gradientUnits="userSpaceOnUse">
<stop stop-color="#9A1A51"/>
<stop offset="0.837037" stop-color="#631F89"/>
</linearGradient>
<linearGradient id="paint77_linear_121_4983" x1="571.892" y1="15" x2="571.892" y2="23" gradientUnits="userSpaceOnUse">
<stop stop-color="#9A1A51"/>
<stop offset="0.837037" stop-color="#631F89"/>
</linearGradient>
<linearGradient id="paint78_linear_121_4983" x1="577.892" y1="15" x2="577.892" y2="23" gradientUnits="userSpaceOnUse">
<stop stop-color="#9A1A51"/>
<stop offset="0.837037" stop-color="#631F89"/>
</linearGradient>
<linearGradient id="paint79_linear_121_4983" x1="583.892" y1="13" x2="583.892" y2="25" gradientUnits="userSpaceOnUse">
<stop stop-color="#9A1A51"/>
<stop offset="0.837037" stop-color="#631F89"/>
</linearGradient>
<linearGradient id="paint80_linear_121_4983" x1="589.892" y1="10" x2="589.892" y2="28" gradientUnits="userSpaceOnUse">
<stop stop-color="#9A1A51"/>
<stop offset="0.837037" stop-color="#631F89"/>
</linearGradient>
<linearGradient id="paint81_linear_121_4983" x1="595.892" y1="13" x2="595.892" y2="25" gradientUnits="userSpaceOnUse">
<stop stop-color="#9A1A51"/>
<stop offset="0.837037" stop-color="#631F89"/>
</linearGradient>
<linearGradient id="paint82_linear_121_4983" x1="601.892" y1="10" x2="601.892" y2="28" gradientUnits="userSpaceOnUse">
<stop stop-color="#9A1A51"/>
<stop offset="0.837037" stop-color="#631F89"/>
</linearGradient>
<linearGradient id="paint83_linear_121_4983" x1="607.892" y1="15" x2="607.892" y2="23" gradientUnits="userSpaceOnUse">
<stop stop-color="#9A1A51"/>
<stop offset="0.837037" stop-color="#631F89"/>
</linearGradient>
<linearGradient id="paint84_linear_121_4983" x1="613.892" y1="13" x2="613.892" y2="25" gradientUnits="userSpaceOnUse">
<stop stop-color="#9A1A51"/>
<stop offset="0.837037" stop-color="#631F89"/>
</linearGradient>
<linearGradient id="paint85_linear_121_4983" x1="619.892" y1="15" x2="619.892" y2="23" gradientUnits="userSpaceOnUse">
<stop stop-color="#9A1A51"/>
<stop offset="0.837037" stop-color="#631F89"/>
</linearGradient>
<linearGradient id="paint86_linear_121_4983" x1="625.892" y1="13" x2="625.892" y2="25" gradientUnits="userSpaceOnUse">
<stop stop-color="#9A1A51"/>
<stop offset="0.837037" stop-color="#631F89"/>
</linearGradient>
<linearGradient id="paint87_linear_121_4983" x1="631.892" y1="15" x2="631.892" y2="23" gradientUnits="userSpaceOnUse">
<stop stop-color="#9A1A51"/>
<stop offset="0.837037" stop-color="#631F89"/>
</linearGradient>
<linearGradient id="paint88_linear_121_4983" x1="637.892" y1="10" x2="637.892" y2="28" gradientUnits="userSpaceOnUse">
<stop stop-color="#9A1A51"/>
<stop offset="0.837037" stop-color="#631F89"/>
</linearGradient>
<linearGradient id="paint89_linear_121_4983" x1="643.892" y1="13" x2="643.892" y2="25" gradientUnits="userSpaceOnUse">
<stop stop-color="#9A1A51"/>
<stop offset="0.837037" stop-color="#631F89"/>
</linearGradient>
<linearGradient id="paint90_linear_121_4983" x1="649.892" y1="10" x2="649.892" y2="28" gradientUnits="userSpaceOnUse">
<stop stop-color="#9A1A51"/>
<stop offset="0.837037" stop-color="#631F89"/>
</linearGradient>
<linearGradient id="paint91_linear_121_4983" x1="655.892" y1="10" x2="655.892" y2="28" gradientUnits="userSpaceOnUse">
<stop stop-color="#9A1A51"/>
<stop offset="0.837037" stop-color="#631F89"/>
</linearGradient>
<linearGradient id="paint92_linear_121_4983" x1="661.892" y1="10" x2="661.892" y2="28" gradientUnits="userSpaceOnUse">
<stop stop-color="#9A1A51"/>
<stop offset="0.837037" stop-color="#631F89"/>
</linearGradient>
<linearGradient id="paint93_linear_121_4983" x1="667.892" y1="7" x2="667.892" y2="31" gradientUnits="userSpaceOnUse">
<stop stop-color="#9A1A51"/>
<stop offset="0.837037" stop-color="#631F89"/>
</linearGradient>
<linearGradient id="paint94_linear_121_4983" x1="673.892" y1="4" x2="673.892" y2="34" gradientUnits="userSpaceOnUse">
<stop stop-color="#9A1A51"/>
<stop offset="0.837037" stop-color="#631F89"/>
</linearGradient>
<linearGradient id="paint95_linear_121_4983" x1="679.892" y1="-3.72736e-07" x2="679.892" y2="38" gradientUnits="userSpaceOnUse">
<stop stop-color="#9A1A51"/>
<stop offset="0.837037" stop-color="#631F89"/>
</linearGradient>
<linearGradient id="paint96_linear_121_4983" x1="685.892" y1="7" x2="685.892" y2="31" gradientUnits="userSpaceOnUse">
<stop stop-color="#9A1A51"/>
<stop offset="0.837037" stop-color="#631F89"/>
</linearGradient>
<linearGradient id="paint97_linear_121_4983" x1="691.892" y1="10" x2="691.892" y2="28" gradientUnits="userSpaceOnUse">
<stop stop-color="#9A1A51"/>
<stop offset="0.837037" stop-color="#631F89"/>
</linearGradient>
<linearGradient id="paint98_linear_121_4983" x1="697.892" y1="10" x2="697.892" y2="28" gradientUnits="userSpaceOnUse">
<stop stop-color="#9A1A51"/>
<stop offset="0.837037" stop-color="#631F89"/>
</linearGradient>
<linearGradient id="paint99_linear_121_4983" x1="703.892" y1="13" x2="703.892" y2="25" gradientUnits="userSpaceOnUse">
<stop stop-color="#9A1A51"/>
<stop offset="0.837037" stop-color="#631F89"/>
</linearGradient>
<linearGradient id="paint100_linear_121_4983" x1="709.892" y1="15" x2="709.892" y2="23" gradientUnits="userSpaceOnUse">
<stop stop-color="#9A1A51"/>
<stop offset="0.837037" stop-color="#631F89"/>
</linearGradient>
<linearGradient id="paint101_linear_121_4983" x1="715.892" y1="15" x2="715.892" y2="23" gradientUnits="userSpaceOnUse">
<stop stop-color="#9A1A51"/>
<stop offset="0.837037" stop-color="#631F89"/>
</linearGradient>
<linearGradient id="paint102_linear_121_4983" x1="721.892" y1="13" x2="721.892" y2="25" gradientUnits="userSpaceOnUse">
<stop stop-color="#9A1A51"/>
<stop offset="0.837037" stop-color="#631F89"/>
</linearGradient>
<linearGradient id="paint103_linear_121_4983" x1="727.892" y1="13" x2="727.892" y2="25" gradientUnits="userSpaceOnUse">
<stop stop-color="#9A1A51"/>
<stop offset="0.837037" stop-color="#631F89"/>
</linearGradient>
<linearGradient id="paint104_linear_121_4983" x1="733.892" y1="13" x2="733.892" y2="25" gradientUnits="userSpaceOnUse">
<stop stop-color="#9A1A51"/>
<stop offset="0.837037" stop-color="#631F89"/>
</linearGradient>
<linearGradient id="paint105_linear_121_4983" x1="739.892" y1="15" x2="739.892" y2="23" gradientUnits="userSpaceOnUse">
<stop stop-color="#9A1A51"/>
<stop offset="0.837037" stop-color="#631F89"/>
</linearGradient>
<linearGradient id="paint106_linear_121_4983" x1="770.225" y1="15" x2="770.225" y2="23" gradientUnits="userSpaceOnUse">
<stop stop-color="#9A1A51"/>
<stop offset="0.837037" stop-color="#631F89"/>
</linearGradient>
<linearGradient id="paint107_linear_121_4983" x1="776.225" y1="15" x2="776.225" y2="23" gradientUnits="userSpaceOnUse">
<stop stop-color="#9A1A51"/>
<stop offset="0.837037" stop-color="#631F89"/>
</linearGradient>
<linearGradient id="paint108_linear_121_4983" x1="782.225" y1="13" x2="782.225" y2="25" gradientUnits="userSpaceOnUse">
<stop stop-color="#9A1A51"/>
<stop offset="0.837037" stop-color="#631F89"/>
</linearGradient>
<linearGradient id="paint109_linear_121_4983" x1="788.225" y1="10" x2="788.225" y2="28" gradientUnits="userSpaceOnUse">
<stop stop-color="#9A1A51"/>
<stop offset="0.837037" stop-color="#631F89"/>
</linearGradient>
<linearGradient id="paint110_linear_121_4983" x1="794.225" y1="13" x2="794.225" y2="25" gradientUnits="userSpaceOnUse">
<stop stop-color="#9A1A51"/>
<stop offset="0.837037" stop-color="#631F89"/>
</linearGradient>
<linearGradient id="paint111_linear_121_4983" x1="800.225" y1="13" x2="800.225" y2="25" gradientUnits="userSpaceOnUse">
<stop stop-color="#9A1A51"/>
<stop offset="0.837037" stop-color="#631F89"/>
</linearGradient>
<linearGradient id="paint112_linear_121_4983" x1="806.225" y1="15" x2="806.225" y2="23" gradientUnits="userSpaceOnUse">
<stop stop-color="#9A1A51"/>
<stop offset="0.837037" stop-color="#631F89"/>
</linearGradient>
<linearGradient id="paint113_linear_121_4983" x1="812.225" y1="15" x2="812.225" y2="23" gradientUnits="userSpaceOnUse">
<stop stop-color="#9A1A51"/>
<stop offset="0.837037" stop-color="#631F89"/>
</linearGradient>
<linearGradient id="paint114_linear_121_4983" x1="842.558" y1="15" x2="842.558" y2="23" gradientUnits="userSpaceOnUse">
<stop stop-color="#9A1A51"/>
<stop offset="0.837037" stop-color="#631F89"/>
</linearGradient>
<linearGradient id="paint115_linear_121_4983" x1="848.558" y1="13" x2="848.558" y2="25" gradientUnits="userSpaceOnUse">
<stop stop-color="#9A1A51"/>
<stop offset="0.837037" stop-color="#631F89"/>
</linearGradient>
<linearGradient id="paint116_linear_121_4983" x1="854.558" y1="13" x2="854.558" y2="25" gradientUnits="userSpaceOnUse">
<stop stop-color="#9A1A51"/>
<stop offset="0.837037" stop-color="#631F89"/>
</linearGradient>
<linearGradient id="paint117_linear_121_4983" x1="860.558" y1="15" x2="860.558" y2="23" gradientUnits="userSpaceOnUse">
<stop stop-color="#9A1A51"/>
<stop offset="0.837037" stop-color="#631F89"/>
</linearGradient>
<linearGradient id="paint118_linear_121_4983" x1="866.558" y1="15" x2="866.558" y2="23" gradientUnits="userSpaceOnUse">
<stop stop-color="#9A1A51"/>
<stop offset="0.837037" stop-color="#631F89"/>
</linearGradient>
<linearGradient id="paint119_linear_121_4983" x1="872.558" y1="13" x2="872.558" y2="25" gradientUnits="userSpaceOnUse">
<stop stop-color="#9A1A51"/>
<stop offset="0.837037" stop-color="#631F89"/>
</linearGradient>
<linearGradient id="paint120_linear_121_4983" x1="878.558" y1="10" x2="878.558" y2="28" gradientUnits="userSpaceOnUse">
<stop stop-color="#9A1A51"/>
<stop offset="0.837037" stop-color="#631F89"/>
</linearGradient>
<linearGradient id="paint121_linear_121_4983" x1="884.558" y1="13" x2="884.558" y2="25" gradientUnits="userSpaceOnUse">
<stop stop-color="#9A1A51"/>
<stop offset="0.837037" stop-color="#631F89"/>
</linearGradient>
<linearGradient id="paint122_linear_121_4983" x1="890.558" y1="13" x2="890.558" y2="25" gradientUnits="userSpaceOnUse">
<stop stop-color="#9A1A51"/>
<stop offset="0.837037" stop-color="#631F89"/>
</linearGradient>
<linearGradient id="paint123_linear_121_4983" x1="896.558" y1="15" x2="896.558" y2="23" gradientUnits="userSpaceOnUse">
<stop stop-color="#9A1A51"/>
<stop offset="0.837037" stop-color="#631F89"/>
</linearGradient>
<linearGradient id="paint124_linear_121_4983" x1="902.558" y1="13" x2="902.558" y2="25" gradientUnits="userSpaceOnUse">
<stop stop-color="#9A1A51"/>
<stop offset="0.837037" stop-color="#631F89"/>
</linearGradient>
<linearGradient id="paint125_linear_121_4983" x1="908.558" y1="13" x2="908.558" y2="25" gradientUnits="userSpaceOnUse">
<stop stop-color="#9A1A51"/>
<stop offset="0.837037" stop-color="#631F89"/>
</linearGradient>
<linearGradient id="paint126_linear_121_4983" x1="938.892" y1="15" x2="938.892" y2="23" gradientUnits="userSpaceOnUse">
<stop stop-color="#9A1A51"/>
<stop offset="0.837037" stop-color="#631F89"/>
</linearGradient>
<linearGradient id="paint127_linear_121_4983" x1="944.892" y1="15" x2="944.892" y2="23" gradientUnits="userSpaceOnUse">
<stop stop-color="#9A1A51"/>
<stop offset="0.837037" stop-color="#631F89"/>
</linearGradient>
<linearGradient id="paint128_linear_121_4983" x1="950.892" y1="13" x2="950.892" y2="25" gradientUnits="userSpaceOnUse">
<stop stop-color="#9A1A51"/>
<stop offset="0.837037" stop-color="#631F89"/>
</linearGradient>
<linearGradient id="paint129_linear_121_4983" x1="956.892" y1="13" x2="956.892" y2="25" gradientUnits="userSpaceOnUse">
<stop stop-color="#9A1A51"/>
<stop offset="0.837037" stop-color="#631F89"/>
</linearGradient>
<linearGradient id="paint130_linear_121_4983" x1="962.892" y1="10" x2="962.892" y2="28" gradientUnits="userSpaceOnUse">
<stop stop-color="#9A1A51"/>
<stop offset="0.837037" stop-color="#631F89"/>
</linearGradient>
<linearGradient id="paint131_linear_121_4983" x1="968.892" y1="8" x2="968.892" y2="30" gradientUnits="userSpaceOnUse">
<stop stop-color="#9A1A51"/>
<stop offset="0.837037" stop-color="#631F89"/>
</linearGradient>
<linearGradient id="paint132_linear_121_4983" x1="974.892" y1="8" x2="974.892" y2="30" gradientUnits="userSpaceOnUse">
<stop stop-color="#9A1A51"/>
<stop offset="0.837037" stop-color="#631F89"/>
</linearGradient>
<linearGradient id="paint133_linear_121_4983" x1="980.892" y1="6" x2="980.892" y2="32" gradientUnits="userSpaceOnUse">
<stop stop-color="#9A1A51"/>
<stop offset="0.837037" stop-color="#631F89"/>
</linearGradient>
<linearGradient id="paint134_linear_121_4983" x1="986.892" y1="-3.72736e-07" x2="986.892" y2="38" gradientUnits="userSpaceOnUse">
<stop stop-color="#9A1A51"/>
<stop offset="0.837037" stop-color="#631F89"/>
</linearGradient>
<linearGradient id="paint135_linear_121_4983" x1="992.892" y1="3" x2="992.892" y2="35" gradientUnits="userSpaceOnUse">
<stop stop-color="#9A1A51"/>
<stop offset="0.837037" stop-color="#631F89"/>
</linearGradient>
<linearGradient id="paint136_linear_121_4983" x1="998.892" y1="6" x2="998.892" y2="32" gradientUnits="userSpaceOnUse">
<stop stop-color="#9A1A51"/>
<stop offset="0.837037" stop-color="#631F89"/>
</linearGradient>
<linearGradient id="paint137_linear_121_4983" x1="1004.89" y1="10" x2="1004.89" y2="28" gradientUnits="userSpaceOnUse">
<stop stop-color="#9A1A51"/>
<stop offset="0.837037" stop-color="#631F89"/>
</linearGradient>
<linearGradient id="paint138_linear_121_4983" x1="1010.89" y1="13" x2="1010.89" y2="25" gradientUnits="userSpaceOnUse">
<stop stop-color="#9A1A51"/>
<stop offset="0.837037" stop-color="#631F89"/>
</linearGradient>
<linearGradient id="paint139_linear_121_4983" x1="1016.89" y1="13" x2="1016.89" y2="25" gradientUnits="userSpaceOnUse">
<stop stop-color="#9A1A51"/>
<stop offset="0.837037" stop-color="#631F89"/>
</linearGradient>
<linearGradient id="paint140_linear_121_4983" x1="1022.89" y1="15" x2="1022.89" y2="23" gradientUnits="userSpaceOnUse">
<stop stop-color="#9A1A51"/>
<stop offset="0.837037" stop-color="#631F89"/>
</linearGradient>
<linearGradient id="paint141_linear_121_4983" x1="1028.89" y1="15" x2="1028.89" y2="23" gradientUnits="userSpaceOnUse">
<stop stop-color="#9A1A51"/>
<stop offset="0.837037" stop-color="#631F89"/>
</linearGradient>
<linearGradient id="paint142_linear_121_4983" x1="1034.89" y1="13" x2="1034.89" y2="25" gradientUnits="userSpaceOnUse">
<stop stop-color="#9A1A51"/>
<stop offset="0.837037" stop-color="#631F89"/>
</linearGradient>
<linearGradient id="paint143_linear_121_4983" x1="1040.89" y1="10" x2="1040.89" y2="28" gradientUnits="userSpaceOnUse">
<stop stop-color="#9A1A51"/>
<stop offset="0.837037" stop-color="#631F89"/>
</linearGradient>
<linearGradient id="paint144_linear_121_4983" x1="1046.89" y1="13" x2="1046.89" y2="25" gradientUnits="userSpaceOnUse">
<stop stop-color="#9A1A51"/>
<stop offset="0.837037" stop-color="#631F89"/>
</linearGradient>
<linearGradient id="paint145_linear_121_4983" x1="1052.89" y1="15" x2="1052.89" y2="23" gradientUnits="userSpaceOnUse">
<stop stop-color="#9A1A51"/>
<stop offset="0.837037" stop-color="#631F89"/>
</linearGradient>
<linearGradient id="paint146_linear_121_4983" x1="1058.89" y1="15" x2="1058.89" y2="23" gradientUnits="userSpaceOnUse">
<stop stop-color="#9A1A51"/>
<stop offset="0.837037" stop-color="#631F89"/>
</linearGradient>
<linearGradient id="paint147_linear_121_4983" x1="1064.89" y1="13" x2="1064.89" y2="25" gradientUnits="userSpaceOnUse">
<stop stop-color="#9A1A51"/>
<stop offset="0.837037" stop-color="#631F89"/>
</linearGradient>
<linearGradient id="paint148_linear_121_4983" x1="1070.89" y1="15" x2="1070.89" y2="23" gradientUnits="userSpaceOnUse">
<stop stop-color="#9A1A51"/>
<stop offset="0.837037" stop-color="#631F89"/>
</linearGradient>
<linearGradient id="paint149_linear_121_4983" x1="1076.89" y1="13" x2="1076.89" y2="25" gradientUnits="userSpaceOnUse">
<stop stop-color="#9A1A51"/>
<stop offset="0.837037" stop-color="#631F89"/>
</linearGradient>
<linearGradient id="paint150_linear_121_4983" x1="1082.89" y1="13" x2="1082.89" y2="25" gradientUnits="userSpaceOnUse">
<stop stop-color="#9A1A51"/>
<stop offset="0.837037" stop-color="#631F89"/>
</linearGradient>
<linearGradient id="paint151_linear_121_4983" x1="1088.89" y1="15" x2="1088.89" y2="23" gradientUnits="userSpaceOnUse">
<stop stop-color="#9A1A51"/>
<stop offset="0.837037" stop-color="#631F89"/>
</linearGradient>
<linearGradient id="paint152_linear_121_4983" x1="1094.89" y1="15" x2="1094.89" y2="23" gradientUnits="userSpaceOnUse">
<stop stop-color="#9A1A51"/>
<stop offset="0.837037" stop-color="#631F89"/>
</linearGradient>
<linearGradient id="paint153_linear_121_4983" x1="1125.23" y1="15" x2="1125.23" y2="23" gradientUnits="userSpaceOnUse">
<stop stop-color="#9A1A51"/>
<stop offset="0.837037" stop-color="#631F89"/>
</linearGradient>
<linearGradient id="paint154_linear_121_4983" x1="1131.23" y1="15" x2="1131.23" y2="23" gradientUnits="userSpaceOnUse">
<stop stop-color="#9A1A51"/>
<stop offset="0.837037" stop-color="#631F89"/>
</linearGradient>
<linearGradient id="paint155_linear_121_4983" x1="1137.23" y1="15" x2="1137.23" y2="23" gradientUnits="userSpaceOnUse">
<stop stop-color="#9A1A51"/>
<stop offset="0.837037" stop-color="#631F89"/>
</linearGradient>
<linearGradient id="paint156_linear_121_4983" x1="1139" y1="19.2252" x2="1.00001" y2="19.2367" gradientUnits="userSpaceOnUse">
<stop stop-color="#9A1A51"/>
<stop offset="0.837037" stop-color="#631F89"/>
</linearGradient>
<linearGradient id="paint157_linear_121_4983" x1="1138" y1="19.2252" x2="1.12804e-05" y2="19.2367" gradientUnits="userSpaceOnUse">
<stop stop-color="#9A1A51"/>
<stop offset="0.837037" stop-color="#631F89"/>
</linearGradient>
<clipPath id="clip0_121_4983">
<rect width="1138" height="38" fill="white"/>
</clipPath>
</defs>
</svg>
