<svg width="254" height="40" viewBox="0 0 254 40" fill="none" xmlns="http://www.w3.org/2000/svg">
<path d="M46.3106 1.06983e-05L43.2845 39.3874H30.9281L32.297 21.946H14.5729L13.204 39.3874H0.811523L3.87361 0H13.0239C14.0325 0 16.0859 0.108117 16.0499 2.52253L15.1493 13.7658H32.8734L33.9541 0L46.3106 1.06983e-05Z" fill="#009999"/>
<path d="M203.63 22.3423C209.142 24.8288 214.762 27.2072 213.934 32.5765C212.997 38.4504 204.387 39.5675 197.326 39.5675C196.786 39.5675 196.209 39.5315 195.633 39.5315C185.942 39.2432 181.079 38.4864 181.079 38.4864L181.475 32.1081C181.475 32.1081 188.176 33.3333 194.516 33.5495C198.119 33.6576 200.749 33.4414 200.821 32.2162C200.893 31.0991 199.091 30.5225 195.273 29.009L191.923 27.6756C187.888 25.9819 181.295 23.5675 181.619 18.054C181.944 12.6486 188.5 10.9549 192.355 10.4144C194.624 10.09 197.002 9.98194 200.316 10.018C207.593 10.1261 213.717 11.4234 213.717 11.4234L213.141 17.3693C213.141 17.3693 206.657 15.9639 200.136 15.9639C195.993 16 194.588 16.4684 194.372 17.1531C193.976 18.4144 196.281 19.3153 199.308 20.5405L203.63 22.3423Z" fill="#009999"/>
<path d="M61.5125 0C63.4578 0 64.1423 0.828832 63.9982 2.52253C63.9621 3.24325 63.6379 7.53153 63.6379 7.53153H51.5336L52.11 0H61.5125ZM63.4218 10.7387L61.1882 39.3874H49.084L51.2815 10.7387H63.4218Z" fill="#009999"/>
<path d="M166.308 20.5405C166.561 16.4324 163.426 16.4684 162.346 16.4324C159.175 16.2883 155.141 16.8648 155.141 16.8648L153.772 39.3153H142.496L144.261 11.6396C144.261 11.6396 153.195 10.5946 160.22 10.3423C161.049 10.3063 161.877 10.3063 162.634 10.3063C165.588 10.3063 167.713 10.4865 168.002 10.5225C172.072 10.9189 178.196 11.5675 177.656 20.2522L176.431 39.3513H165.12C165.12 39.3513 165.984 25.6216 166.308 20.5405Z" fill="#009999"/>
<path d="M252.875 27.3874C255.289 13.5856 243.076 10.8829 240.195 10.4505C239.15 10.3063 237.997 10.1982 236.772 10.1982C223.911 10.0901 217.499 18.1982 216.959 24.9009C216.454 30.991 218.76 40 237.637 40C244.554 40 249.021 38.955 250.93 38.4144C251.146 37.1531 251.542 34.5225 251.867 32.5045C250.93 32.6847 245.274 33.9099 239.114 33.9099H238.537C229.964 33.5856 228.234 29.4054 228.234 27.4595V27.3514L252.875 27.3874ZM228.703 21.9099C229.243 18.8829 231.585 15.8198 236.52 15.7838C243.725 15.8559 243.257 21.9099 243.257 21.9099H228.703Z" fill="#009999"/>
<path d="M138.821 27.3874C141.271 13.5856 129.023 10.8829 126.141 10.4505C125.096 10.3063 123.943 10.1982 122.718 10.1982C109.858 10.0901 103.409 18.1982 102.869 24.9009C102.365 30.991 104.67 40 123.547 40C130.5 40 134.931 38.955 136.84 38.4144C137.056 37.1531 137.452 34.5225 137.777 32.5045C136.84 32.6847 131.184 33.9099 125.024 33.9099H124.448C115.874 33.5856 114.145 29.4054 114.145 27.4595V27.3514L138.821 27.3874ZM114.613 21.9099C115.153 18.8829 117.495 15.8198 122.43 15.7838C129.635 15.8559 129.167 21.9099 129.167 21.9099H114.613Z" fill="#009999"/>
<path d="M89.3962 22.3424L85.1093 20.5766C82.0832 19.3874 79.7777 18.4865 80.1739 17.2253C80.3901 16.5045 81.795 16.0361 85.9379 16.0361C92.4583 16.0361 98.9427 17.4415 98.9427 17.4415L99.5191 11.4955C99.5191 11.4955 93.395 10.1622 86.118 10.0901C82.8037 10.0541 80.4261 10.1622 78.1566 10.4865C74.2659 11.0271 67.7455 12.7208 67.4212 18.1262C67.097 23.6757 73.6895 26.0901 77.7243 27.7478L81.0746 29.0811C84.8932 30.5946 86.6944 31.1712 86.6223 32.2883C86.5503 33.5496 83.9205 33.7297 80.318 33.6216C73.9777 33.4054 67.2771 32.1802 67.2771 32.1802L66.8809 38.5586C66.8809 38.5586 71.7442 39.3514 81.4348 39.6036H83.128C90.1888 39.6036 98.7987 38.4865 99.7353 32.6126C100.6 27.2072 94.908 24.8289 89.3962 22.3424Z" fill="#009999"/>
</svg>
