<svg width="38" height="463" viewBox="0 0 38 463" fill="none" xmlns="http://www.w3.org/2000/svg">
<g clip-path="url(#clip0_4011_898)">
<path d="M18 1L18 462C18 462.552 18.4477 463 19 463C19.5523 463 20 462.552 20 462L20 1C20 0.447723 19.5523 6.78525e-08 19 4.37114e-08C18.4477 1.95703e-08 18 0.447723 18 1Z" fill="#BCB5C8"/>
<path d="M18 3.08667L18 459.913C18 461.618 18.4477 463 19 463C19.5523 463 20 461.618 20 459.913L20 3.08667C20 1.38196 19.5523 6.78525e-08 19 4.37114e-08C18.4477 1.95703e-08 18 1.38196 18 3.08667Z" fill="url(#paint0_linear_4011_898)"/>
<path d="M14 11L24 11C24.5523 11 25 10.5523 25 10C25 9.44772 24.5523 9 24 9L14 9C13.4477 9 13 9.44771 13 10C13 10.5523 13.4477 11 14 11Z" fill="url(#paint1_linear_4011_898)"/>
<path d="M16 2L22 2C22.5523 2 23 1.55228 23 1C23 0.447715 22.5523 -1.95703e-08 22 -4.37114e-08L16 -3.0598e-07C15.4477 -3.30121e-07 15 0.447715 15 1C15 1.55228 15.4477 2 16 2Z" fill="url(#paint2_linear_4011_898)"/>
<path d="M16 15L22 15C22.5523 15 23 14.5523 23 14C23 13.4477 22.5523 13 22 13L16 13C15.4477 13 15 13.4477 15 14C15 14.5523 15.4477 15 16 15Z" fill="url(#paint3_linear_4011_898)"/>
<path d="M12 19L26 19C26.5523 19 27 18.5523 27 18C27 17.4477 26.5523 17 26 17L12 17C11.4477 17 11 17.4477 11 18C11 18.5523 11.4477 19 12 19Z" fill="url(#paint4_linear_4011_898)"/>
<path d="M14 23L24 23C24.5523 23 25 22.5523 25 22C25 21.4477 24.5523 21 24 21L14 21C13.4477 21 13 21.4477 13 22C13 22.5523 13.4477 23 14 23Z" fill="url(#paint5_linear_4011_898)"/>
<path d="M16 31L22 31C22.5523 31 23 30.5523 23 30C23 29.4477 22.5523 29 22 29L16 29C15.4477 29 15 29.4477 15 30C15 30.5523 15.4477 31 16 31Z" fill="url(#paint6_linear_4011_898)"/>
<path d="M14 35L24 35C24.5523 35 25 34.5523 25 34C25 33.4477 24.5523 33 24 33L14 33C13.4477 33 13 33.4477 13 34C13 34.5523 13.4477 35 14 35Z" fill="url(#paint7_linear_4011_898)"/>
<path d="M10 39L28 39C28.5523 39 29 38.5523 29 38C29 37.4477 28.5523 37 28 37L10 37C9.44772 37 9 37.4477 9 38C9 38.5523 9.44772 39 10 39Z" fill="url(#paint8_linear_4011_898)"/>
<path d="M16 43L22 43C22.5523 43 23 42.5523 23 42C23 41.4477 22.5523 41 22 41L16 41C15.4477 41 15 41.4477 15 42C15 42.5523 15.4477 43 16 43Z" fill="url(#paint9_linear_4011_898)"/>
<path d="M16 51L22 51C22.5523 51 23 50.5523 23 50C23 49.4477 22.5523 49 22 49L16 49C15.4477 49 15 49.4477 15 50C15 50.5523 15.4477 51 16 51Z" fill="url(#paint10_linear_4011_898)"/>
<path d="M14 55L24 55C24.5523 55 25 54.5523 25 54C25 53.4477 24.5523 53 24 53L14 53C13.4477 53 13 53.4477 13 54C13 54.5523 13.4477 55 14 55Z" fill="url(#paint11_linear_4011_898)"/>
<path d="M11 59L27 59C27.5523 59 28 58.5523 28 58C28 57.4477 27.5523 57 27 57L11 57C10.4477 57 10 57.4477 10 58C10 58.5523 10.4477 59 11 59Z" fill="url(#paint12_linear_4011_898)"/>
<path d="M7 63L31 63C31.5523 63 32 62.5523 32 62L32 62C32 61.4477 31.5523 61 31 61L7 61C6.44772 61 6 61.4477 6 62C6 62.5523 6.44772 63 7 63Z" fill="url(#paint13_linear_4011_898)"/>
<path d="M1 67L37 67C37.5523 67 38 66.5523 38 66L38 66C38 65.4477 37.5523 65 37 65L1 65C0.447716 65 6.78525e-08 65.4477 4.37113e-08 66C1.95702e-08 66.5523 0.447716 67 1 67Z" fill="url(#paint14_linear_4011_898)"/>
<path d="M10 71L28 71C28.5523 71 29 70.5523 29 70C29 69.4477 28.5523 69 28 69L10 69C9.44772 69 9 69.4477 9 70C9 70.5523 9.44772 71 10 71Z" fill="url(#paint15_linear_4011_898)"/>
<path d="M14 75L24 75C24.5523 75 25 74.5523 25 74C25 73.4477 24.5523 73 24 73L14 73C13.4477 73 13 73.4477 13 74C13 74.5523 13.4477 75 14 75Z" fill="url(#paint16_linear_4011_898)"/>
<path d="M16 79L22 79C22.5523 79 23 78.5523 23 78C23 77.4477 22.5523 77 22 77L16 77C15.4477 77 15 77.4477 15 78C15 78.5523 15.4477 79 16 79Z" fill="url(#paint17_linear_4011_898)"/>
<path d="M16 87L22 87C22.5523 87 23 86.5523 23 86C23 85.4477 22.5523 85 22 85L16 85C15.4477 85 15 85.4477 15 86C15 86.5523 15.4477 87 16 87Z" fill="url(#paint18_linear_4011_898)"/>
<path d="M12 91L26 91C26.5523 91 27 90.5523 27 90C27 89.4477 26.5523 89 26 89L12 89C11.4477 89 11 89.4477 11 90C11 90.5523 11.4477 91 12 91Z" fill="url(#paint19_linear_4011_898)"/>
<path d="M14 95L24 95C24.5523 95 25 94.5523 25 94C25 93.4477 24.5523 93 24 93L14 93C13.4477 93 13 93.4477 13 94C13 94.5523 13.4477 95 14 95Z" fill="url(#paint20_linear_4011_898)"/>
<path d="M16 99L22 99C22.5523 99 23 98.5523 23 98C23 97.4477 22.5523 97 22 97L16 97C15.4477 97 15 97.4477 15 98C15 98.5523 15.4477 99 16 99Z" fill="url(#paint21_linear_4011_898)"/>
<path d="M16 103L22 103C22.5523 103 23 102.552 23 102C23 101.448 22.5523 101 22 101L16 101C15.4477 101 15 101.448 15 102C15 102.552 15.4477 103 16 103Z" fill="url(#paint22_linear_4011_898)"/>
<path d="M14 107L24 107C24.5523 107 25 106.552 25 106C25 105.448 24.5523 105 24 105L14 105C13.4477 105 13 105.448 13 106C13 106.552 13.4477 107 14 107Z" fill="url(#paint23_linear_4011_898)"/>
<path d="M16 111L22 111C22.5523 111 23 110.552 23 110C23 109.448 22.5523 109 22 109L16 109C15.4477 109 15 109.448 15 110C15 110.552 15.4477 111 16 111Z" fill="url(#paint24_linear_4011_898)"/>
<path d="M10 115L28 115C28.5523 115 29 114.552 29 114C29 113.448 28.5523 113 28 113L10 113C9.44772 113 9 113.448 9 114C9 114.552 9.44772 115 10 115Z" fill="url(#paint25_linear_4011_898)"/>
<path d="M14 119L24 119C24.5523 119 25 118.552 25 118C25 117.448 24.5523 117 24 117L14 117C13.4477 117 13 117.448 13 118C13 118.552 13.4477 119 14 119Z" fill="url(#paint26_linear_4011_898)"/>
<path d="M16 123L22 123C22.5523 123 23 122.552 23 122C23 121.448 22.5523 121 22 121L16 121C15.4477 121 15 121.448 15 122C15 122.552 15.4477 123 16 123Z" fill="url(#paint27_linear_4011_898)"/>
<path d="M14 127L24 127C24.5523 127 25 126.552 25 126C25 125.448 24.5523 125 24 125L14 125C13.4477 125 13 125.448 13 126C13 126.552 13.4477 127 14 127Z" fill="url(#paint28_linear_4011_898)"/>
<path d="M14 131L24 131C24.5523 131 25 130.552 25 130C25 129.448 24.5523 129 24 129L14 129C13.4477 129 13 129.448 13 130C13 130.552 13.4477 131 14 131Z" fill="url(#paint29_linear_4011_898)"/>
<path d="M11 135L27 135C27.5523 135 28 134.552 28 134C28 133.448 27.5523 133 27 133L11 133C10.4477 133 10 133.448 10 134C10 134.552 10.4477 135 11 135Z" fill="url(#paint30_linear_4011_898)"/>
<path d="M16 139L22 139C22.5523 139 23 138.552 23 138C23 137.448 22.5523 137 22 137L16 137C15.4477 137 15 137.448 15 138C15 138.552 15.4477 139 16 139Z" fill="url(#paint31_linear_4011_898)"/>
<path d="M14 143L24 143C24.5523 143 25 142.552 25 142C25 141.448 24.5523 141 24 141L14 141C13.4477 141 13 141.448 13 142C13 142.552 13.4477 143 14 143Z" fill="url(#paint32_linear_4011_898)"/>
<path d="M16 147L22 147C22.5523 147 23 146.552 23 146C23 145.448 22.5523 145 22 145L16 145C15.4477 145 15 145.448 15 146C15 146.552 15.4477 147 16 147Z" fill="url(#paint33_linear_4011_898)"/>
<path d="M16 159L22 159C22.5523 159 23 158.552 23 158C23 157.448 22.5523 157 22 157L16 157C15.4477 157 15 157.448 15 158C15 158.552 15.4477 159 16 159Z" fill="url(#paint34_linear_4011_898)"/>
<path d="M14 163L24 163C24.5523 163 25 162.552 25 162C25 161.448 24.5523 161 24 161L14 161C13.4477 161 13 161.448 13 162C13 162.552 13.4477 163 14 163Z" fill="url(#paint35_linear_4011_898)"/>
<path d="M16 167L22 167C22.5523 167 23 166.552 23 166C23 165.448 22.5523 165 22 165L16 165C15.4477 165 15 165.448 15 166C15 166.552 15.4477 167 16 167Z" fill="url(#paint36_linear_4011_898)"/>
<path d="M16 171L22 171C22.5523 171 23 170.552 23 170C23 169.448 22.5523 169 22 169L16 169C15.4477 169 15 169.448 15 170C15 170.552 15.4477 171 16 171Z" fill="url(#paint37_linear_4011_898)"/>
<path d="M14 175L24 175C24.5523 175 25 174.552 25 174C25 173.448 24.5523 173 24 173L14 173C13.4477 173 13 173.448 13 174C13 174.552 13.4477 175 14 175Z" fill="url(#paint38_linear_4011_898)"/>
<path d="M11 179L27 179C27.5523 179 28 178.552 28 178C28 177.448 27.5523 177 27 177L11 177C10.4477 177 10 177.448 10 178C10 178.552 10.4477 179 11 179Z" fill="url(#paint39_linear_4011_898)"/>
<path d="M14 183L24 183C24.5523 183 25 182.552 25 182C25 181.448 24.5523 181 24 181L14 181C13.4477 181 13 181.448 13 182C13 182.552 13.4477 183 14 183Z" fill="url(#paint40_linear_4011_898)"/>
<path d="M16 187L22 187C22.5523 187 23 186.552 23 186C23 185.448 22.5523 185 22 185L16 185C15.4477 185 15 185.448 15 186C15 186.552 15.4477 187 16 187Z" fill="url(#paint41_linear_4011_898)"/>
<path d="M16 191L22 191C22.5523 191 23 190.552 23 190C23 189.448 22.5523 189 22 189L16 189C15.4477 189 15 189.448 15 190C15 190.552 15.4477 191 16 191Z" fill="url(#paint42_linear_4011_898)"/>
<path d="M14 195L24 195C24.5523 195 25 194.552 25 194C25 193.448 24.5523 193 24 193L14 193C13.4477 193 13 193.448 13 194C13 194.552 13.4477 195 14 195Z" fill="url(#paint43_linear_4011_898)"/>
<path d="M16 199L22 199C22.5523 199 23 198.552 23 198C23 197.448 22.5523 197 22 197L16 197C15.4477 197 15 197.448 15 198C15 198.552 15.4477 199 16 199Z" fill="url(#paint44_linear_4011_898)"/>
<path d="M14 203L24 203C24.5523 203 25 202.552 25 202C25 201.448 24.5523 201 24 201L14 201C13.4477 201 13 201.448 13 202C13 202.552 13.4477 203 14 203Z" fill="url(#paint45_linear_4011_898)"/>
<path d="M11 207L27 207C27.5523 207 28 206.552 28 206C28 205.448 27.5523 205 27 205L11 205C10.4477 205 10 205.448 10 206C10 206.552 10.4477 207 11 207Z" fill="url(#paint46_linear_4011_898)"/>
<path d="M11 211L27 211C27.5523 211 28 210.552 28 210C28 209.448 27.5523 209 27 209L11 209C10.4477 209 10 209.448 10 210C10 210.552 10.4477 211 11 211Z" fill="url(#paint47_linear_4011_898)"/>
<path d="M8 215L30 215C30.5523 215 31 214.552 31 214L31 214C31 213.448 30.5523 213 30 213L8 213C7.44772 213 7 213.448 7 214C7 214.552 7.44772 215 8 215Z" fill="url(#paint48_linear_4011_898)"/>
<path d="M5 219L33 219C33.5523 219 34 218.552 34 218L34 218C34 217.448 33.5523 217 33 217L5 217C4.44772 217 4 217.448 4 218C4 218.552 4.44772 219 5 219Z" fill="url(#paint49_linear_4011_898)"/>
<path d="M1 223L37 223C37.5523 223 38 222.552 38 222L38 222C38 221.448 37.5523 221 37 221L1 221C0.447716 221 6.78525e-08 221.448 4.37113e-08 222C1.95702e-08 222.552 0.447716 223 1 223Z" fill="url(#paint50_linear_4011_898)"/>
<path d="M8 227L30 227C30.5523 227 31 226.552 31 226L31 226C31 225.448 30.5523 225 30 225L8 225C7.44772 225 7 225.448 7 226C7 226.552 7.44772 227 8 227Z" fill="url(#paint51_linear_4011_898)"/>
<path d="M11 231L27 231C27.5523 231 28 230.552 28 230C28 229.448 27.5523 229 27 229L11 229C10.4477 229 10 229.448 10 230C10 230.552 10.4477 231 11 231Z" fill="url(#paint52_linear_4011_898)"/>
<path d="M11 235L27 235C27.5523 235 28 234.552 28 234C28 233.448 27.5523 233 27 233L11 233C10.4477 233 10 233.448 10 234C10 234.552 10.4477 235 11 235Z" fill="url(#paint53_linear_4011_898)"/>
<path d="M14 239L24 239C24.5523 239 25 238.552 25 238C25 237.448 24.5523 237 24 237L14 237C13.4477 237 13 237.448 13 238C13 238.552 13.4477 239 14 239Z" fill="url(#paint54_linear_4011_898)"/>
<path d="M16 243L22 243C22.5523 243 23 242.552 23 242C23 241.448 22.5523 241 22 241L16 241C15.4477 241 15 241.448 15 242C15 242.552 15.4477 243 16 243Z" fill="url(#paint55_linear_4011_898)"/>
<path d="M16 247L22 247C22.5523 247 23 246.552 23 246C23 245.448 22.5523 245 22 245L16 245C15.4477 245 15 245.448 15 246C15 246.552 15.4477 247 16 247Z" fill="url(#paint56_linear_4011_898)"/>
<path d="M14 251L24 251C24.5523 251 25 250.552 25 250C25 249.448 24.5523 249 24 249L14 249C13.4477 249 13 249.448 13 250C13 250.552 13.4477 251 14 251Z" fill="url(#paint57_linear_4011_898)"/>
<path d="M14 255L24 255C24.5523 255 25 254.552 25 254C25 253.448 24.5523 253 24 253L14 253C13.4477 253 13 253.448 13 254C13 254.552 13.4477 255 14 255Z" fill="url(#paint58_linear_4011_898)"/>
<path d="M14 259L24 259C24.5523 259 25 258.552 25 258C25 257.448 24.5523 257 24 257L14 257C13.4477 257 13 257.448 13 258C13 258.552 13.4477 259 14 259Z" fill="url(#paint59_linear_4011_898)"/>
<path d="M16 263L22 263C22.5523 263 23 262.552 23 262C23 261.448 22.5523 261 22 261L16 261C15.4477 261 15 261.448 15 262C15 262.552 15.4477 263 16 263Z" fill="url(#paint60_linear_4011_898)"/>
<path d="M16 271L22 271C22.5523 271 23 270.552 23 270C23 269.448 22.5523 269 22 269L16 269C15.4477 269 15 269.448 15 270C15 270.552 15.4477 271 16 271Z" fill="url(#paint61_linear_4011_898)"/>
<path d="M16 275L22 275C22.5523 275 23 274.552 23 274C23 273.448 22.5523 273 22 273L16 273C15.4477 273 15 273.448 15 274C15 274.552 15.4477 275 16 275Z" fill="url(#paint62_linear_4011_898)"/>
<path d="M14 279L24 279C24.5523 279 25 278.552 25 278C25 277.448 24.5523 277 24 277L14 277C13.4477 277 13 277.448 13 278C13 278.552 13.4477 279 14 279Z" fill="url(#paint63_linear_4011_898)"/>
<path d="M11 283L27 283C27.5523 283 28 282.552 28 282C28 281.448 27.5523 281 27 281L11 281C10.4477 281 10 281.448 10 282C10 282.552 10.4477 283 11 283Z" fill="url(#paint64_linear_4011_898)"/>
<path d="M14 287L24 287C24.5523 287 25 286.552 25 286C25 285.448 24.5523 285 24 285L14 285C13.4477 285 13 285.448 13 286C13 286.552 13.4477 287 14 287Z" fill="url(#paint65_linear_4011_898)"/>
<path d="M14 291L24 291C24.5523 291 25 290.552 25 290C25 289.448 24.5523 289 24 289L14 289C13.4477 289 13 289.448 13 290C13 290.552 13.4477 291 14 291Z" fill="url(#paint66_linear_4011_898)"/>
<path d="M16 295L22 295C22.5523 295 23 294.552 23 294C23 293.448 22.5523 293 22 293L16 293C15.4477 293 15 293.448 15 294C15 294.552 15.4477 295 16 295Z" fill="url(#paint67_linear_4011_898)"/>
<path d="M16 299L22 299C22.5523 299 23 298.552 23 298C23 297.448 22.5523 297 22 297L16 297C15.4477 297 15 297.448 15 298C15 298.552 15.4477 299 16 299Z" fill="url(#paint68_linear_4011_898)"/>
<path d="M16 307L22 307C22.5523 307 23 306.552 23 306C23 305.448 22.5523 305 22 305L16 305C15.4477 305 15 305.448 15 306C15 306.552 15.4477 307 16 307Z" fill="url(#paint69_linear_4011_898)"/>
<path d="M14 311L24 311C24.5523 311 25 310.552 25 310C25 309.448 24.5523 309 24 309L14 309C13.4477 309 13 309.448 13 310C13 310.552 13.4477 311 14 311Z" fill="url(#paint70_linear_4011_898)"/>
<path d="M14 315L24 315C24.5523 315 25 314.552 25 314C25 313.448 24.5523 313 24 313L14 313C13.4477 313 13 313.448 13 314C13 314.552 13.4477 315 14 315Z" fill="url(#paint71_linear_4011_898)"/>
<path d="M16 319L22 319C22.5523 319 23 318.552 23 318C23 317.448 22.5523 317 22 317L16 317C15.4477 317 15 317.448 15 318C15 318.552 15.4477 319 16 319Z" fill="url(#paint72_linear_4011_898)"/>
<path d="M16 323L22 323C22.5523 323 23 322.552 23 322C23 321.448 22.5523 321 22 321L16 321C15.4477 321 15 321.448 15 322C15 322.552 15.4477 323 16 323Z" fill="url(#paint73_linear_4011_898)"/>
<path d="M14 327L24 327C24.5523 327 25 326.552 25 326C25 325.448 24.5523 325 24 325L14 325C13.4477 325 13 325.448 13 326C13 326.552 13.4477 327 14 327Z" fill="url(#paint74_linear_4011_898)"/>
<path d="M11 331L27 331C27.5523 331 28 330.552 28 330C28 329.448 27.5523 329 27 329L11 329C10.4477 329 10 329.448 10 330C10 330.552 10.4477 331 11 331Z" fill="url(#paint75_linear_4011_898)"/>
<path d="M14 335L24 335C24.5523 335 25 334.552 25 334C25 333.448 24.5523 333 24 333L14 333C13.4477 333 13 333.448 13 334C13 334.552 13.4477 335 14 335Z" fill="url(#paint76_linear_4011_898)"/>
<path d="M14 339L24 339C24.5523 339 25 338.552 25 338C25 337.448 24.5523 337 24 337L14 337C13.4477 337 13 337.448 13 338C13 338.552 13.4477 339 14 339Z" fill="url(#paint77_linear_4011_898)"/>
<path d="M16 343L22 343C22.5523 343 23 342.552 23 342C23 341.448 22.5523 341 22 341L16 341C15.4477 341 15 341.448 15 342C15 342.552 15.4477 343 16 343Z" fill="url(#paint78_linear_4011_898)"/>
<path d="M16 351L22 351C22.5523 351 23 350.552 23 350C23 349.448 22.5523 349 22 349L16 349C15.4477 349 15 349.448 15 350C15 350.552 15.4477 351 16 351Z" fill="url(#paint79_linear_4011_898)"/>
<path d="M16 355L22 355C22.5523 355 23 354.552 23 354C23 353.448 22.5523 353 22 353L16 353C15.4477 353 15 353.448 15 354C15 354.552 15.4477 355 16 355Z" fill="url(#paint80_linear_4011_898)"/>
<path d="M14 359L24 359C24.5523 359 25 358.552 25 358C25 357.448 24.5523 357 24 357L14 357C13.4477 357 13 357.448 13 358C13 358.552 13.4477 359 14 359Z" fill="url(#paint81_linear_4011_898)"/>
<path d="M14 363L24 363C24.5523 363 25 362.552 25 362C25 361.448 24.5523 361 24 361L14 361C13.4477 361 13 361.448 13 362C13 362.552 13.4477 363 14 363Z" fill="url(#paint82_linear_4011_898)"/>
<path d="M11 367L27 367C27.5523 367 28 366.552 28 366C28 365.448 27.5523 365 27 365L11 365C10.4477 365 10 365.448 10 366C10 366.552 10.4477 367 11 367Z" fill="url(#paint83_linear_4011_898)"/>
<path d="M9 371L29 371C29.5523 371 30 370.552 30 370C30 369.448 29.5523 369 29 369L9 369C8.44772 369 8 369.448 8 370C8 370.552 8.44772 371 9 371Z" fill="url(#paint84_linear_4011_898)"/>
<path d="M9 375L29 375C29.5523 375 30 374.552 30 374C30 373.448 29.5523 373 29 373L9 373C8.44772 373 8 373.448 8 374C8 374.552 8.44772 375 9 375Z" fill="url(#paint85_linear_4011_898)"/>
<path d="M7 379L31 379C31.5523 379 32 378.552 32 378L32 378C32 377.448 31.5523 377 31 377L7 377C6.44772 377 6 377.448 6 378C6 378.552 6.44772 379 7 379Z" fill="url(#paint86_linear_4011_898)"/>
<path d="M1 383L37 383C37.5523 383 38 382.552 38 382C38 381.448 37.5523 381 37 381L1 381C0.447716 381 6.78525e-08 381.448 4.37114e-08 382C1.95703e-08 382.552 0.447716 383 1 383Z" fill="url(#paint87_linear_4011_898)"/>
<path d="M4 387L34 387C34.5523 387 35 386.552 35 386L35 386C35 385.448 34.5523 385 34 385L4 385C3.44772 385 3 385.448 3 386C3 386.552 3.44772 387 4 387Z" fill="url(#paint88_linear_4011_898)"/>
<path d="M7 391L31 391C31.5523 391 32 390.552 32 390L32 390C32 389.448 31.5523 389 31 389L7 389C6.44772 389 6 389.448 6 390C6 390.552 6.44772 391 7 391Z" fill="url(#paint89_linear_4011_898)"/>
<path d="M11 395L27 395C27.5523 395 28 394.552 28 394C28 393.448 27.5523 393 27 393L11 393C10.4477 393 10 393.448 10 394C10 394.552 10.4477 395 11 395Z" fill="url(#paint90_linear_4011_898)"/>
<path d="M14 399L24 399C24.5523 399 25 398.552 25 398C25 397.448 24.5523 397 24 397L14 397C13.4477 397 13 397.448 13 398C13 398.552 13.4477 399 14 399Z" fill="url(#paint91_linear_4011_898)"/>
<path d="M14 403L24 403C24.5523 403 25 402.552 25 402C25 401.448 24.5523 401 24 401L14 401C13.4477 401 13 401.448 13 402C13 402.552 13.4477 403 14 403Z" fill="url(#paint92_linear_4011_898)"/>
<path d="M16 407L22 407C22.5523 407 23 406.552 23 406C23 405.448 22.5523 405 22 405L16 405C15.4477 405 15 405.448 15 406C15 406.552 15.4477 407 16 407Z" fill="url(#paint93_linear_4011_898)"/>
<path d="M16 411L22 411C22.5523 411 23 410.552 23 410C23 409.448 22.5523 409 22 409L16 409C15.4477 409 15 409.448 15 410C15 410.552 15.4477 411 16 411Z" fill="url(#paint94_linear_4011_898)"/>
<path d="M14 415L24 415C24.5523 415 25 414.552 25 414C25 413.448 24.5523 413 24 413L14 413C13.4477 413 13 413.448 13 414C13 414.552 13.4477 415 14 415Z" fill="url(#paint95_linear_4011_898)"/>
<path d="M11 419L27 419C27.5523 419 28 418.552 28 418C28 417.448 27.5523 417 27 417L11 417C10.4477 417 10 417.448 10 418C10 418.552 10.4477 419 11 419Z" fill="url(#paint96_linear_4011_898)"/>
<path d="M14 423L24 423C24.5523 423 25 422.552 25 422C25 421.448 24.5523 421 24 421L14 421C13.4477 421 13 421.448 13 422C13 422.552 13.4477 423 14 423Z" fill="url(#paint97_linear_4011_898)"/>
<path d="M16 427L22 427C22.5523 427 23 426.552 23 426C23 425.448 22.5523 425 22 425L16 425C15.4477 425 15 425.448 15 426C15 426.552 15.4477 427 16 427Z" fill="url(#paint98_linear_4011_898)"/>
<path d="M16 431L22 431C22.5523 431 23 430.552 23 430C23 429.448 22.5523 429 22 429L16 429C15.4477 429 15 429.448 15 430C15 430.552 15.4477 431 16 431Z" fill="url(#paint99_linear_4011_898)"/>
<path d="M14 435L24 435C24.5523 435 25 434.552 25 434C25 433.448 24.5523 433 24 433L14 433C13.4477 433 13 433.448 13 434C13 434.552 13.4477 435 14 435Z" fill="url(#paint100_linear_4011_898)"/>
<path d="M16 439L22 439C22.5523 439 23 438.552 23 438C23 437.448 22.5523 437 22 437L16 437C15.4477 437 15 437.448 15 438C15 438.552 15.4477 439 16 439Z" fill="url(#paint101_linear_4011_898)"/>
<path d="M14 443L24 443C24.5523 443 25 442.552 25 442C25 441.448 24.5523 441 24 441L14 441C13.4477 441 13 441.448 13 442C13 442.552 13.4477 443 14 443Z" fill="url(#paint102_linear_4011_898)"/>
<path d="M16 447L22 447C22.5523 447 23 446.552 23 446C23 445.448 22.5523 445 22 445L16 445C15.4477 445 15 445.448 15 446C15 446.552 15.4477 447 16 447Z" fill="url(#paint103_linear_4011_898)"/>
<path d="M16 451L22 451C22.5523 451 23 450.552 23 450C23 449.448 22.5523 449 22 449L16 449C15.4477 449 15 449.448 15 450C15 450.552 15.4477 451 16 451Z" fill="url(#paint104_linear_4011_898)"/>
<path d="M16 459L22 459C22.5523 459 23 458.552 23 458C23 457.448 22.5523 457 22 457L16 457C15.4477 457 15 457.448 15 458C15 458.552 15.4477 459 16 459Z" fill="url(#paint105_linear_4011_898)"/>
<path d="M16 463L22 463C22.5523 463 23 462.552 23 462C23 461.448 22.5523 461 22 461L16 461C15.4477 461 15 461.448 15 462C15 462.552 15.4477 463 16 463Z" fill="url(#paint106_linear_4011_898)"/>
</g>
<defs>
<linearGradient id="paint0_linear_4011_898" x1="18.7748" y1="463" x2="18.7729" y2="4.16233e-08" gradientUnits="userSpaceOnUse">
<stop stop-color="#9A1A51"/>
<stop offset="0.837037" stop-color="#631F89"/>
</linearGradient>
<linearGradient id="paint1_linear_4011_898" x1="25" y1="10.2252" x2="13" y2="10.2252" gradientUnits="userSpaceOnUse">
<stop stop-color="#9A1A51"/>
<stop offset="0.837037" stop-color="#631F89"/>
</linearGradient>
<linearGradient id="paint2_linear_4011_898" x1="23" y1="1.2252" x2="15" y2="1.2252" gradientUnits="userSpaceOnUse">
<stop stop-color="#9A1A51"/>
<stop offset="0.837037" stop-color="#631F89"/>
</linearGradient>
<linearGradient id="paint3_linear_4011_898" x1="23" y1="14.2252" x2="15" y2="14.2252" gradientUnits="userSpaceOnUse">
<stop stop-color="#9A1A51"/>
<stop offset="0.837037" stop-color="#631F89"/>
</linearGradient>
<linearGradient id="paint4_linear_4011_898" x1="27" y1="18.2252" x2="11" y2="18.2252" gradientUnits="userSpaceOnUse">
<stop stop-color="#9A1A51"/>
<stop offset="0.837037" stop-color="#631F89"/>
</linearGradient>
<linearGradient id="paint5_linear_4011_898" x1="25" y1="22.2252" x2="13" y2="22.2252" gradientUnits="userSpaceOnUse">
<stop stop-color="#9A1A51"/>
<stop offset="0.837037" stop-color="#631F89"/>
</linearGradient>
<linearGradient id="paint6_linear_4011_898" x1="23" y1="30.2252" x2="15" y2="30.2252" gradientUnits="userSpaceOnUse">
<stop stop-color="#9A1A51"/>
<stop offset="0.837037" stop-color="#631F89"/>
</linearGradient>
<linearGradient id="paint7_linear_4011_898" x1="25" y1="34.2252" x2="13" y2="34.2252" gradientUnits="userSpaceOnUse">
<stop stop-color="#9A1A51"/>
<stop offset="0.837037" stop-color="#631F89"/>
</linearGradient>
<linearGradient id="paint8_linear_4011_898" x1="29" y1="38.2252" x2="9" y2="38.2252" gradientUnits="userSpaceOnUse">
<stop stop-color="#9A1A51"/>
<stop offset="0.837037" stop-color="#631F89"/>
</linearGradient>
<linearGradient id="paint9_linear_4011_898" x1="23" y1="42.2252" x2="15" y2="42.2252" gradientUnits="userSpaceOnUse">
<stop stop-color="#9A1A51"/>
<stop offset="0.837037" stop-color="#631F89"/>
</linearGradient>
<linearGradient id="paint10_linear_4011_898" x1="23" y1="50.2252" x2="15" y2="50.2252" gradientUnits="userSpaceOnUse">
<stop stop-color="#9A1A51"/>
<stop offset="0.837037" stop-color="#631F89"/>
</linearGradient>
<linearGradient id="paint11_linear_4011_898" x1="25" y1="54.2252" x2="13" y2="54.2252" gradientUnits="userSpaceOnUse">
<stop stop-color="#9A1A51"/>
<stop offset="0.837037" stop-color="#631F89"/>
</linearGradient>
<linearGradient id="paint12_linear_4011_898" x1="28" y1="58.2252" x2="10" y2="58.2252" gradientUnits="userSpaceOnUse">
<stop stop-color="#9A1A51"/>
<stop offset="0.837037" stop-color="#631F89"/>
</linearGradient>
<linearGradient id="paint13_linear_4011_898" x1="32" y1="62.2252" x2="6" y2="62.2252" gradientUnits="userSpaceOnUse">
<stop stop-color="#9A1A51"/>
<stop offset="0.837037" stop-color="#631F89"/>
</linearGradient>
<linearGradient id="paint14_linear_4011_898" x1="38" y1="66.2252" x2="3.3873e-08" y2="66.2252" gradientUnits="userSpaceOnUse">
<stop stop-color="#9A1A51"/>
<stop offset="0.837037" stop-color="#631F89"/>
</linearGradient>
<linearGradient id="paint15_linear_4011_898" x1="29" y1="70.2252" x2="9" y2="70.2252" gradientUnits="userSpaceOnUse">
<stop stop-color="#9A1A51"/>
<stop offset="0.837037" stop-color="#631F89"/>
</linearGradient>
<linearGradient id="paint16_linear_4011_898" x1="25" y1="74.2252" x2="13" y2="74.2252" gradientUnits="userSpaceOnUse">
<stop stop-color="#9A1A51"/>
<stop offset="0.837037" stop-color="#631F89"/>
</linearGradient>
<linearGradient id="paint17_linear_4011_898" x1="23" y1="78.2252" x2="15" y2="78.2252" gradientUnits="userSpaceOnUse">
<stop stop-color="#9A1A51"/>
<stop offset="0.837037" stop-color="#631F89"/>
</linearGradient>
<linearGradient id="paint18_linear_4011_898" x1="23" y1="86.2252" x2="15" y2="86.2252" gradientUnits="userSpaceOnUse">
<stop stop-color="#9A1A51"/>
<stop offset="0.837037" stop-color="#631F89"/>
</linearGradient>
<linearGradient id="paint19_linear_4011_898" x1="27" y1="90.2252" x2="11" y2="90.2252" gradientUnits="userSpaceOnUse">
<stop stop-color="#9A1A51"/>
<stop offset="0.837037" stop-color="#631F89"/>
</linearGradient>
<linearGradient id="paint20_linear_4011_898" x1="25" y1="94.2252" x2="13" y2="94.2252" gradientUnits="userSpaceOnUse">
<stop stop-color="#9A1A51"/>
<stop offset="0.837037" stop-color="#631F89"/>
</linearGradient>
<linearGradient id="paint21_linear_4011_898" x1="23" y1="98.2252" x2="15" y2="98.2252" gradientUnits="userSpaceOnUse">
<stop stop-color="#9A1A51"/>
<stop offset="0.837037" stop-color="#631F89"/>
</linearGradient>
<linearGradient id="paint22_linear_4011_898" x1="23" y1="102.225" x2="15" y2="102.225" gradientUnits="userSpaceOnUse">
<stop stop-color="#9A1A51"/>
<stop offset="0.837037" stop-color="#631F89"/>
</linearGradient>
<linearGradient id="paint23_linear_4011_898" x1="25" y1="106.225" x2="13" y2="106.225" gradientUnits="userSpaceOnUse">
<stop stop-color="#9A1A51"/>
<stop offset="0.837037" stop-color="#631F89"/>
</linearGradient>
<linearGradient id="paint24_linear_4011_898" x1="23" y1="110.225" x2="15" y2="110.225" gradientUnits="userSpaceOnUse">
<stop stop-color="#9A1A51"/>
<stop offset="0.837037" stop-color="#631F89"/>
</linearGradient>
<linearGradient id="paint25_linear_4011_898" x1="29" y1="114.225" x2="9" y2="114.225" gradientUnits="userSpaceOnUse">
<stop stop-color="#9A1A51"/>
<stop offset="0.837037" stop-color="#631F89"/>
</linearGradient>
<linearGradient id="paint26_linear_4011_898" x1="25" y1="118.225" x2="13" y2="118.225" gradientUnits="userSpaceOnUse">
<stop stop-color="#9A1A51"/>
<stop offset="0.837037" stop-color="#631F89"/>
</linearGradient>
<linearGradient id="paint27_linear_4011_898" x1="23" y1="122.225" x2="15" y2="122.225" gradientUnits="userSpaceOnUse">
<stop stop-color="#9A1A51"/>
<stop offset="0.837037" stop-color="#631F89"/>
</linearGradient>
<linearGradient id="paint28_linear_4011_898" x1="25" y1="126.225" x2="13" y2="126.225" gradientUnits="userSpaceOnUse">
<stop stop-color="#9A1A51"/>
<stop offset="0.837037" stop-color="#631F89"/>
</linearGradient>
<linearGradient id="paint29_linear_4011_898" x1="25" y1="130.225" x2="13" y2="130.225" gradientUnits="userSpaceOnUse">
<stop stop-color="#9A1A51"/>
<stop offset="0.837037" stop-color="#631F89"/>
</linearGradient>
<linearGradient id="paint30_linear_4011_898" x1="28" y1="134.225" x2="10" y2="134.225" gradientUnits="userSpaceOnUse">
<stop stop-color="#9A1A51"/>
<stop offset="0.837037" stop-color="#631F89"/>
</linearGradient>
<linearGradient id="paint31_linear_4011_898" x1="23" y1="138.225" x2="15" y2="138.225" gradientUnits="userSpaceOnUse">
<stop stop-color="#9A1A51"/>
<stop offset="0.837037" stop-color="#631F89"/>
</linearGradient>
<linearGradient id="paint32_linear_4011_898" x1="25" y1="142.225" x2="13" y2="142.225" gradientUnits="userSpaceOnUse">
<stop stop-color="#9A1A51"/>
<stop offset="0.837037" stop-color="#631F89"/>
</linearGradient>
<linearGradient id="paint33_linear_4011_898" x1="23" y1="146.225" x2="15" y2="146.225" gradientUnits="userSpaceOnUse">
<stop stop-color="#9A1A51"/>
<stop offset="0.837037" stop-color="#631F89"/>
</linearGradient>
<linearGradient id="paint34_linear_4011_898" x1="23" y1="158.225" x2="15" y2="158.225" gradientUnits="userSpaceOnUse">
<stop stop-color="#9A1A51"/>
<stop offset="0.837037" stop-color="#631F89"/>
</linearGradient>
<linearGradient id="paint35_linear_4011_898" x1="25" y1="162.225" x2="13" y2="162.225" gradientUnits="userSpaceOnUse">
<stop stop-color="#9A1A51"/>
<stop offset="0.837037" stop-color="#631F89"/>
</linearGradient>
<linearGradient id="paint36_linear_4011_898" x1="23" y1="166.225" x2="15" y2="166.225" gradientUnits="userSpaceOnUse">
<stop stop-color="#9A1A51"/>
<stop offset="0.837037" stop-color="#631F89"/>
</linearGradient>
<linearGradient id="paint37_linear_4011_898" x1="23" y1="170.225" x2="15" y2="170.225" gradientUnits="userSpaceOnUse">
<stop stop-color="#9A1A51"/>
<stop offset="0.837037" stop-color="#631F89"/>
</linearGradient>
<linearGradient id="paint38_linear_4011_898" x1="25" y1="174.225" x2="13" y2="174.225" gradientUnits="userSpaceOnUse">
<stop stop-color="#9A1A51"/>
<stop offset="0.837037" stop-color="#631F89"/>
</linearGradient>
<linearGradient id="paint39_linear_4011_898" x1="28" y1="178.225" x2="10" y2="178.225" gradientUnits="userSpaceOnUse">
<stop stop-color="#9A1A51"/>
<stop offset="0.837037" stop-color="#631F89"/>
</linearGradient>
<linearGradient id="paint40_linear_4011_898" x1="25" y1="182.225" x2="13" y2="182.225" gradientUnits="userSpaceOnUse">
<stop stop-color="#9A1A51"/>
<stop offset="0.837037" stop-color="#631F89"/>
</linearGradient>
<linearGradient id="paint41_linear_4011_898" x1="23" y1="186.225" x2="15" y2="186.225" gradientUnits="userSpaceOnUse">
<stop stop-color="#9A1A51"/>
<stop offset="0.837037" stop-color="#631F89"/>
</linearGradient>
<linearGradient id="paint42_linear_4011_898" x1="23" y1="190.225" x2="15" y2="190.225" gradientUnits="userSpaceOnUse">
<stop stop-color="#9A1A51"/>
<stop offset="0.837037" stop-color="#631F89"/>
</linearGradient>
<linearGradient id="paint43_linear_4011_898" x1="25" y1="194.225" x2="13" y2="194.225" gradientUnits="userSpaceOnUse">
<stop stop-color="#9A1A51"/>
<stop offset="0.837037" stop-color="#631F89"/>
</linearGradient>
<linearGradient id="paint44_linear_4011_898" x1="23" y1="198.225" x2="15" y2="198.225" gradientUnits="userSpaceOnUse">
<stop stop-color="#9A1A51"/>
<stop offset="0.837037" stop-color="#631F89"/>
</linearGradient>
<linearGradient id="paint45_linear_4011_898" x1="25" y1="202.225" x2="13" y2="202.225" gradientUnits="userSpaceOnUse">
<stop stop-color="#9A1A51"/>
<stop offset="0.837037" stop-color="#631F89"/>
</linearGradient>
<linearGradient id="paint46_linear_4011_898" x1="28" y1="206.225" x2="10" y2="206.225" gradientUnits="userSpaceOnUse">
<stop stop-color="#9A1A51"/>
<stop offset="0.837037" stop-color="#631F89"/>
</linearGradient>
<linearGradient id="paint47_linear_4011_898" x1="28" y1="210.225" x2="10" y2="210.225" gradientUnits="userSpaceOnUse">
<stop stop-color="#9A1A51"/>
<stop offset="0.837037" stop-color="#631F89"/>
</linearGradient>
<linearGradient id="paint48_linear_4011_898" x1="31" y1="214.225" x2="7" y2="214.225" gradientUnits="userSpaceOnUse">
<stop stop-color="#9A1A51"/>
<stop offset="0.837037" stop-color="#631F89"/>
</linearGradient>
<linearGradient id="paint49_linear_4011_898" x1="34" y1="218.225" x2="4" y2="218.225" gradientUnits="userSpaceOnUse">
<stop stop-color="#9A1A51"/>
<stop offset="0.837037" stop-color="#631F89"/>
</linearGradient>
<linearGradient id="paint50_linear_4011_898" x1="38" y1="222.225" x2="4.06609e-07" y2="222.225" gradientUnits="userSpaceOnUse">
<stop stop-color="#9A1A51"/>
<stop offset="0.837037" stop-color="#631F89"/>
</linearGradient>
<linearGradient id="paint51_linear_4011_898" x1="31" y1="226.225" x2="7" y2="226.225" gradientUnits="userSpaceOnUse">
<stop stop-color="#9A1A51"/>
<stop offset="0.837037" stop-color="#631F89"/>
</linearGradient>
<linearGradient id="paint52_linear_4011_898" x1="28" y1="230.225" x2="10" y2="230.225" gradientUnits="userSpaceOnUse">
<stop stop-color="#9A1A51"/>
<stop offset="0.837037" stop-color="#631F89"/>
</linearGradient>
<linearGradient id="paint53_linear_4011_898" x1="28" y1="234.225" x2="10" y2="234.225" gradientUnits="userSpaceOnUse">
<stop stop-color="#9A1A51"/>
<stop offset="0.837037" stop-color="#631F89"/>
</linearGradient>
<linearGradient id="paint54_linear_4011_898" x1="25" y1="238.225" x2="13" y2="238.225" gradientUnits="userSpaceOnUse">
<stop stop-color="#9A1A51"/>
<stop offset="0.837037" stop-color="#631F89"/>
</linearGradient>
<linearGradient id="paint55_linear_4011_898" x1="23" y1="242.225" x2="15" y2="242.225" gradientUnits="userSpaceOnUse">
<stop stop-color="#9A1A51"/>
<stop offset="0.837037" stop-color="#631F89"/>
</linearGradient>
<linearGradient id="paint56_linear_4011_898" x1="23" y1="246.225" x2="15" y2="246.225" gradientUnits="userSpaceOnUse">
<stop stop-color="#9A1A51"/>
<stop offset="0.837037" stop-color="#631F89"/>
</linearGradient>
<linearGradient id="paint57_linear_4011_898" x1="25" y1="250.225" x2="13" y2="250.225" gradientUnits="userSpaceOnUse">
<stop stop-color="#9A1A51"/>
<stop offset="0.837037" stop-color="#631F89"/>
</linearGradient>
<linearGradient id="paint58_linear_4011_898" x1="25" y1="254.225" x2="13" y2="254.225" gradientUnits="userSpaceOnUse">
<stop stop-color="#9A1A51"/>
<stop offset="0.837037" stop-color="#631F89"/>
</linearGradient>
<linearGradient id="paint59_linear_4011_898" x1="25" y1="258.225" x2="13" y2="258.225" gradientUnits="userSpaceOnUse">
<stop stop-color="#9A1A51"/>
<stop offset="0.837037" stop-color="#631F89"/>
</linearGradient>
<linearGradient id="paint60_linear_4011_898" x1="23" y1="262.225" x2="15" y2="262.225" gradientUnits="userSpaceOnUse">
<stop stop-color="#9A1A51"/>
<stop offset="0.837037" stop-color="#631F89"/>
</linearGradient>
<linearGradient id="paint61_linear_4011_898" x1="23" y1="270.225" x2="15" y2="270.225" gradientUnits="userSpaceOnUse">
<stop stop-color="#9A1A51"/>
<stop offset="0.837037" stop-color="#631F89"/>
</linearGradient>
<linearGradient id="paint62_linear_4011_898" x1="23" y1="274.225" x2="15" y2="274.225" gradientUnits="userSpaceOnUse">
<stop stop-color="#9A1A51"/>
<stop offset="0.837037" stop-color="#631F89"/>
</linearGradient>
<linearGradient id="paint63_linear_4011_898" x1="25" y1="278.225" x2="13" y2="278.225" gradientUnits="userSpaceOnUse">
<stop stop-color="#9A1A51"/>
<stop offset="0.837037" stop-color="#631F89"/>
</linearGradient>
<linearGradient id="paint64_linear_4011_898" x1="28" y1="282.225" x2="10" y2="282.225" gradientUnits="userSpaceOnUse">
<stop stop-color="#9A1A51"/>
<stop offset="0.837037" stop-color="#631F89"/>
</linearGradient>
<linearGradient id="paint65_linear_4011_898" x1="25" y1="286.225" x2="13" y2="286.225" gradientUnits="userSpaceOnUse">
<stop stop-color="#9A1A51"/>
<stop offset="0.837037" stop-color="#631F89"/>
</linearGradient>
<linearGradient id="paint66_linear_4011_898" x1="25" y1="290.225" x2="13" y2="290.225" gradientUnits="userSpaceOnUse">
<stop stop-color="#9A1A51"/>
<stop offset="0.837037" stop-color="#631F89"/>
</linearGradient>
<linearGradient id="paint67_linear_4011_898" x1="23" y1="294.225" x2="15" y2="294.225" gradientUnits="userSpaceOnUse">
<stop stop-color="#9A1A51"/>
<stop offset="0.837037" stop-color="#631F89"/>
</linearGradient>
<linearGradient id="paint68_linear_4011_898" x1="23" y1="298.225" x2="15" y2="298.225" gradientUnits="userSpaceOnUse">
<stop stop-color="#9A1A51"/>
<stop offset="0.837037" stop-color="#631F89"/>
</linearGradient>
<linearGradient id="paint69_linear_4011_898" x1="23" y1="306.225" x2="15" y2="306.225" gradientUnits="userSpaceOnUse">
<stop stop-color="#9A1A51"/>
<stop offset="0.837037" stop-color="#631F89"/>
</linearGradient>
<linearGradient id="paint70_linear_4011_898" x1="25" y1="310.225" x2="13" y2="310.225" gradientUnits="userSpaceOnUse">
<stop stop-color="#9A1A51"/>
<stop offset="0.837037" stop-color="#631F89"/>
</linearGradient>
<linearGradient id="paint71_linear_4011_898" x1="25" y1="314.225" x2="13" y2="314.225" gradientUnits="userSpaceOnUse">
<stop stop-color="#9A1A51"/>
<stop offset="0.837037" stop-color="#631F89"/>
</linearGradient>
<linearGradient id="paint72_linear_4011_898" x1="23" y1="318.225" x2="15" y2="318.225" gradientUnits="userSpaceOnUse">
<stop stop-color="#9A1A51"/>
<stop offset="0.837037" stop-color="#631F89"/>
</linearGradient>
<linearGradient id="paint73_linear_4011_898" x1="23" y1="322.225" x2="15" y2="322.225" gradientUnits="userSpaceOnUse">
<stop stop-color="#9A1A51"/>
<stop offset="0.837037" stop-color="#631F89"/>
</linearGradient>
<linearGradient id="paint74_linear_4011_898" x1="25" y1="326.225" x2="13" y2="326.225" gradientUnits="userSpaceOnUse">
<stop stop-color="#9A1A51"/>
<stop offset="0.837037" stop-color="#631F89"/>
</linearGradient>
<linearGradient id="paint75_linear_4011_898" x1="28" y1="330.225" x2="10" y2="330.225" gradientUnits="userSpaceOnUse">
<stop stop-color="#9A1A51"/>
<stop offset="0.837037" stop-color="#631F89"/>
</linearGradient>
<linearGradient id="paint76_linear_4011_898" x1="25" y1="334.225" x2="13" y2="334.225" gradientUnits="userSpaceOnUse">
<stop stop-color="#9A1A51"/>
<stop offset="0.837037" stop-color="#631F89"/>
</linearGradient>
<linearGradient id="paint77_linear_4011_898" x1="25" y1="338.225" x2="13" y2="338.225" gradientUnits="userSpaceOnUse">
<stop stop-color="#9A1A51"/>
<stop offset="0.837037" stop-color="#631F89"/>
</linearGradient>
<linearGradient id="paint78_linear_4011_898" x1="23" y1="342.225" x2="15" y2="342.225" gradientUnits="userSpaceOnUse">
<stop stop-color="#9A1A51"/>
<stop offset="0.837037" stop-color="#631F89"/>
</linearGradient>
<linearGradient id="paint79_linear_4011_898" x1="23" y1="350.225" x2="15" y2="350.225" gradientUnits="userSpaceOnUse">
<stop stop-color="#9A1A51"/>
<stop offset="0.837037" stop-color="#631F89"/>
</linearGradient>
<linearGradient id="paint80_linear_4011_898" x1="23" y1="354.225" x2="15" y2="354.225" gradientUnits="userSpaceOnUse">
<stop stop-color="#9A1A51"/>
<stop offset="0.837037" stop-color="#631F89"/>
</linearGradient>
<linearGradient id="paint81_linear_4011_898" x1="25" y1="358.225" x2="13" y2="358.225" gradientUnits="userSpaceOnUse">
<stop stop-color="#9A1A51"/>
<stop offset="0.837037" stop-color="#631F89"/>
</linearGradient>
<linearGradient id="paint82_linear_4011_898" x1="25" y1="362.225" x2="13" y2="362.225" gradientUnits="userSpaceOnUse">
<stop stop-color="#9A1A51"/>
<stop offset="0.837037" stop-color="#631F89"/>
</linearGradient>
<linearGradient id="paint83_linear_4011_898" x1="28" y1="366.225" x2="10" y2="366.225" gradientUnits="userSpaceOnUse">
<stop stop-color="#9A1A51"/>
<stop offset="0.837037" stop-color="#631F89"/>
</linearGradient>
<linearGradient id="paint84_linear_4011_898" x1="30" y1="370.225" x2="8" y2="370.225" gradientUnits="userSpaceOnUse">
<stop stop-color="#9A1A51"/>
<stop offset="0.837037" stop-color="#631F89"/>
</linearGradient>
<linearGradient id="paint85_linear_4011_898" x1="30" y1="374.225" x2="8" y2="374.225" gradientUnits="userSpaceOnUse">
<stop stop-color="#9A1A51"/>
<stop offset="0.837037" stop-color="#631F89"/>
</linearGradient>
<linearGradient id="paint86_linear_4011_898" x1="32" y1="378.225" x2="6" y2="378.225" gradientUnits="userSpaceOnUse">
<stop stop-color="#9A1A51"/>
<stop offset="0.837037" stop-color="#631F89"/>
</linearGradient>
<linearGradient id="paint87_linear_4011_898" x1="38" y1="382.225" x2="4.06609e-07" y2="382.225" gradientUnits="userSpaceOnUse">
<stop stop-color="#9A1A51"/>
<stop offset="0.837037" stop-color="#631F89"/>
</linearGradient>
<linearGradient id="paint88_linear_4011_898" x1="35" y1="386.225" x2="3" y2="386.225" gradientUnits="userSpaceOnUse">
<stop stop-color="#9A1A51"/>
<stop offset="0.837037" stop-color="#631F89"/>
</linearGradient>
<linearGradient id="paint89_linear_4011_898" x1="32" y1="390.225" x2="6" y2="390.225" gradientUnits="userSpaceOnUse">
<stop stop-color="#9A1A51"/>
<stop offset="0.837037" stop-color="#631F89"/>
</linearGradient>
<linearGradient id="paint90_linear_4011_898" x1="28" y1="394.225" x2="10" y2="394.225" gradientUnits="userSpaceOnUse">
<stop stop-color="#9A1A51"/>
<stop offset="0.837037" stop-color="#631F89"/>
</linearGradient>
<linearGradient id="paint91_linear_4011_898" x1="25" y1="398.225" x2="13" y2="398.225" gradientUnits="userSpaceOnUse">
<stop stop-color="#9A1A51"/>
<stop offset="0.837037" stop-color="#631F89"/>
</linearGradient>
<linearGradient id="paint92_linear_4011_898" x1="25" y1="402.225" x2="13" y2="402.225" gradientUnits="userSpaceOnUse">
<stop stop-color="#9A1A51"/>
<stop offset="0.837037" stop-color="#631F89"/>
</linearGradient>
<linearGradient id="paint93_linear_4011_898" x1="23" y1="406.225" x2="15" y2="406.225" gradientUnits="userSpaceOnUse">
<stop stop-color="#9A1A51"/>
<stop offset="0.837037" stop-color="#631F89"/>
</linearGradient>
<linearGradient id="paint94_linear_4011_898" x1="23" y1="410.225" x2="15" y2="410.225" gradientUnits="userSpaceOnUse">
<stop stop-color="#9A1A51"/>
<stop offset="0.837037" stop-color="#631F89"/>
</linearGradient>
<linearGradient id="paint95_linear_4011_898" x1="25" y1="414.225" x2="13" y2="414.225" gradientUnits="userSpaceOnUse">
<stop stop-color="#9A1A51"/>
<stop offset="0.837037" stop-color="#631F89"/>
</linearGradient>
<linearGradient id="paint96_linear_4011_898" x1="28" y1="418.225" x2="10" y2="418.225" gradientUnits="userSpaceOnUse">
<stop stop-color="#9A1A51"/>
<stop offset="0.837037" stop-color="#631F89"/>
</linearGradient>
<linearGradient id="paint97_linear_4011_898" x1="25" y1="422.225" x2="13" y2="422.225" gradientUnits="userSpaceOnUse">
<stop stop-color="#9A1A51"/>
<stop offset="0.837037" stop-color="#631F89"/>
</linearGradient>
<linearGradient id="paint98_linear_4011_898" x1="23" y1="426.225" x2="15" y2="426.225" gradientUnits="userSpaceOnUse">
<stop stop-color="#9A1A51"/>
<stop offset="0.837037" stop-color="#631F89"/>
</linearGradient>
<linearGradient id="paint99_linear_4011_898" x1="23" y1="430.225" x2="15" y2="430.225" gradientUnits="userSpaceOnUse">
<stop stop-color="#9A1A51"/>
<stop offset="0.837037" stop-color="#631F89"/>
</linearGradient>
<linearGradient id="paint100_linear_4011_898" x1="25" y1="434.225" x2="13" y2="434.225" gradientUnits="userSpaceOnUse">
<stop stop-color="#9A1A51"/>
<stop offset="0.837037" stop-color="#631F89"/>
</linearGradient>
<linearGradient id="paint101_linear_4011_898" x1="23" y1="438.225" x2="15" y2="438.225" gradientUnits="userSpaceOnUse">
<stop stop-color="#9A1A51"/>
<stop offset="0.837037" stop-color="#631F89"/>
</linearGradient>
<linearGradient id="paint102_linear_4011_898" x1="25" y1="442.225" x2="13" y2="442.225" gradientUnits="userSpaceOnUse">
<stop stop-color="#9A1A51"/>
<stop offset="0.837037" stop-color="#631F89"/>
</linearGradient>
<linearGradient id="paint103_linear_4011_898" x1="23" y1="446.225" x2="15" y2="446.225" gradientUnits="userSpaceOnUse">
<stop stop-color="#9A1A51"/>
<stop offset="0.837037" stop-color="#631F89"/>
</linearGradient>
<linearGradient id="paint104_linear_4011_898" x1="23" y1="450.225" x2="15" y2="450.225" gradientUnits="userSpaceOnUse">
<stop stop-color="#9A1A51"/>
<stop offset="0.837037" stop-color="#631F89"/>
</linearGradient>
<linearGradient id="paint105_linear_4011_898" x1="23" y1="458.225" x2="15" y2="458.225" gradientUnits="userSpaceOnUse">
<stop stop-color="#9A1A51"/>
<stop offset="0.837037" stop-color="#631F89"/>
</linearGradient>
<linearGradient id="paint106_linear_4011_898" x1="23" y1="462.225" x2="15" y2="462.225" gradientUnits="userSpaceOnUse">
<stop stop-color="#9A1A51"/>
<stop offset="0.837037" stop-color="#631F89"/>
</linearGradient>
<clipPath id="clip0_4011_898">
<rect width="463" height="38" fill="white" transform="translate(38) rotate(90)"/>
</clipPath>
</defs>
</svg>
