<svg width="96" height="32" viewBox="0 0 96 32" fill="none" xmlns="http://www.w3.org/2000/svg">
<rect x="1" y="1" width="94" height="30" rx="15" stroke="#100426" stroke-width="2"/>
<path d="M17.6 9.59998C18.8753 9.59958 20.1217 9.98012 21.1793 10.6928C22.2369 11.4055 23.0576 12.4178 23.536 13.6H21.7568C21.2285 12.6849 20.413 11.9697 19.4368 11.5654C18.4606 11.161 17.3782 11.0901 16.3576 11.3635C15.3369 11.637 14.435 12.2396 13.7918 13.0779C13.1485 13.9162 12.7999 14.9433 12.7999 16C12.7999 17.0566 13.1485 18.0837 13.7918 18.922C14.435 19.7603 15.3369 20.3629 16.3576 20.6364C17.3782 20.9099 18.4606 20.839 19.4368 20.4346C20.413 20.0302 21.2285 19.3151 21.7568 18.4H23.5328C22.9744 19.7751 21.9556 20.9134 20.6506 21.6203C19.3456 22.3271 17.8356 22.5586 16.3788 22.2751C14.922 21.9916 13.6089 21.2107 12.6643 20.0661C11.7196 18.9214 11.202 17.4841 11.2 16C11.2 14.3026 11.8743 12.6747 13.0745 11.4745C14.2748 10.2743 15.9026 9.59998 17.6 9.59998ZM31.7664 21.3664L36.5664 16.5664C36.6409 16.4921 36.7 16.4038 36.7404 16.3066C36.7807 16.2094 36.8014 16.1052 36.8014 16C36.8014 15.8947 36.7807 15.7906 36.7404 15.6934C36.7 15.5962 36.6409 15.5079 36.5664 15.4336L31.7664 10.6336C31.6162 10.4836 31.4125 10.3994 31.2002 10.3995C30.988 10.3997 30.7844 10.4842 30.6344 10.6344C30.4844 10.7846 30.4002 10.9883 30.4004 11.2005C30.4005 11.4128 30.485 11.6164 30.6352 11.7664L34.0688 15.2H16.8C16.5878 15.2 16.3844 15.2843 16.2343 15.4343C16.0843 15.5843 16 15.7878 16 16C16 16.2121 16.0843 16.4156 16.2343 16.5657C16.3844 16.7157 16.5878 16.8 16.8 16.8H34.0688L30.6352 20.2336C30.485 20.3836 30.4005 20.5871 30.4004 20.7994C30.4002 21.0117 30.4844 21.2154 30.6344 21.3656C30.7844 21.5158 30.988 21.6003 31.2002 21.6004C31.4125 21.6006 31.6162 21.5164 31.7664 21.3664Z" fill="url(#paint0_linear_2003_3931)"/>
<defs>
<linearGradient id="paint0_linear_2003_3931" x1="11.2" y1="14.5562" x2="36.8014" y2="14.5562" gradientUnits="userSpaceOnUse">
<stop stop-color="#9A1A51"/>
<stop offset="0.837037" stop-color="#631F89"/>
</linearGradient>
</defs>
</svg>
